<?xml version="1.0" standalone="no"?>
<!DOCTYPE svg PUBLIC "-//W3C//DTD SVG 1.1//EN" "http://www.w3.org/Graphics/SVG/1.1/DTD/svg11.dtd" >
<svg>
<metadata>
Created by FontForge 20090914 at Mon Apr  1 10:43:39 2019
 By www-data
Copyright (c) 2013-2016, Sorkin Type Co (www.sorkintype.com) with Reserved Font Name 'Merriweather'
</metadata>
<defs>
<font id="MerriweatherSans-Bold" horiz-adv-x="1595" >
  <font-face 
    font-family="Merriweather Sans"
    font-weight="700"
    font-stretch="normal"
    units-per-em="2048"
    panose-1="0 0 8 0 0 0 0 0 0 0"
    ascent="1638"
    descent="-410"
    x-height="1140"
    cap-height="1522"
    bbox="-359.999 -560 3008 2070"
    underline-thickness="137"
    underline-position="-143"
    unicode-range="U+000D-U+FB02"
  />
<missing-glyph horiz-adv-x="1882" 
d="M1649 1416v-1416h-1416v1416h1416zM1300 219l122 122l-363 368l363 358l-128 124l-352 -366l-357 368l-123 -125l359 -363l-358 -342l128 -144l347 368z" />
    <glyph glyph-name="fi" unicode="fi" horiz-adv-x="1518" 
d="M82 924l0.00195312 181.997l155 34v109c0 104.667 20.667 189.334 62 254.001s94.166 110.834 158.499 138.501s132.833 41.5 205.5 41.5c39.333 0 79.166 -2.5 119.499 -7.5s67.833 -9.83301 82.5 -14.5v-222c-33.333 16 -85.333 24 -156 24
c-48.667 0 -87.5 -17.667 -116.5 -53s-43.5 -86.666 -43.5 -153.999v-116h266v-216h-266v-924h-312v924h-155zM1344 1140v-1140h-312v1140h312zM1022 1570c18.667 28.667 43.3311 51.5 73.998 68.5s63 25.5 97 25.5c54.667 0 98.334 -15.833 131.001 -47.5
s49 -72.5 49 -122.5c0 -33.333 -9.16699 -64.5 -27.5 -93.5s-42.666 -52 -72.999 -69s-62.833 -25.5 -97.5 -25.5c-34 0 -64.667 7.33301 -92 22s-49 35 -65 61s-24 55.333 -24 88c0 33.333 9.33301 64.333 28 93z" />
    <glyph glyph-name="fl" unicode="fl" horiz-adv-x="1530" 
d="M82 924l0.00195312 181.997l155 34v109c0 104.667 20.667 189.334 62 254.001s94.166 110.834 158.499 138.501s132.833 41.5 205.5 41.5c39.333 0 79.166 -2.5 119.499 -7.5s67.833 -9.83301 82.5 -14.5v-222c-33.333 16 -85.333 24 -156 24
c-48.667 0 -87.5 -17.667 -116.5 -53s-43.5 -86.666 -43.5 -153.999v-116h266v-216h-266v-924h-312v924h-155zM1350 1662v-1662h-312v1662h312z" />
    <glyph glyph-name="f_f" unicode="ff" horiz-adv-x="1716" 
d="M82 924l0.00195312 181.997l155 34v109c0 104.667 20.667 189.334 62 254.001s94.166 110.834 158.499 138.501s132.833 41.5 205.5 41.5c39.333 0 79.166 -2.5 119.499 -7.5s67.833 -9.83301 82.5 -14.5v-222c-33.333 16 -85.333 24 -156 24
c-48.667 0 -87.5 -17.667 -116.5 -53s-43.5 -86.666 -43.5 -153.999v-116h266v-216h-266v-924h-312v924h-155zM940.002 923.997l0.00195312 181.997l155 34v109c0 104.667 20.667 189.334 62 254.001s94.166 110.834 158.499 138.501s132.833 41.5 205.5 41.5
c39.333 0 79.166 -2.5 119.499 -7.5s67.833 -9.83301 82.5 -14.5v-222c-33.333 16 -85.333 24 -156 24c-48.667 0 -87.5 -17.667 -116.5 -53s-43.5 -86.666 -43.5 -153.999v-116h266v-216h-266v-924h-312v924h-155z" />
    <glyph glyph-name="f_f_i" unicode="ffi" horiz-adv-x="2376" 
d="M82 924l0.00195312 181.997l155 34v109c0 104.667 20.667 189.334 62 254.001s94.166 110.834 158.499 138.501s132.833 41.5 205.5 41.5c39.333 0 79.166 -2.5 119.499 -7.5s67.833 -9.83301 82.5 -14.5v-222c-33.333 16 -85.333 24 -156 24
c-48.667 0 -87.5 -17.667 -116.5 -53s-43.5 -86.666 -43.5 -153.999v-116h266v-216h-266v-924h-312v924h-155zM940.002 923.997l0.00195312 181.997l155 34v109c0 104.667 20.667 189.334 62 254.001s94.166 110.834 158.499 138.501s132.833 41.5 205.5 41.5
c39.333 0 79.166 -2.5 119.499 -7.5s67.833 -9.83301 82.5 -14.5v-222c-33.333 16 -85.333 24 -156 24c-48.667 0 -87.5 -17.667 -116.5 -53s-43.5 -86.666 -43.5 -153.999v-116h266v-216h-266v-924h-312v924h-155zM2202 1139.99v-1140h-312v1140h312zM1880 1569.99
c18.667 28.667 43.333 51.5 74 68.5s63 25.5 97 25.5c54.667 0 98.334 -15.833 131 -47.5c32.667 -31.667 49 -72.5 49 -122.5c0 -33.333 -9.16699 -64.5 -27.5 -93.5s-42.666 -52 -73 -69c-30.333 -17 -62.833 -25.5 -97.5 -25.5c-34 0 -64.667 7.33301 -92 22
s-49 35 -65 61s-24 55.333 -24 88c0 33.333 9.33301 64.333 28 93z" />
    <glyph glyph-name="f_f_l" unicode="ffl" horiz-adv-x="2388" 
d="M82 924l0.00195312 181.997l155 34v109c0 104.667 20.667 189.334 62 254.001s94.166 110.834 158.499 138.501s132.833 41.5 205.5 41.5c39.333 0 79.166 -2.5 119.499 -7.5s67.833 -9.83301 82.5 -14.5v-222c-33.333 16 -85.333 24 -156 24
c-48.667 0 -87.5 -17.667 -116.5 -53s-43.5 -86.666 -43.5 -153.999v-116h266v-216h-266v-924h-312v924h-155zM940.002 923.997l0.00195312 181.997l155 34v109c0 104.667 20.667 189.334 62 254.001s94.166 110.834 158.499 138.501s132.833 41.5 205.5 41.5
c39.333 0 79.166 -2.5 119.499 -7.5s67.833 -9.83301 82.5 -14.5v-222c-33.333 16 -85.333 24 -156 24c-48.667 0 -87.5 -17.667 -116.5 -53s-43.5 -86.666 -43.5 -153.999v-116h266v-216h-266v-924h-312v924h-155zM2208 1661.99v-1662h-312v1662h312z" />
    <glyph glyph-name=".notdef" horiz-adv-x="1882" 
d="M1649 1416v-1416h-1416v1416h1416zM1300 219l122 122l-363 368l363 358l-128 124l-352 -366l-357 368l-123 -125l359 -363l-358 -342l128 -144l347 368z" />
    <glyph glyph-name="NULL" horiz-adv-x="0" 
 />
    <glyph glyph-name="NULL" horiz-adv-x="0" 
 />
    <glyph glyph-name="nonmarkingreturn" unicode="&#xd;" horiz-adv-x="0" 
 />
    <glyph glyph-name="space" unicode=" " horiz-adv-x="669" 
 />
    <glyph glyph-name="exclam" unicode="!" horiz-adv-x="641" 
d="M498 1780l-34 -1225h-267l-46 1225h347zM154 278c18.667 32 43.499 57.498 74.499 76.498s64.5 28.5 100.5 28.5c38 0 71.167 -8.5 99.5 -25.5s49.833 -40.167 64.5 -69.5s22 -62.333 22 -99c0 -37.333 -9 -72.166 -27 -104.499s-42.667 -58.166 -74 -77.499
s-65.333 -29 -102 -29c-35.333 0 -67.166 8.66699 -95.499 26s-50.5 41 -66.5 71s-24 63.333 -24 100s9.33301 71 28 103z" />
    <glyph glyph-name="quotedbl" unicode="&#x22;" horiz-adv-x="1245" 
d="M521 1685l-36 -719h-231l-38 719h305zM1029 1685l-36 -719h-231l-38 719h305z" />
    <glyph glyph-name="numbersign" unicode="#" horiz-adv-x="1645" 
d="M1226 856l-30 -320h209v-210h-229l-31 -326h-254l30 326h-280l-31 -326h-258l31 326h-187v210h206l30 320h-198v202h217l30 315h261l-30 -315h275l29 315h259l-30 -315h204v-202h-223zM969 856h-277l-30 -320h278z" />
    <glyph glyph-name="dollar" unicode="$" horiz-adv-x="1410" 
d="M1159 190.5c-38 -61 -91.668 -108.666 -161.001 -142.999s-150.666 -54.833 -243.999 -61.5l-5 -211h-184l6 215c-72.667 7.33301 -140.5 19.333 -203.5 36s-106.833 32.667 -131.5 48l45 255c48.667 -26.667 107.334 -49.334 176.001 -68.001s140.667 -28 216 -28
c82 0 139.667 12.5 173 37.5s50 64.167 50 117.5c0 36 -8.33301 66.5 -25 91.5s-44.834 50.167 -84.501 75.5s-101.5 58.666 -185.5 99.999c-112 55.333 -203 120 -273 194s-105 167 -105 279c0 118.667 35.5 210.667 106.5 276s166.5 107 286.5 125l7 234h183l-6 -226
c76.667 -3.33301 146 -13.833 208 -31.5s108.333 -36.167 139 -55.5l-52 -247c-45.333 28.667 -94.833 52 -148.5 70s-114.834 27 -183.501 27c-80.667 0 -138.834 -13.5 -174.501 -40.5s-53.5 -65.5 -53.5 -115.5c0 -35.333 8.83301 -65.666 26.5 -90.999
s43.834 -49.5 78.501 -72.5s87.334 -53.167 158.001 -90.5c96 -50.667 172.5 -96.167 229.5 -136.5s102.667 -88.5 137 -144.5s51.5 -123 51.5 -201c0 -84 -19 -156.5 -57 -217.5z" />
    <glyph glyph-name="percent" unicode="%" horiz-adv-x="2188" 
d="M1514 1530l-593 -1530h-246l592 1530h247zM163 1313.5c40 68.333 93.1699 120.334 159.503 156.001s137.833 53.5 214.5 53.5c87.333 0 160.166 -19.5 218.499 -58.5s101.333 -91.833 129 -158.5s41.5 -142.667 41.5 -228c0 -93.333 -20 -174 -60 -242
s-92.833 -119.833 -158.5 -155.5s-136.834 -53.5 -213.501 -53.5c-84.667 0 -156.334 19.667 -215.001 59s-102.667 92.5 -132 159.5s-44 142.167 -44 225.5c0 93.333 20 174.166 60 242.499zM634.503 1257.5c-28.333 46.333 -67.834 69.501 -118.501 69.501
c-52.667 0 -93.167 -21.833 -121.5 -65.5s-42.5 -104.167 -42.5 -181.5c0 -76.667 14.167 -138.5 42.5 -185.5s67.5 -70.5 117.5 -70.5c52.667 0 93.334 21.667 122.001 65s43 103.666 43 180.999c0 78.667 -14.167 141.167 -42.5 187.5zM1321 699.502
c40 68.333 93.167 120.332 159.5 155.999s138.166 53.5 215.499 53.5c87.333 0 160 -19.5 218 -58.5s101 -92 129 -159s42 -142.833 42 -227.5c0 -93.333 -20 -174.166 -60 -242.499s-92.833 -120.333 -158.5 -156s-136.5 -53.5 -212.5 -53.5
c-84.667 0 -156.667 19.667 -216 59s-103.666 92.5 -132.999 159.5s-44 142.167 -44 225.5c0 94 20 175.167 60 243.5zM1792.5 643.001c-28.333 46.667 -67.499 70.001 -117.499 70.001c-52.667 0 -93.334 -21.833 -122.001 -65.5s-43 -104.167 -43 -181.5
c0 -76.667 14.333 -138.5 43 -185.5s68 -70.5 118 -70.5c52.667 0 93.167 21.667 121.5 65s42.5 103.666 42.5 180.999c0 78 -14.167 140.333 -42.5 187z" />
    <glyph glyph-name="ampersand" unicode="&#x26;" horiz-adv-x="1542" 
d="M1354 178.5c30.667 -7 68.0029 -11.166 112.003 -12.499v-167c-40 -10 -87.667 -15 -143 -15c-58 0 -109.333 6.16699 -154 18.5s-86.334 30.5 -125.001 54.5c-50 -22 -101.5 -39.667 -154.5 -53s-104.5 -20 -154.5 -20c-213.333 0 -374.5 35.667 -483.5 107
s-163.5 174 -163.5 308c0 85.333 28 160.5 84 225.5s131.667 119.833 227 164.5c-45.333 61.333 -80.5 120.666 -105.5 177.999s-37.5 124.333 -37.5 201c0 78 18.167 145.5 54.5 202.5s87.833 100.5 154.5 130.5s144.667 45 234 45c82.667 0 155.5 -16.333 218.5 -49
s111.333 -76.667 145 -132s50.5 -116.333 50.5 -183c0 -80.667 -12.833 -149.667 -38.5 -207s-61.5 -106 -107.5 -146s-104.333 -78.333 -175 -115l138 -170c53.333 -63.333 102.666 -119 147.999 -167c23.333 26 41.166 56.333 53.499 91s18.5 71 18.5 109
c0 32 -1.66699 59.667 -5 83s-8 48.666 -14 75.999l-5 21h258c13.333 -55.333 20 -115.666 20 -180.999c0 -152 -45.667 -273 -137 -363c27.333 -16 56.333 -27.5 87 -34.5zM580.003 1292.5c-30 -29.667 -45.001 -69.5 -45.001 -119.5c0 -35.333 4.33301 -66.333 13 -93
s20.5 -52 35.5 -76s41.167 -61.667 78.5 -113c63.333 32.667 111.333 71.834 144 117.501s49 102.5 49 170.5c0 24 -5.33301 48.167 -16 72.5s-27.667 44.666 -51 60.999s-52.666 24.5 -87.999 24.5c-50 0 -90 -14.833 -120 -44.5zM845.002 233.001l-164.5 188.501
c-57.667 69 -108.167 131.833 -151.5 188.5c-48 -25.333 -84.333 -53.833 -109 -85.5s-37 -67.834 -37 -108.501c0 -64 23.833 -113.167 71.5 -147.5s125.5 -51.5 233.5 -51.5c60 0 112.333 5.33301 157 16z" />
    <glyph glyph-name="quotesingle" unicode="'" horiz-adv-x="737" 
d="M521 1685l-36 -719h-231l-38 719h305z" />
    <glyph glyph-name="parenleft" unicode="(" horiz-adv-x="835" 
d="M215.5 1220c57 149.333 122.334 270.333 196.001 363s136.167 154 187.5 184l181 -116c-38 -28 -86.167 -83 -144.5 -165s-111 -190.167 -158 -324.5s-70.5 -285.833 -70.5 -454.5c0 -177.333 22.167 -332.833 66.5 -466.5s95 -239.5 152 -317.5
s108.5 -133.667 154.5 -167l-181 -116c-50 30 -110.833 87 -182.5 171s-137.334 203 -197.001 357s-89.5 337 -89.5 549c0 186 28.5 353.667 85.5 503z" />
    <glyph glyph-name="parenright" unicode=")" horiz-adv-x="835" 
d="M609.5 204c-57 -149.333 -122.334 -270.333 -196.001 -363s-136.167 -154 -187.5 -184l-181 116c38 28 86.167 83 144.5 165s111 190.167 158 324.5s70.5 285.833 70.5 454.5c0 177.333 -22.167 332.833 -66.5 466.5s-95 239.5 -152 317.5s-108.5 133.667 -154.5 167
l181 116c50 -30 110.833 -87 182.5 -171s137.334 -203 197.001 -357s89.5 -337 89.5 -549c0 -186 -28.5 -353.667 -85.5 -503z" />
    <glyph glyph-name="asterisk" unicode="*" horiz-adv-x="1348" 
d="M623 1080l-134.998 -138l-235 -166l-117 207l252 135l181 53c-4 2 -30.333 9 -79 21c-56.667 13.333 -91 22.333 -103 27l-257 128l110 208l243 -164l137 -130c-0.666992 4.66699 -3.33398 15.667 -8.00098 33l-11 41c-16.667 59.333 -25.667 95.333 -27 108l-26 293h236
l-17 -288l-43 -184c4.66699 4 23 22.667 55 56c42.667 44.667 68.667 70.667 78 78l242 166l112 -206l-253 -131l-181 -55l183 -49l258 -123l-119 -214l-233 162l-141 130c1.33301 -6 7.66602 -30 18.999 -72c16 -57.333 25.333 -94 28 -110l27 -293l-236 -1l17 293z" />
    <glyph glyph-name="plus" unicode="+" horiz-adv-x="1403" 
d="M584 662l-162 -6h-209v237h209l162 -7l-6 187v217h246v-217l-7 -187l151 7h222v-237h-222l-151 6l7 -188v-214h-246v214z" />
    <glyph glyph-name="comma" unicode="," horiz-adv-x="693" 
d="M227 -327.5c16 25.667 28.834 55.3311 38.501 88.998s14.5 67.834 14.5 102.501c0 30 -6.16699 61.167 -18.5 93.5s-27.666 59.5 -45.999 81.5s-35.833 33.333 -52.5 34v87l222 136c39.333 -14.667 72.833 -39.5 100.5 -74.5s48.5 -74.167 62.5 -117.5
s21 -85.333 21 -126c0 -74 -12.833 -144.667 -38.5 -212s-60.334 -125 -104.001 -173s-91.834 -81 -144.501 -99l-106 98v26c18 10.667 35 28.834 51 54.501z" />
    <glyph glyph-name="hyphen" unicode="-" horiz-adv-x="1360" 
d="M1105 889v-245h-850v245h850z" />
    <glyph glyph-name="period" unicode="." horiz-adv-x="641" 
d="M154 276.5c18.667 32.333 43.667 58.166 75 77.499s65 29 101 29c38 0 71 -8.5 99 -25.5s49.333 -40.5 64 -70.5s22 -63.333 22 -100c0 -37.333 -9 -72 -27 -104s-42.5 -57.5 -73.5 -76.5s-64.833 -28.5 -101.5 -28.5c-35.333 0 -67.333 8.5 -96 25.5s-51 40.333 -67 70
s-24 62.834 -24 99.501s9.33301 71.167 28 103.5z" />
    <glyph glyph-name="slash" unicode="/" horiz-adv-x="864" 
d="M840 1599l-561 -1962h-255l561 1962h255z" />
    <glyph glyph-name="zero" unicode="0" horiz-adv-x="1409" 
d="M200 969c50.667 97.333 121.165 172.167 211.498 224.5s193.833 78.5 310.5 78.5c378.667 0 566.334 -212.333 563.001 -637c-0.666992 -128 -25.167 -241.167 -73.5 -339.5s-116.666 -174.833 -204.999 -229.5s-191.5 -82 -309.5 -82c-134 0 -243.667 29.333 -329 88
s-147.333 136.334 -186 233.001s-58 204.667 -58 324c0 129.333 25.333 242.666 76 339.999zM903.498 936.001c-44.333 79.333 -110.833 119.001 -199.5 119.001c-85.333 0 -150.833 -35.833 -196.5 -107.5s-68.5 -170.5 -68.5 -296.5c0 -80.667 10 -155 30 -223
s50.667 -122.833 92 -164.5s92 -62.5 152 -62.5c85.333 0 149.5 36.833 192.5 110.5s64.5 178.5 64.5 314.5c0 127.333 -22.167 230.666 -66.5 309.999z" />
    <glyph glyph-name="one" unicode="1" horiz-adv-x="1004" 
d="M153 882l-25.999 185.001c42.667 11.333 93 29.666 151 54.999s113.167 52.5 165.5 81.5s91.166 53.833 116.499 74.5l154 -25l-2 -1253h-321v929c-50.667 -12 -130 -27.667 -238 -47z" />
    <glyph glyph-name="two" unicode="2" horiz-adv-x="1361" 
d="M1209 264l0.000976562 -264.002h-1023l-43 155c173.333 96.667 328 205.334 464 326.001s204 239.334 204 356.001c0 62 -17.833 112 -53.5 150s-88.834 57 -159.501 57c-62 0 -123.333 -13.167 -184 -39.5s-109.334 -57.833 -146.001 -94.5l-117 183
c30.667 32 70 63 118 93s104.667 55.167 170 75.5s135.333 30.5 210 30.5c114.667 0 208.5 -18.333 281.5 -55s125.833 -84.667 158.5 -144s49 -125.333 49 -198c0 -120 -42.167 -234.667 -126.5 -344s-204.166 -212 -359.499 -308z" />
    <glyph glyph-name="three" unicode="3" horiz-adv-x="1170" 
d="M931 466c52.667 -36.667 91.3359 -81.332 116.003 -133.999s37 -106.667 37 -162c0 -94.667 -28.5 -180.5 -85.5 -257.5s-137 -137.5 -240 -181.5s-221.167 -66 -354.5 -66c-46.667 0 -88.5 2.66699 -125.5 8s-63.833 10.333 -80.5 15s-41.667 12.334 -75 23.001l-1 204
c71.333 -15.333 134 -23 188 -23c85.333 0 161.333 10.5 228 31.5s119 52.167 157 93.5s57 91.333 57 150c0 76 -22.833 136.833 -68.5 182.5s-118.167 66.5 -217.5 62.5l-139 -36l-42 198c46 10 90.833 22 134.5 36s80.167 28.667 109.5 44c102.667 58 154 133 154 225
c0 53.333 -18.833 92.666 -56.5 117.999s-87.834 38 -150.501 38c-66.667 0 -123.334 -9.33301 -170.001 -28s-92 -43 -136 -73l-93 195c20.667 22 54.167 44.833 100.5 68.5s99.833 43.5 160.5 59.5s121 24 181 24c106 0 195.167 -15 267.5 -45
s126.666 -72.333 162.999 -127s54.5 -118.667 54.5 -192c0 -88.667 -24.833 -165.667 -74.5 -231s-114.834 -117 -195.501 -155c78.667 -6.66699 144.334 -28.334 197.001 -65.001z" />
    <glyph glyph-name="four" unicode="4" horiz-adv-x="1412" 
d="M1361 0h-233v-376h-300v376h-652l-76 133l560 1201h73l244 -123l-461 -850l-76 -127h388l38 410h262v-410h233v-234z" />
    <glyph glyph-name="five" unicode="5" horiz-adv-x="1293" 
d="M193 -123c36 -1.33301 62.335 -2.00098 79.002 -2.00098c108.667 0 205.5 15 290.5 45s151.167 72.167 198.5 126.5s71 116.833 71 187.5c0 74 -22 128.5 -66 163.5s-117.333 52.833 -220 53.5c-38.667 0 -81.667 -5.66699 -129 -17s-103.333 -27.666 -168 -48.999
l-50 30l66 837h847l-28 -267h-593l-33 -335c53.333 12 99.5 20.833 138.5 26.5s76.833 8.5 113.5 8.5c92 0 171.167 -18 237.5 -54s116.833 -87.167 151.5 -153.5s52 -143.833 52 -232.5c0 -111.333 -33.833 -212.333 -101.5 -303s-163.834 -162.5 -288.501 -215.5
s-269.334 -79.833 -434.001 -80.5c-60 0 -105 4.33301 -135 13z" />
    <glyph glyph-name="six" unicode="6" horiz-adv-x="1414" 
d="M1077 1433c-121.333 -31.333 -228.502 -87.832 -321.502 -169.499s-164.833 -175.167 -215.5 -280.5s-77 -208 -79 -308c-2 -144 17.333 -258.833 58 -344.5s107.334 -128.5 200.001 -128.5c82.667 0 145 25.167 187 75.5s63 118.833 63 205.5
c0 104.667 -17.5 180 -52.5 226s-80.833 69 -137.5 69c-57.333 0 -109.333 -12 -156 -36l-63 181c22.667 23.333 59.834 44.833 111.501 64.5s111.834 29.5 180.501 29.5c89.333 0 166.666 -20.667 231.999 -62s115.166 -97.333 149.499 -168s51.5 -148.334 51.5 -233.001
c0 -104.667 -21.833 -200 -65.5 -286s-110.167 -154.833 -199.5 -206.5s-199.333 -77.5 -330 -77.5c-114.667 0 -214.5 27 -299.5 81s-150.167 126.833 -195.5 218.5s-68 192.5 -68 302.5c0 184.667 45.333 352 136 502s203.834 271 339.501 363s268.5 148.333 398.5 169z
" />
    <glyph glyph-name="seven" unicode="7" horiz-adv-x="1286" 
d="M106 997v274h1001l77 -117l-602 -1548l-318 92l298 653l274 645z" />
    <glyph glyph-name="eight" unicode="8" horiz-adv-x="1356" 
d="M1163.5 176c-47.667 -63.333 -112.501 -111.166 -194.501 -143.499s-174.333 -48.5 -277 -48.5c-110 0 -207.333 15 -292 45s-151 75.167 -199 135.5s-72 133.833 -72 220.5c0 74 23 145.333 69 214s118.333 128.667 217 180c-73.333 50 -130.833 106.5 -172.5 169.5
s-62.5 138.167 -62.5 225.5c0 77.333 20.333 145.5 61 204.5s99 104.833 175 137.5s164.667 49 266 49c100.667 0 188 -14.833 262 -44.5s130.5 -71 169.5 -124s58.5 -114.5 58.5 -184.5c0 -48 -9.83301 -97 -29.5 -147s-49.667 -96.833 -90 -140.5
s-89.833 -79.834 -148.5 -108.501c66.667 -38 123.834 -75.833 171.501 -113.5s86.167 -81.334 115.5 -131.001s44 -105.167 44 -166.5c0 -89.333 -23.833 -165.666 -71.5 -228.999zM571.999 1335c-32 -13.333 -57.3311 -32.333 -75.998 -57s-28 -53 -28 -85
c0 -53.333 21.167 -100.833 63.5 -142.5s103.5 -85.167 183.5 -130.5c61.333 25.333 107.166 62 137.499 110s44.5 100.333 42.5 157c0 32 -8.66699 60.833 -26 86.5s-42.333 45.667 -75 60s-71.334 21.5 -116.001 21.5c-38.667 0 -74 -6.66699 -106 -20zM808.001 225
c35.333 14 63.501 34 84.501 60s31.5 57 31.5 93c0 40 -13 76 -39 108s-58.667 60.167 -98 84.5s-93.333 54.166 -162 89.499l-22 11c-119.333 -63.333 -179 -152.666 -179 -267.999c0 -59.333 22.167 -107.333 66.5 -144s111.833 -55 202.5 -55
c41.333 0 79.666 7 114.999 21z" />
    <glyph glyph-name="nine" unicode="9" horiz-adv-x="1427" 
d="M1029.5 1191c84.333 -54 148.501 -126.667 192.501 -218s66 -192.333 66 -303c0 -189.333 -46.167 -361.166 -138.5 -515.499s-207.333 -279 -345 -374s-271.5 -153.167 -401.5 -174.5l-83 184c125.333 31.333 236 90.666 332 177.999s170.333 186.333 223 297
s79.667 215.334 81 314.001c2 146 -17.667 261.333 -59 346s-107.666 127 -198.999 127c-78.667 0 -139.834 -23.833 -183.501 -71.5s-65.5 -111.167 -65.5 -190.5c0 -107.333 18.167 -187 54.5 -239s84.833 -78 145.5 -78c38 0 67.167 2.66699 87.5 8
s42.5 13.666 66.5 24.999l60 -178c-21.333 -24 -57.333 -45.667 -108 -65s-112.334 -29 -185.001 -29c-90 0 -167.833 21.333 -233.5 64s-115.667 100.167 -150 172.5s-51.5 151.5 -51.5 237.5c0 108 22.333 204.5 67 289.5s111.667 152 201 201s198 73.5 326 73.5
c116 0 216.167 -27 300.5 -81z" />
    <glyph glyph-name="colon" unicode=":" horiz-adv-x="641" 
d="M154 276.5c18.667 32.333 43.667 58.166 75 77.499s65 29 101 29c38 0 71 -8.5 99 -25.5s49.333 -40.5 64 -70.5s22 -63.333 22 -100c0 -37.333 -9 -72 -27 -104s-42.5 -57.5 -73.5 -76.5s-64.833 -28.5 -101.5 -28.5c-35.333 0 -67.333 8.5 -96 25.5s-51 40.333 -67 70
s-24 62.834 -24 99.501s9.33301 71.167 28 103.5zM154 1035.5c18.667 32.333 43.667 58.166 75 77.499s65 29 101 29c38 0 71 -8.5 99 -25.5s49.333 -40.5 64 -70.5s22 -63.333 22 -100c0 -37.333 -9 -72 -27 -104s-42.5 -57.5 -73.5 -76.5s-64.833 -28.5 -101.5 -28.5
c-35.333 0 -67.333 8.5 -96 25.5s-51 40.333 -67 70s-24 62.834 -24 99.501s9.33301 71.167 28 103.5z" />
    <glyph glyph-name="semicolon" unicode=";" horiz-adv-x="641" 
d="M201 -327.5c16 25.667 28.834 55.3311 38.501 88.998s14.5 67.834 14.5 102.501c0 30 -6.16699 61.167 -18.5 93.5s-27.666 59.5 -45.999 81.5s-35.833 33.333 -52.5 34v87l222 136c39.333 -14.667 72.833 -39.5 100.5 -74.5s48.5 -74.167 62.5 -117.5
s21 -85.333 21 -126c0 -74 -12.833 -144.667 -38.5 -212s-60.334 -125 -104.001 -173s-91.834 -81 -144.501 -99l-106 98v26c18 10.667 35 28.834 51 54.501zM154.001 1035.5c18.667 32.333 43.667 58.166 75 77.499s65 29 101 29c38 0 71 -8.5 99 -25.5
s49.333 -40.5 64 -70.5s22 -63.333 22 -100c0 -37.333 -9 -72 -27 -104s-42.5 -57.5 -73.5 -76.5s-64.833 -28.5 -101.5 -28.5c-35.333 0 -67.333 8.5 -96 25.5s-51 40.333 -67 70s-24 62.834 -24 99.501s9.33301 71.167 28 103.5z" />
    <glyph glyph-name="less" unicode="&#x3c;" horiz-adv-x="1378" 
d="M1149 1057l-597 -283l597 -263v-282l-952 469v154l952 479v-274z" />
    <glyph glyph-name="equal" unicode="=" horiz-adv-x="1423" 
d="M1172 1139v-216h-921v216h921zM1172 627v-216h-921v216h921z" />
    <glyph glyph-name="greater" unicode="&#x3e;" horiz-adv-x="1377" 
d="M1170 852v-154l-952 -469v282l597 263l-597 283v274z" />
    <glyph glyph-name="question" unicode="?" horiz-adv-x="1057" 
d="M288 911c19.333 38 42.832 70.6631 70.499 97.9961s64.5 59.333 110.5 96c42 33.333 75.5 61.833 100.5 85.5s45.833 51.334 62.5 83.001s25 67.167 25 106.5c0 70.667 -26.5 123.5 -79.5 158.5s-134.833 52.5 -245.5 52.5c-45.333 0 -82.166 -2 -110.499 -6
s-50.166 -8 -65.499 -12s-25.333 -6.66699 -30 -8v232c22 13.333 57.5 24.833 106.5 34.5s103.167 14.5 162.5 14.5c142 0 257.333 -20.833 346 -62.5s152.167 -96.334 190.5 -164.001s56.5 -142.5 54.5 -224.5c0 -63.333 -11.5 -119.5 -34.5 -168.5s-51 -90.333 -84 -124
s-76.5 -72.5 -130.5 -116.5c-44 -36.667 -78.333 -67 -103 -91s-46 -51.5 -64 -82.5s-28.333 -65.167 -31 -102.5c-0.666992 -6.66699 -1 -16 -1 -28c0 -21.333 2 -41.166 6 -59.499s10.667 -43.833 20 -76.5c1.33301 -5.33301 5 -18.666 11 -39.999h-238
c-22.667 34.667 -41.334 73.834 -56.001 117.501s-22 95.834 -22 156.501c0 49.333 9.66699 93 29 131zM332.499 250.996c17.667 29.333 41.333 52.6689 71 70.002s60.834 26 93.501 26c35.333 0 66.333 -7.66699 93 -23s47.167 -36.5 61.5 -63.5s21.5 -57.167 21.5 -90.5
c0 -34 -8.83301 -65.667 -26.5 -95s-41.167 -52.833 -70.5 -70.5s-60.666 -26.5 -93.999 -26.5c-32.667 0 -62.334 7.83301 -89.001 23.5s-47.834 37.167 -63.501 64.5s-23.5 57.666 -23.5 90.999s8.83301 64.666 26.5 93.999z" />
    <glyph glyph-name="at" unicode="@" horiz-adv-x="2228" 
d="M1267 258c-47.333 -80.667 -101.169 -144.668 -161.502 -192.001s-127.5 -71 -201.5 -71c-46 0 -91 16.333 -135 49s-80.333 81.334 -109 146.001s-43 142.667 -43 234c0 100.667 21.5 201.5 64.5 302.5s109 185.167 198 252.5s198.833 101 329.5 101
c46 0 89.5 -4.5 130.5 -13.5s74.833 -22.833 101.5 -41.5l185 31c-16.667 -72 -37.834 -171 -63.501 -297s-47.167 -236.333 -64.5 -331c-11.333 -63.333 -17 -113.666 -17 -150.999c0 -29.333 3.83301 -50.166 11.5 -62.499s19.834 -18.5 36.501 -18.5
c50 0 99.667 24.5 149 73.5s89.833 117.667 121.5 206s47.5 188.166 47.5 299.499c0 220 -56.333 373.5 -169 460.5s-260 130.5 -442 130.5c-152 0 -293.333 -37.5 -424 -112.5s-235 -182 -313 -321s-117 -300.5 -117 -484.5c0 -176 32.833 -319.167 98.5 -429.5
s150.5 -189.5 254.5 -237.5s216.667 -72 338 -72c78.667 0 146.334 5.5 203.001 16.5s101.667 23.5 135 37.5s70.333 32 111 54l43 -159c-140 -84 -310.667 -126 -512 -126c-166 0 -315.5 33 -448.5 99s-238.5 167 -316.5 303s-117 304.667 -117 506
c0 216 48.333 407.667 145 575s227.5 297.166 392.5 389.499s346.833 138.5 545.5 138.5c156.667 0 295.334 -28.333 416.001 -85s215.167 -140.334 283.5 -251.001s102.5 -244.667 102.5 -402c0 -170.667 -28.5 -317.167 -85.5 -439.5s-131.333 -214.666 -223 -276.999
s-188.5 -93.5 -290.5 -93.5c-60 0 -105.333 15.667 -136 47s-48.334 78 -53.001 140c-1.33301 28.667 -1.66602 54 -0.999023 76zM1118 323.999c52.667 68 99.3311 150.332 139.998 246.999s66.334 182.667 77.001 258c-12.667 16.667 -32.834 29.834 -60.501 39.501
s-60.167 14.5 -97.5 14.5c-58.667 0 -112.167 -20.667 -160.5 -62s-86.166 -94.333 -113.499 -159s-41.666 -130 -42.999 -196c-2 -162.667 36 -244 114 -244c43.333 0 91.333 34 144 102z" />
    <glyph glyph-name="A" unicode="A" horiz-adv-x="1421" 
d="M987 322h-559l-101 -322h-342l562 1538h322l567 -1538h-347zM914 551l-165 522l-43 157l-44 -157l-163 -522h415z" />
    <glyph glyph-name="B" unicode="B" horiz-adv-x="1422" 
d="M342 1522c27.333 0 74.998 1.99805 142.998 5.99805c92.667 6 164.334 9 215.001 9c125.333 0 229.5 -16 312.5 -48s144.5 -76.833 184.5 -134.5s60 -125.167 60 -202.5c0 -55.333 -9 -106.666 -27 -153.999s-44.167 -87.5 -78.5 -120.5s-75.166 -55.833 -122.499 -68.5
c60 -6.66699 113.333 -25.167 160 -55.5s83.167 -70.666 109.5 -120.999s39.5 -107.5 39.5 -171.5c0 -150 -47.333 -266.667 -142 -350s-255 -125 -481 -125c-96.667 0 -218.667 4.66699 -366 14h-161v1523zM892.998 939.998c40.667 37.333 61 98.999 61 184.999
c0 62 -24.5 107.333 -73.5 136s-120.5 43 -214.5 43c-26.667 0 -58 -1 -94 -3s-59 -5.33301 -69 -10v-398c18 -3.33301 47 -5.66602 87 -6.99902s74.667 -2 104 -2c92 0 158.333 18.667 199 56zM944.498 260.997c47.667 36.667 71.498 98.667 71.498 186
c0 78 -23.5 134.833 -70.5 170.5s-121.167 53.5 -222.5 53.5c-38.667 0 -81.667 -0.666992 -129 -2s-77.666 -3 -90.999 -5v-432c12.667 -10 40.834 -16.833 84.501 -20.5s89.167 -5.5 136.5 -5.5c99.333 0 172.833 18.333 220.5 55z" />
    <glyph glyph-name="C" unicode="C" horiz-adv-x="1299" 
d="M1030.5 1527c49 -7.33301 101.499 -17.999 157.499 -31.999c40.667 -9.33301 64.667 -14.666 72 -15.999l-46 -280c-4 2 -21.333 11.5 -52 28.5s-72 31 -124 42s-109.333 16.5 -172 16.5c-82.667 0 -157.167 -20.333 -223.5 -61s-118.666 -99.5 -156.999 -176.5
s-57.5 -167.5 -57.5 -271.5c0 -105.333 18.5 -199.5 55.5 -282.5s90.333 -147.833 160 -194.5s151.834 -70 246.501 -70c43.333 0 88.833 5.16699 136.5 15.5s91 23 130 38s67.833 29.167 86.5 42.5l1 -262c-42 -16.667 -79.167 -30.334 -111.5 -41.001
s-71.5 -19.834 -117.5 -27.501s-97.667 -11.5 -155 -11.5c-154 0 -288.333 32.167 -403 96.5s-202.834 154.833 -264.501 271.5s-92.5 251.667 -92.5 405c0 163.333 32.833 303.833 98.5 421.5s155 207 268 268s239.5 91.5 379.5 91.5c74 0 135.5 -3.66699 184.5 -11z" />
    <glyph glyph-name="D" unicode="D" horiz-adv-x="1554" 
d="M339 1522c21.333 0 64.001 2.00098 128.001 6.00098c89.333 6.66699 169.666 10 240.999 10c250 0 436.833 -63.333 560.5 -190s185.5 -309 185.5 -547c0 -170 -31 -316.333 -93 -439s-150.167 -216.334 -264.5 -281.001s-248.833 -97 -403.5 -97
c-48 0 -119.333 3 -214 9c-58 4.66699 -103.667 7 -137 7h-154v1522h151zM1010.5 361.501c71.667 87.667 107.499 222.832 107.499 405.499c0 130.667 -15.833 234.834 -47.5 312.501s-79.5 133.5 -143.5 167.5s-147 51 -249 51c-35.333 0 -78.333 -3.33301 -129 -10l-40 -4
v-1038c45.333 -12 113.333 -18 204 -18c126.667 1.33301 225.834 45.833 297.501 133.5z" />
    <glyph glyph-name="E" unicode="E" horiz-adv-x="1254" 
d="M1116 1522v-244h-610v-378h468v-241h-468v-408h675v-251h-993v1522h928z" />
    <glyph glyph-name="F" unicode="F" horiz-adv-x="1145" 
d="M1111 1522v-244h-601v-399h442v-245h-442v-634h-322v1522h923z" />
    <glyph glyph-name="G" unicode="G" horiz-adv-x="1494" 
d="M1372 820l-0.00195312 -729.998c-13.333 -0.666992 -27.666 -3.33398 -42.999 -8.00098s-36.666 -11.667 -63.999 -21c-67.333 -23.333 -133.166 -42 -197.499 -56s-144.5 -21 -240.5 -21c-152 0 -282.667 31.5 -392 94.5s-192.5 152.333 -249.5 268
s-85.5 251.167 -85.5 406.5c0 176 32.833 322.667 98.5 440s155.5 204.166 269.5 260.499s244.333 84.5 391 84.5c77.333 0 139.333 -3.33301 186 -10s97.667 -16.667 153 -30c34 -8.66699 64.333 -15.334 91 -20.001l-10 -273c-56 26.667 -114.333 46.834 -175 60.501
s-142 20.5 -244 20.5c-88 0 -164.167 -20.167 -228.5 -60.5s-113.833 -98.333 -148.5 -174s-52 -166.167 -52 -271.5s14 -199.5 42 -282.5s70.667 -148.667 128 -197s128.666 -72.5 213.999 -72.5c102 0 187 12.667 255 38v305l-233 12v237h535z" />
    <glyph glyph-name="H" unicode="H" horiz-adv-x="1601" 
d="M506 1522v-632h593v632h314v-1522h-314v651h-593v-651h-318v1522h318z" />
    <glyph glyph-name="I" unicode="I" horiz-adv-x="722" 
d="M521 1522v-1522h-320v1522h320z" />
    <glyph glyph-name="J" unicode="J" horiz-adv-x="798" 
d="M151 -62c46.667 45.333 78.666 104.999 95.999 178.999c12.667 52.667 21.167 117.834 25.5 195.501s6.5 176.167 6.5 295.5v914h320v-909l1 -223c0 -63.333 -1.33301 -118.833 -4 -166.5s-8 -91.834 -16 -132.501c-16.667 -87.333 -54 -162.666 -112 -225.999
s-123.833 -111.5 -197.5 -144.5s-141.5 -50.5 -203.5 -52.5l-77 168c60.667 22.667 114.334 56.667 161.001 102z" />
    <glyph glyph-name="K" unicode="K" horiz-adv-x="1444" 
d="M1411 0l-354 -0.000976562c-7.33301 10.667 -17 27.667 -29 51l-13 25c-5.33301 10 -12.333 22.333 -21 37c-50 90 -104.5 182.333 -163.5 277s-114.833 180 -167.5 256l-157 -177v-469h-318v1522h318v-674l535 674h350l-514 -644
c44 -65.333 116.667 -181.166 218 -347.499l251 -420.5z" />
    <glyph glyph-name="L" unicode="L" horiz-adv-x="1120" 
d="M506 1522v-1280h548v-242h-866v1522h318z" />
    <glyph glyph-name="M" unicode="M" horiz-adv-x="1886" 
d="M679 1522l203 -800l77 -336l58 336l183 800h434l182 -1522h-312l-75 816l-27 466l-112 -466l-218 -831h-252l-241 831l-113 466l-36 -466l-65 -816l-295 -1l162 1523h447z" />
    <glyph glyph-name="N" unicode="N" horiz-adv-x="1620" 
d="M1432 1522v-1522h-319l-543 861l-120 243l34 -363v-741h-296v1522h295l567 -895l115 -228l-29 366v757h296z" />
    <glyph glyph-name="O" unicode="O" 
d="M195.5 1194.5c61.667 113 145.999 197.499 252.999 253.499s231.167 86 372.5 90c138 4 258.667 -26 362 -90s182.166 -155.333 236.499 -274s80.166 -255.667 77.499 -411c-3.33301 -173.333 -35.666 -318.166 -96.999 -434.499s-145.666 -202.833 -252.999 -259.5
s-232 -85 -374 -85c-140 0 -261.5 33.167 -364.5 99.5s-181.167 158.833 -234.5 277.5s-78.666 254.667 -75.999 408c3.33301 170.667 35.833 312.5 97.5 425.5zM1128.5 1044c-26.333 78.667 -66.002 140.334 -119.002 185.001s-118.167 67 -195.5 67
c-74 0 -140 -18.333 -198 -55s-104 -95 -138 -175s-51 -182.667 -51 -308c0 -102 13.833 -193.667 41.5 -275s69.334 -145.333 125.001 -192s123.834 -70 204.501 -70c116.667 0 207.5 45.667 272.5 137s97.5 229.666 97.5 414.999c0 102 -13.167 192.333 -39.5 271z" />
    <glyph glyph-name="P" unicode="P" horiz-adv-x="1359" 
d="M284 1522c60.667 0 141.001 2.66699 241.001 8c93.333 5.33301 162.666 8 207.999 8c180.667 0 318.5 -42 413.5 -126s142.5 -217 142.5 -399c0 -116 -23.5 -215.333 -70.5 -298s-116 -145.667 -207 -189s-201.5 -65 -331.5 -65c-69.333 0 -127.333 0.666992 -174 2v-463
h-318v1522h96zM889.501 773c55.667 47.333 83.5 128.668 83.5 244.001c0 96.667 -26 170.167 -78 220.5s-127.333 73.5 -226 69.5c-38.667 -1.33301 -70.167 -2.83301 -94.5 -4.5s-47.166 -4.83398 -68.499 -9.50098v-583c43.333 -5.33301 98.666 -8 165.999 -8
c89.333 0 161.833 23.667 217.5 71z" />
    <glyph glyph-name="Q" unicode="Q" 
d="M1455 -74c42 4.66699 73.6699 10.667 95.0029 18v-219c-16 -11.333 -48.833 -22.666 -98.5 -33.999s-96.834 -17 -141.501 -17c-160 0 -290 23.5 -390 70.5s-168.333 127.5 -205 241.5c-128.667 9.33301 -240 48.166 -334 116.499s-165.333 160 -214 275
s-71.667 245.5 -69 391.5c3.33301 170.667 35.833 312.5 97.5 425.5s146 197.5 253 253.5s231.167 86 372.5 90c136 4 255 -25 357 -87s180.667 -150.5 236 -265.5s83 -248.167 83 -399.5c0 -146.667 -21 -273.667 -63 -381s-101 -193.833 -177 -259.5
s-166 -111.167 -270 -136.5c20 -26 47.167 -45.5 81.5 -58.5s73.166 -21.5 116.499 -25.5s97.666 -6 162.999 -6c29.333 0 65 2.33301 107 7zM468.503 483c27.667 -81.333 69.332 -145.333 124.999 -192s123.834 -70 204.501 -70c116.667 0 207.5 45.667 272.5 137
s97.5 229.666 97.5 414.999c0 102 -13.167 192.333 -39.5 271s-66 140.334 -119 185.001s-118.167 67 -195.5 67c-74 0 -140 -18.333 -198 -55s-104 -95 -138 -175s-51 -182.667 -51 -308c0 -102 13.833 -193.667 41.5 -275z" />
    <glyph glyph-name="R" unicode="R" horiz-adv-x="1435" 
d="M1381 0h-353.998c-6.66699 9.33301 -13.334 20.5 -20.001 33.5s-14 28.5 -22 46.5l-14 30c-11.333 24 -21.833 49.167 -31.5 75.5s-21.834 61.5 -36.501 105.5c-20.667 63.333 -38.834 114.166 -54.501 152.499s-35.167 70.5 -58.5 96.5s-51 39 -83 39
c-68 -2.66699 -135 -4 -201 -4v-575h-318v1522h147c34 0 73 2 117 6c36.667 2.66699 79.334 5 128.001 7s101.667 3 159 3c162 0 293.833 -35.167 395.5 -105.5s152.5 -188.5 152.5 -354.5c0 -119.333 -21.5 -214.666 -64.5 -285.999s-105.833 -123.333 -188.5 -156
c35.333 -30 66.166 -69.333 92.499 -118s57.5 -115 93.5 -199c38.667 -93.333 71.334 -163 98.001 -209zM506.002 804c33.333 -4 103.001 -6 209.001 -6c90 0 156.333 25.667 199 77s64 116 64 194c0 45.333 -7.16699 84.833 -21.5 118.5s-41.833 61 -82.5 82
s-98.334 31.5 -173.001 31.5c-79.333 0 -144.333 -6 -195 -18v-479z" />
    <glyph glyph-name="S" unicode="S" horiz-adv-x="1207" 
d="M197 329c48.667 -26.667 107.333 -49.333 176 -68s140.667 -28 216 -28c82 0 139.667 12.5 173 37.5s50 64.167 50 117.5c0 36 -8.33301 66.5 -25 91.5s-44.834 50.167 -84.501 75.5s-101.5 58.666 -185.5 99.999c-112 55.333 -203 120 -273 194s-105 167 -105 279
c0 96 23.5 174.5 70.5 235.5s110.333 105.333 190 133s169.834 41.5 270.501 41.5c86.667 0 165.5 -9.33301 236.5 -28s123.167 -38.667 156.5 -60l-52 -247c-45.333 28.667 -94.833 52 -148.5 70s-114.834 27 -183.501 27c-80.667 0 -138.834 -13.5 -174.501 -40.5
s-53.5 -65.5 -53.5 -115.5c0 -35.333 8.83301 -65.666 26.5 -90.999s43.834 -49.5 78.501 -72.5s87.334 -53.167 158.001 -90.5c96 -50.667 172.5 -96.167 229.5 -136.5s102.667 -88.5 137 -144.5s51.5 -123 51.5 -201c0 -89.333 -21.667 -165.833 -65 -229.5
s-104.5 -112 -183.5 -145s-170.5 -49.5 -274.5 -49.5c-62 0 -124.5 4.83301 -187.5 14.5s-118.667 21.5 -167 35.5s-82.5 27.333 -102.5 40z" />
    <glyph glyph-name="T" unicode="T" horiz-adv-x="1250" 
d="M30 1278v244h1190v-244h-434v-1278h-320v1278h-436z" />
    <glyph glyph-name="U" unicode="U" horiz-adv-x="1525" 
d="M152 1522h314.999l-2 -852c0 -115.333 11.167 -204.333 33.5 -267s55.166 -105.834 98.499 -129.501s100 -35.5 170 -35.5c67.333 0 122.333 12.833 165 38.5s75.167 70 97.5 133s33.5 149.833 33.5 260.5v852h313v-882c0 -214 -52 -376.833 -156 -488.5
s-258 -167.5 -462 -167.5c-217.333 0 -373.166 57.833 -467.499 173.5s-141.166 280.834 -140.499 495.501z" />
    <glyph glyph-name="V" unicode="V" horiz-adv-x="1386" 
d="M336 1522l284 -831l81 -290l82 290l269 831h339l-560 -1528h-270l-566 1528h341z" />
    <glyph glyph-name="W" unicode="W" horiz-adv-x="1973" 
d="M1968 1522l-398 -1538h-326l-214 850l-49 328l-45 -329l-219 -849h-304l-408 1538h319l188 -894l53 -370l61 370l220 894h284l234 -894l62 -354l51 354l173 894h318z" />
    <glyph glyph-name="X" unicode="X" horiz-adv-x="1376" 
d="M1344 0h-353l-244 425l-74 131l-309 -556h-332l459 786l-448 736l348 1l313 -539l74 136l220 402h336l-454 -770z" />
    <glyph glyph-name="Y" unicode="Y" horiz-adv-x="1241" 
d="M780 533v-533h-319v535l-511 987h350l280 -590l44 -113l38 113l288 590h341z" />
    <glyph glyph-name="Z" unicode="Z" horiz-adv-x="1306" 
d="M740 1210l58 81h-668v231h1067l38 -81l-672 -1106l-73 -93h706v-242h-1102l-40 84z" />
    <glyph glyph-name="bracketleft" unicode="[" horiz-adv-x="799" 
d="M161 1640.5c10.667 35 29.335 59.832 56.002 74.499s66 22 118 22c54 0 99.333 -1.16699 136 -3.5s80.667 -6.16602 132 -11.499l93 -9v-163h-268v-1570l268 -2v-145l-44 -5c-64.667 -6.66699 -117.334 -11.5 -158.001 -14.5s-93.667 -4.5 -159 -4.5
c-52.667 0 -92.334 7.33301 -119.001 22s-45.167 39.5 -55.5 74.5s-15.5 86.5 -15.5 154.5v1426c0 68 5.33301 119.5 16 154.5z" />
    <glyph glyph-name="backslash" unicode="\" horiz-adv-x="864" 
d="M830 -363h-255l-561 1962h255z" />
    <glyph glyph-name="bracketright" unicode="]" horiz-adv-x="799" 
d="M644 60c0 -68 -5.16602 -119.499 -15.499 -154.499s-28.833 -59.833 -55.5 -74.5s-66.334 -22 -119.001 -22c-65.333 0 -118.333 1.5 -159 4.5s-93.334 7.83301 -158.001 14.5l-44 5v145l268 2v1570h-268v163l93 9c51.333 5.33301 95.333 9.16602 132 11.499
s82 3.5 136 3.5c52 0 91.333 -7.33301 118 -22s45.334 -39.5 56.001 -74.5s16 -86.5 16 -154.5v-1426z" />
    <glyph glyph-name="asciicircum" unicode="^" horiz-adv-x="1373" 
d="M939 490l-252 674l-253 -674h-281l420 1041h227l420 -1041h-281z" />
    <glyph glyph-name="underscore" unicode="_" horiz-adv-x="1702" 
d="M1737 -241v-168h-1772v168h1772z" />
    <glyph glyph-name="grave" unicode="`" horiz-adv-x="666" 
d="M330 1339c-57.333 44 -112.332 92.998 -164.999 146.998s-89.334 103.333 -110.001 148l215 174c40.667 -69.333 92.667 -142.666 156 -219.999s125 -143.666 185 -198.999l-149 -137c-30.667 14 -74.667 43 -132 87z" />
    <glyph glyph-name="a" unicode="a" horiz-adv-x="1223" 
d="M872.5 1125.5c66.333 -24.333 115.832 -66.667 148.499 -127s49 -144.833 49 -253.5v-761h-182c-30 0 -52.667 2 -68 6s-27.333 13.333 -36 28s-13 38 -13 70v8c-34.667 -32 -77.334 -58.667 -128.001 -80s-107 -32 -169 -32c-73.333 0 -138.166 15.833 -194.499 47.5
s-100 75.667 -131 132s-46.5 120.166 -46.5 191.499c0 66.667 17.167 123.667 51.5 171s83.5 85.333 147.5 114c99.333 44 251.666 66 456.999 66v72c0 42.667 -5.5 74 -16.5 94s-32 33.667 -63 41s-79.833 11 -146.5 11c-32 0 -80.667 -8.16699 -146 -24.5
s-121.333 -35.166 -168 -56.499l-69 200c26.667 16 65.334 33.333 116.001 52s106.334 34.5 167.001 47.5s119 19.5 175 19.5c110.667 0 199.167 -12.167 265.5 -36.5zM685.999 215.499c36.667 13.667 60.667 27.8311 72 42.498v272c-38 0 -80.833 -4.16699 -128.5 -12.5
s-83.167 -17.833 -106.5 -28.5c-30 -11.333 -54 -26.666 -72 -45.999s-27 -48 -27 -86c0 -53.333 14.5 -93.666 43.5 -120.999s66.833 -41 113.5 -41c33.333 0 68.333 6.83301 105 20.5z" />
    <glyph glyph-name="b" unicode="b" horiz-adv-x="1340" 
d="M1019 1095.5c68.667 -40.333 123.501 -101.332 164.501 -182.999s61.5 -181.834 61.5 -300.501c0 -124.667 -25 -235.167 -75 -331.5s-120.167 -171 -210.5 -224s-193.833 -79.5 -310.5 -79.5c-64 0 -130.833 5.16699 -200.5 15.5s-130.834 22.5 -183.501 36.5
s-85 25.667 -97 35v1597h312v-437l-8 -188c36 34 79.333 62.5 130 85.5s113.667 34.5 189 34.5c83.333 0 159.333 -20.167 228 -60.5zM861.001 849.501c-38 49 -93.335 73.499 -166.002 73.499c-41.333 0 -81.166 -6.66699 -119.499 -20s-70.166 -30.333 -95.499 -51v-620
c24 -26 82.667 -39 176 -39c50.667 0 95.667 15.833 135 47.5s70.333 77.834 93 138.501s34 132.667 34 216c0 120.667 -19 205.5 -57 254.5z" />
    <glyph glyph-name="c" unicode="c" horiz-adv-x="1048" 
d="M847 1138.5c54.667 -11.667 92.3311 -25.168 112.998 -40.501l-39 -241c-28.667 15.333 -60.5 26.5 -95.5 33.5s-78.167 10.5 -129.5 10.5c-48 0 -93.667 -10.167 -137 -30.5s-79.333 -53.333 -108 -99s-44 -104.5 -46 -176.5c-2 -79.333 8.66699 -146 32 -200
s56.5 -94.167 99.5 -120.5s92.167 -39.5 147.5 -39.5c50 0 97.833 4.5 143.5 13.5s80.5 20.167 104.5 33.5l45 -185c-35.333 -34 -84.666 -61.333 -147.999 -82s-130.666 -31 -201.999 -31c-114.667 0 -212 24.5 -292 73.5s-140 116.667 -180 203s-60 184.833 -60 295.5
c0 114.667 21 217.334 63 308.001s105.667 162 191 214s190.333 78 315 78c67.333 0 128.333 -5.83301 183 -17.5z" />
    <glyph glyph-name="d" unicode="d" horiz-adv-x="1339" 
d="M1171 1662l-0.00195312 -1678h-212c-25.333 0 -44.166 3.83301 -56.499 11.5s-18.5 23.167 -18.5 46.5v77c-36.667 -37.333 -81.167 -69.166 -133.5 -95.499s-119.5 -39.5 -201.5 -39.5c-83.333 0 -159.333 20.5 -228 61.5s-123.5 102.833 -164.5 185.5
s-61.5 183.334 -61.5 302.001c0 124.667 24.167 234 72.5 328s116.333 166.667 204 218s188.834 77 303.501 77c68 0 130.333 -10.667 187 -32l-3 100v438h312zM479.498 300.998c38.333 -49.333 93.501 -74.001 165.501 -74.001c40.667 0 80.167 5.66699 118.5 17
s70.166 25.666 95.499 42.999v615c-18.667 12.667 -42.334 21.167 -71.001 25.5s-63.334 6.5 -104.001 6.5c-51.333 0 -96.666 -14.333 -135.999 -43s-70.166 -71.667 -92.499 -129s-33.5 -127.666 -33.5 -210.999c0 -117.333 19.167 -200.666 57.5 -249.999z" />
    <glyph glyph-name="e" unicode="e" horiz-adv-x="1190" 
d="M1082 495l-674 0.00195312c6 -94 35.5 -164 88.5 -210s124.833 -69 215.5 -69c43.333 0 95.833 5.83301 157.5 17.5s106.834 25.5 135.501 41.5l51 -177c-39.333 -32 -98.333 -59 -177 -81s-160.667 -33 -246 -33c-114.667 0 -212.334 23.333 -293.001 70
s-141.667 114.167 -183 202.5s-62 194.166 -62 317.499c0 112 21.667 212 65 300s106.5 157 189.5 207s181.833 75 296.5 75c82.667 0 157.334 -15 224.001 -45s120.167 -78.333 160.5 -145s61.166 -152.334 62.499 -257.001c0 -96 -3.66699 -167.333 -11 -214zM804 712.002
c0 72.667 -13.6689 127.833 -41.002 165.5s-71.666 56.5 -132.999 56.5s-110.166 -20.167 -146.499 -60.5s-59.833 -108.833 -70.5 -205.5h390c0.666992 10 1 24.667 1 44z" />
    <glyph glyph-name="f" unicode="f" horiz-adv-x="858" 
d="M82 924l0.00195312 181.997l155 34v109c0 104.667 20.667 189.334 62 254.001s94.166 110.834 158.499 138.501s132.833 41.5 205.5 41.5c39.333 0 79.166 -2.5 119.499 -7.5s67.833 -9.83301 82.5 -14.5v-222c-33.333 16 -85.333 24 -156 24
c-48.667 0 -87.5 -17.667 -116.5 -53s-43.5 -86.666 -43.5 -153.999v-116h266v-216h-266v-924h-312v924h-155z" />
    <glyph glyph-name="g" unicode="g" horiz-adv-x="1305" 
d="M1288 914l-188.999 -0.00292969c13.333 -38.667 20 -82 20 -130c0 -122 -44.167 -215 -132.5 -279s-213.166 -96 -374.499 -96c-37.333 0 -70.333 2.33301 -99 7c-14 -11.333 -24.667 -25.166 -32 -41.499s-11 -33.5 -11 -51.5c0 -32 10 -53.333 30 -64s55 -16 105 -16
h190c168 0 283.167 -32.5 345.5 -97.5s93.5 -147.5 93.5 -247.5c0 -85.333 -27.167 -159.333 -81.5 -222s-126.5 -110.334 -216.5 -143.001s-187 -49 -291 -49c-176.667 0 -313.167 28.5 -409.5 85.5s-144.5 139.5 -144.5 247.5c0 52.667 16.167 99.5 48.5 140.5
s74.833 73.167 127.5 96.5c-32 16.667 -55.5 40.334 -70.5 71.001s-22.5 63.667 -22.5 99c0 45.333 14 89 42 131s74.667 76.333 140 103c-72.667 31.333 -129.834 74.833 -171.501 130.5s-62.5 117.834 -62.5 186.501c0 130.667 44.667 226.834 134 288.501
s214.666 92.5 375.999 92.5c147.333 0 262.333 -27.667 345 -83c22 19.333 48.333 35.333 79 48s65.667 19 105 19h127v-226zM769.501 637.997c36.333 25.333 54.501 71 54.501 137c0 62 -16.167 108.833 -48.5 140.5s-80.5 47.5 -144.5 47.5
c-64.667 0 -115.5 -13.833 -152.5 -41.5s-55.5 -75.167 -55.5 -142.5c0 -56 16.667 -99.833 50 -131.5s81.333 -47.5 144 -47.5c65.333 0 116.166 12.667 152.499 38zM505.002 -0.00292969c-14.667 0 -35.334 0.666992 -62.001 2c-28 -25.333 -42 -64 -42 -116
c0 -62.667 19.5 -114.667 58.5 -156s100.833 -62 185.5 -62c88 0 156.833 13.5 206.5 40.5s74.5 69.5 74.5 127.5c0 39.333 -6 70.5 -18 93.5s-36.667 40.5 -74 52.5s-92.666 18 -165.999 18h-163z" />
    <glyph glyph-name="h" unicode="h" horiz-adv-x="1351" 
d="M1022.5 1119c55.667 -29.333 97.333 -77.334 125 -144.001s41.5 -155 41.5 -265v-710h-312v648c0 61.333 -5.16699 109.833 -15.5 145.5s-27 61.5 -50 77.5s-54.833 24 -95.5 24c-34 0 -73.5 -7 -118.5 -21s-84.167 -35.667 -117.5 -65v-809h-312v1662h312v-438l-17 -202
c42.667 35.333 96.5 66.5 161.5 93.5s127.167 41.5 186.5 43.5c85.333 2.66699 155.833 -10.666 211.5 -39.999z" />
    <glyph glyph-name="i" unicode="i" horiz-adv-x="660" 
d="M486 1140v-1140h-312v1140h312zM164 1570c18.667 28.667 43.3311 51.5 73.998 68.5s63 25.5 97 25.5c54.667 0 98.334 -15.833 131.001 -47.5s49 -72.5 49 -122.5c0 -33.333 -9.16699 -64.5 -27.5 -93.5s-42.666 -52 -72.999 -69s-62.833 -25.5 -97.5 -25.5
c-34 0 -64.667 7.33301 -92 22s-49 35 -65 61s-24 55.333 -24 88c0 33.333 9.33301 64.333 28 93z" />
    <glyph glyph-name="j" unicode="j" horiz-adv-x="644" 
d="M-51 -296.5c26 -5 47.333 -7.50098 64 -7.50098c40.667 0 72.5 9.5 95.5 28.5s39.667 50.5 50 94.5s15.5 104.667 15.5 182v1139h312v-1058c0 -205.333 -35.5 -354.833 -106.5 -448.5s-173.833 -140.5 -308.5 -140.5c-20.667 0 -52 2.83301 -94 8.5
s-69 10.834 -81 15.501v201c9.33301 -4.66699 27 -9.5 53 -14.5zM163 1571c18.667 28.667 43.3311 51.5 73.998 68.5s63 25.5 97 25.5c54.667 0 98.334 -15.833 131.001 -47.5s49 -72.5 49 -122.5c0 -33.333 -9.16699 -64.5 -27.5 -93.5s-42.666 -52 -72.999 -69
s-62.833 -25.5 -97.5 -25.5c-34 0 -64.667 7.33301 -92 22s-49 35 -65 61s-24 55.333 -24 88c0 33.333 9.33301 64.333 28 93z" />
    <glyph glyph-name="k" unicode="k" horiz-adv-x="1238" 
d="M598 475l-122 -133l4 -129v-213h-312v1661h312v-684l-10 -287l385 450h353l-407 -443l447 -697h-355z" />
    <glyph glyph-name="l" unicode="l" horiz-adv-x="672" 
d="M492 1662v-1662h-312v1662h312z" />
    <glyph glyph-name="m" unicode="m" horiz-adv-x="2047" 
d="M1720.5 1117c53.667 -28.667 94.498 -75.501 122.498 -140.501s42 -151.5 42 -259.5v-717h-312v649c0 63.333 -4.33301 112.5 -13 147.5s-24.167 60.333 -46.5 76s-54.833 23.5 -97.5 23.5c-38.667 0 -79.5 -8 -122.5 -24s-79.5 -36 -109.5 -60
c2.66699 -29.333 4 -64.333 4 -105v-707h-312v648c0 62.667 -4.5 111.667 -13.5 147s-24.667 61 -47 77s-54.166 24 -95.499 24c-32.667 0 -71.667 -7.33301 -117 -22s-84.333 -36.334 -117 -65.001v-809h-312v1140h283l6 -122c46 34.667 103.333 66.5 172 95.5
s135 44.5 199 46.5c70.667 2.66699 130.334 -7.16602 179.001 -29.499s87 -58.5 115 -108.5c44.667 34.667 102.667 66.334 174 95.001s144 43 218 43c80 0 146.833 -14.333 200.5 -43z" />
    <glyph glyph-name="n" unicode="n" horiz-adv-x="1352" 
d="M457 1140l6 -122.001c46 34.667 103.333 66.334 172 95.001s135 44 199 46c82 2.66699 149 -10.166 201 -38.499s90.833 -75.333 116.5 -141s38.5 -153.834 38.5 -264.501v-715h-312v648c0 64.667 -5 114.834 -15 150.501s-27 61.167 -51 76.5s-58 22.333 -102 21
c-33.333 -0.666992 -71 -8.33398 -113 -23.001s-79 -36 -111 -64v-809h-312v1140h283z" />
    <glyph glyph-name="o" unicode="o" horiz-adv-x="1302" 
d="M168 893.5c48 86.333 114.667 151.669 200 196.002s183.333 66.5 294 66.5c126 0 229.667 -26.5 311 -79.5s140.5 -124 177.5 -213s55.5 -189.5 55.5 -301.5c0 -122.667 -24 -227.334 -72 -314.001s-114.667 -152.334 -200 -197.001s-183 -67 -293 -67
c-126.667 0 -230.667 26.667 -312 80s-140.5 124.833 -177.5 214.5s-55.5 190.5 -55.5 302.5c0 122 24 226.167 72 312.5zM826 827.503c-38 71 -95.667 106.501 -173 106.501c-156 0 -234 -116 -234 -348c0 -70 8.16699 -133.833 24.5 -191.5s42 -103.834 77 -138.501
s78.833 -52 131.5 -52c154 0 231 119 231 357c0 106.667 -19 195.5 -57 266.5z" />
    <glyph glyph-name="p" unicode="p" horiz-adv-x="1340" 
d="M1019 1095.5c68.667 -40.333 123.501 -101.333 164.501 -183s61.5 -181.834 61.5 -300.501c0 -124.667 -24.167 -234.5 -72.5 -329.5s-116.333 -168.5 -204 -220.5s-188.834 -78 -303.501 -78c-68 0 -131 10.667 -189 32l4 -155v-367h-312v1646h291v-116
c36.667 36.667 81 67.834 133 93.501s118.333 38.5 199 38.5c83.333 0 159.333 -20.167 228 -60.5zM861.001 849.5c-38 49 -93.3359 73.501 -166.003 73.501c-41.333 0 -81.166 -6.66699 -119.499 -20s-70.166 -30.333 -95.499 -51v-603
c19.333 -17.333 43.833 -29.333 73.5 -36s63.834 -10 102.501 -10c50.667 0 95.667 15.333 135 46s70.333 75.667 93 135s34 129.666 34 210.999c0 120.667 -19 205.5 -57 254.5z" />
    <glyph glyph-name="q" unicode="q" horiz-adv-x="1340" 
d="M1172 1140l-0.000976562 -1646h-312v367l6 241c-83.333 -78.667 -189 -118 -317 -118c-83.333 0 -159.333 20.5 -228 61.5s-123.5 102.833 -164.5 185.5s-61.5 183.334 -61.5 302.001c0 124.667 24.167 234 72.5 328s116.333 166.667 204 218s188.834 77 303.501 77
c49.333 0 99 -5 149 -15s91 -21.667 123 -35zM479.499 300.999c38.333 -49.333 93.501 -74.001 165.501 -74.001c41.333 0 81.166 5.83301 119.499 17.5s70.166 26.167 95.499 43.5v613c-18.667 13.333 -42.334 22.166 -71.001 26.499s-63.667 6.5 -105 6.5
c-51.333 0 -96.666 -14.333 -135.999 -43s-70.166 -71.667 -92.499 -129s-33.5 -127.666 -33.5 -210.999c0 -117.333 19.167 -200.666 57.5 -249.999z" />
    <glyph glyph-name="r" unicode="r" horiz-adv-x="926" 
d="M861 1145l0.000976562 -301c-15.333 8.66699 -32.833 15.5 -52.5 20.5s-47.834 7.5 -84.501 7.5c-96 0 -180.667 -34.333 -254 -103v-769h-312v1140h277l14 -156c16.667 29.333 41.5 57.333 74.5 84s71.333 48.5 115 65.5s88.167 25.5 133.5 25.5
c43.333 0 73 -4.66699 89 -14z" />
    <glyph glyph-name="s" unicode="s" horiz-adv-x="1048" 
d="M218 267.5c34.667 -14.333 74.8291 -26.835 120.496 -37.502s90.834 -16 135.501 -16c62 -0.666992 107.333 6.33301 136 21s43 39.334 43 74.001c0 32 -19.833 61 -59.5 87s-102.167 53 -187.5 81c-101.333 33.333 -174.5 78.666 -219.5 135.999s-67.5 128 -67.5 212
c0 70.667 19.5 130.834 58.5 180.501s93.167 87.167 162.5 112.5s149 38 239 38c72.667 0 137.667 -7 195 -21s99.333 -28.667 126 -44l-34 -240c-22.667 20.667 -59.167 38.667 -109.5 54s-99.166 23 -146.499 23c-68 0 -117.167 -7.16699 -147.5 -21.5
s-45.5 -37.833 -45.5 -70.5c0 -23.333 7 -43.166 21 -59.499s36.5 -32 67.5 -47s75.833 -32.5 134.5 -52.5c78 -26.667 140.167 -55.834 186.5 -87.501s80.166 -68 101.499 -109s32 -89.833 32 -146.5c0 -115.333 -39.5 -202.5 -118.5 -261.5s-188.5 -88.5 -328.5 -88.5
c-52.667 0 -105.667 4.33301 -159 13s-101.166 19.834 -143.499 33.501s-74.166 27.5 -95.499 41.5l32 232c12.667 -10 36.334 -22.167 71.001 -36.5z" />
    <glyph glyph-name="t" unicode="t" horiz-adv-x="913" 
d="M211 924h-136.999v169c44 12.667 75.833 22.5 95.5 29.5s37.167 16.667 52.5 29s27.333 28.833 36 49.5c14 33.333 39 99.666 75 198.999h190v-260h309v-216h-309v-458c0 -76 4 -131.333 12 -166s20.667 -56.834 38 -66.501s44 -14.5 80 -14.5
c28 0 60.167 4.83301 96.5 14.5s63.166 20.834 80.499 33.501l38 -175c-31.333 -28 -78.166 -53 -140.499 -75s-129.5 -33 -201.5 -33c-76.667 0 -137.834 11.833 -183.501 35.5s-79 61.334 -100 113.001s-31.5 120.5 -31.5 206.5v585z" />
    <glyph glyph-name="u" unicode="u" horiz-adv-x="1326" 
d="M1152 1140l0.00292969 -1156h-206c-26.667 0 -46 3.83301 -58 11.5s-18 23.167 -18 46.5v52c-43.333 -30.667 -96.166 -56.667 -158.499 -78s-120.5 -32 -174.5 -32c-104 0 -183.333 19.667 -238 59s-91.167 93.666 -109.5 162.999s-27.5 158.666 -27.5 267.999v666h312
v-663c0 -71.333 6.16699 -125.166 18.5 -161.499s30.666 -60.833 54.999 -73.5s58.166 -19 101.499 -19c33.333 0 68.666 7 105.999 21s65.666 28.667 84.999 44v852h312z" />
    <glyph glyph-name="v" unicode="v" horiz-adv-x="1191" 
d="M1174 1140l-435 -1156h-289l-433 1156h337l174 -560l73 -278l69 278l174 560h330z" />
    <glyph glyph-name="w" unicode="w" horiz-adv-x="1757" 
d="M1739 1140l-356 -1156h-278l-182 607l-44 218l-45 -218l-179 -607h-289l-348 1156h312l142 -551l52 -276l57 275l165 552h291l165 -551l52 -274l51 271l132 554h302z" />
    <glyph glyph-name="x" unicode="x" horiz-adv-x="1220" 
d="M1199 0h-357l-206 321l-33 52l-26 -54l-184 -319h-357l401 577l-401 563h353l196 -297l36 -60l30 61l188 296h352l-404 -557z" />
    <glyph glyph-name="y" unicode="y" horiz-adv-x="1188" 
d="M1162 1140l-355 -1170c-40 -130.667 -93.333 -233.334 -160 -308.001s-141 -124 -223 -148c-17.333 -5.33301 -42.833 -10.166 -76.5 -14.499s-58.834 -6.5 -75.501 -6.5c-17.333 0 -45.666 2.16699 -84.999 6.5s-61.666 8.5 -66.999 12.5v253
c12 -4 31.167 -8.33301 57.5 -13s44.833 -7 55.5 -7c47.333 0 88.166 4.33301 122.499 13s68.333 31.5 102 68.5s60.5 94.833 80.5 173.5h-134l-387 1140h338l173 -609l83 -329l77 329l139 609h335z" />
    <glyph glyph-name="z" unicode="z" horiz-adv-x="1108" 
d="M572 840l58 83h-488l2 217h866l35 -95l-484 -745l-61 -84h529v-216h-911l-42 83z" />
    <glyph glyph-name="braceleft" unicode="{" horiz-adv-x="952" 
d="M474.5 829c-35 -17.333 -76.834 -35.001 -125.501 -53.001c102.667 -36 171.334 -73.333 206.001 -112c26 -29.333 39 -63.333 39 -102v-582h262v-156c-41.333 -11.333 -89.5 -20 -144.5 -26s-110.833 -9 -167.5 -9c-52 0 -94 9 -126 27s-55.667 46.667 -71 86
s-23 92 -23 158v487c0 22.667 -13.667 43.667 -41 63s-61 35.333 -101 48s-78 20.667 -114 24v191c38 4 76.667 11.333 116 22s72.5 25 99.5 43s40.5 38.667 40.5 62v486c0 66 7.66699 118.667 23 158s39 68 71 86s74 27 126 27c82.667 0 186.667 -8 312 -24v-171h-262v-571
c0 -40 -13 -74.667 -39 -104c-18.667 -21.333 -45.5 -40.666 -80.5 -57.999z" />
    <glyph glyph-name="bar" unicode="|" horiz-adv-x="865" 
d="M560 1780v-1967h-255v1967h255z" />
    <glyph glyph-name="braceright" unicode="}" horiz-adv-x="952" 
d="M658.5 938c27 -18 60.166 -32.332 99.499 -42.999s78 -18 116 -22v-191c-36 -3.33301 -74 -11.333 -114 -24s-73.667 -28.667 -101 -48s-41 -40.333 -41 -63v-487c0 -66 -7.66699 -118.667 -23 -158s-39 -68 -71 -86s-74 -27 -126 -27c-56.667 0 -112.5 3 -167.5 9
s-103.167 14.667 -144.5 26v156h262v582c0 38.667 13 72.667 39 102c34.667 38.667 103.334 76 206.001 112c-48.667 18 -90.5 35.667 -125.5 53s-61.833 36.666 -80.5 57.999c-26 29.333 -39 64 -39 104v571h-262v171c125.333 16 229.333 24 312 24c52 0 94 -9 126 -27
s55.667 -46.667 71 -86s23 -92 23 -158v-486c0 -23.333 13.5 -44 40.5 -62z" />
    <glyph glyph-name="asciitilde" unicode="~" horiz-adv-x="1448" 
d="M269 925c32 34.667 71.332 64.165 117.999 88.498s95.334 36.5 146.001 36.5c35.333 0 66.666 -4.16699 93.999 -12.5s50.833 -18.5 70.5 -30.5s41.834 -27.333 66.501 -46c31.333 -23.333 58 -40.5 80 -51.5s48 -16.5 78 -16.5c42.667 0 79.834 9.83301 111.501 29.5
s61.5 44.834 89.5 75.501l116 -138c-10 -32 -30.833 -64.5 -62.5 -97.5s-71 -60.167 -118 -81.5s-97.167 -32 -150.5 -32c-34 0 -64 4 -90 12s-47.833 18 -65.5 30s-37.5 27.333 -59.5 46c-30 24 -55.833 41.833 -77.5 53.5s-48.834 17.5 -81.501 17.5
c-42 0 -77.667 -9.5 -107 -28.5s-59 -44.833 -89 -77.5l-130 128c8.66699 28.667 29 60.334 61 95.001z" />
    <glyph glyph-name="uni00A0" unicode="&#xa0;" horiz-adv-x="669" 
 />
    <glyph glyph-name="exclamdown" unicode="&#xa1;" horiz-adv-x="641" 
d="M477 1066c-18.667 -32 -43.499 -57.498 -74.499 -76.498s-64.5 -28.5 -100.5 -28.5c-38 0 -71.167 8.5 -99.5 25.5s-49.833 40.167 -64.5 69.5s-22 62.333 -22 99c0 37.333 9 72.166 27 104.499s42.667 58.166 74 77.499s65.333 29 102 29
c35.333 0 67.166 -8.66699 95.499 -26s50.5 -41 66.5 -71s24 -63.333 24 -100s-9.33301 -71 -28 -103zM133.001 -435.998l34 1225h267l46 -1225h-347z" />
    <glyph glyph-name="cent" unicode="&#xa2;" horiz-adv-x="1187" 
d="M905 24.5c-50.667 -19.667 -105.998 -32.166 -165.998 -37.499l-3 -203h-172l4 208c-92 14.667 -169.833 48 -233.5 100s-111.334 117.667 -143.001 197s-47.5 168.333 -47.5 267c0 102 16.667 194.667 50 278s84 152.5 152 207.5s151.667 90.167 251 105.5l6 230h171
l-5 -223c55.333 -2.66699 104.666 -9.5 147.999 -20.5s74 -22.833 92 -35.5l-39 -241c-28.667 15.333 -60.5 26.5 -95.5 33.5s-78.167 10.5 -129.5 10.5c-48 0 -93.667 -10.167 -137 -30.5s-79.333 -53.333 -108 -99s-44 -104.5 -46 -176.5c-2 -79.333 8.66699 -146 32 -200
s56.5 -94.167 99.5 -120.5s92.167 -39.5 147.5 -39.5c50 0 97.833 4.5 143.5 13.5s80.5 20.167 104.5 33.5l45 -185c-30 -28.667 -70.333 -52.834 -121 -72.501z" />
    <glyph glyph-name="sterling" unicode="&#xa3;" horiz-adv-x="1576" 
d="M1411 516c28 -38 42.002 -94.001 42.002 -168.001c0 -114.667 -38.833 -204.334 -116.5 -269.001s-191.834 -97 -342.501 -97c-76.667 0 -142.5 6.33301 -197.5 19s-114.167 30 -177.5 52c-37.333 13.333 -67.166 23 -89.499 29s-44.5 8.66699 -66.5 8
c-22.667 -25.333 -53.5 -48 -92.5 -68s-77.167 -30 -114.5 -30c-22.667 0 -44.834 4.33301 -66.501 13s-39.667 22.334 -54 41.001s-21.5 42 -21.5 70c0 35.333 11.833 66.333 35.5 93s55.667 47.5 96 62.5s85.5 23.167 135.5 24.5c12.667 17.333 21.667 50.5 27 99.5
s8 95.5 8 139.5v182h-176v181h176v127c0 100.667 19.333 189.667 58 267s96.834 137.666 174.501 180.999s172.834 65 285.501 65c76.667 0 146.167 -9.16699 208.5 -27.5s115.166 -41.5 158.499 -69.5l-126 -229c-70.667 54.667 -141.334 82 -212.001 82
c-44.667 0 -82.834 -6.66699 -114.501 -20s-58.334 -44.166 -80.001 -92.499s-32.5 -121.166 -32.5 -218.499v-65h310v-181h-310v-163c0 -80.667 -9.33301 -144.334 -28 -191.001s-46 -86 -82 -118c22.667 -4.66699 51 -11.334 85 -20.001
c43.333 -11.333 81 -19.666 113 -24.999s70 -8 114 -8c77.333 0 134.333 13.833 171 41.5s55 65.834 55 114.501c0 33.333 -6.16699 63.333 -18.5 90s-27.166 46 -44.499 58l211 110c38 -22 71 -52 99 -90z" />
    <glyph glyph-name="currency" unicode="&#xa4;" horiz-adv-x="1544" 
d="M1193.5 636.5c-13.667 -43.667 -32.834 -84.167 -57.501 -121.5l195 -199l-140 -145l-203 206c-69.333 -40 -144 -60 -224 -60s-153.667 19.667 -221 59l-202 -206l-141 144l195 199c-25.333 37.333 -44.833 78 -58.5 122s-20.5 90 -20.5 138c0 93.333 25.667 179 77 257
l-192 197l139 147l200 -206c68.667 40.667 143.334 61 224.001 61c82 0 157.333 -20.333 226 -61l213 213l141 -147l-206 -207c50.667 -77.333 76 -162 76 -254c0 -47.333 -6.83301 -92.833 -20.5 -136.5zM879 569.5c34.667 21.667 62.167 50.667 82.5 87
s30.5 75.166 30.5 116.499s-10.167 80.166 -30.5 116.499s-47.833 65.333 -82.5 87s-72.334 32.5 -113.001 32.5s-78.5 -10.833 -113.5 -32.5s-62.833 -50.667 -83.5 -87s-31 -75.166 -31 -116.499s10.333 -80.166 31 -116.499s48.5 -65.333 83.5 -87
s72.833 -32.5 113.5 -32.5s78.334 10.833 113.001 32.5z" />
    <glyph glyph-name="yen" unicode="&#xa5;" horiz-adv-x="1576" 
d="M1015 851h266v-192h-347v-198h347v-192h-347v-269h-290v269h-358v192h358v198h-358v192h291l-419 671h323l240 -420l69 -141l67 143l255 418h325z" />
    <glyph glyph-name="brokenbar" unicode="&#xa6;" horiz-adv-x="865" 
d="M560 1780v-816h-255v816h255zM560 620v-806h-255v806h255z" />
    <glyph glyph-name="section" unicode="&#xa7;" horiz-adv-x="1402" 
d="M1083 399c59.333 -64 89.002 -143.673 89.002 -239.006c0 -80 -24.5 -146.5 -73.5 -199.5s-111 -91.833 -186 -116.5s-152.167 -37 -231.5 -37c-86.667 0 -167.334 9.5 -242.001 28.5s-129.334 40.5 -164.001 64.5l42 225c32 -24 77.833 -45.833 137.5 -65.5
s127.834 -29.5 204.501 -29.5c66 0 118.167 10.5 156.5 31.5s57.5 55.5 57.5 103.5c0 24.667 -10.167 46.834 -30.5 66.501s-46.166 37 -77.499 52s-75 33.833 -131 56.5c-89.333 35.333 -162.666 68.833 -219.999 100.5s-106.833 74.334 -148.5 128.001
s-62.5 119.834 -62.5 198.501c0 54.667 14.667 107.334 44 158.001s69.666 97 120.999 139c-76 69.333 -114 155.333 -114 258c0 80.667 23.833 147.334 71.5 200.001s107.5 91 179.5 115s146 36 222 36c85.333 0 159.166 -7.16699 221.499 -21.5s110.5 -31.5 144.5 -51.5
l-42 -225c-28 20 -66.5 37.5 -115.5 52.5s-110.5 22.5 -184.5 22.5c-60.667 0 -108.834 -10.167 -144.501 -30.5s-53.5 -52.833 -53.5 -97.5c0 -27.333 10.5 -52.166 31.5 -74.499s47.333 -42.333 79 -60s76.5 -40.167 134.5 -67.5c86 -40 156.5 -77 211.5 -111
s102.333 -78.333 142 -133s59.5 -120.667 59.5 -198c0 -99.333 -42.667 -192.333 -128 -279zM509.002 714.494c25.333 -28.333 56.832 -51.668 94.499 -70.001s90.167 -40.166 157.5 -65.499c70.667 -26.667 124 -48.667 160 -66c18.667 45.333 28 83.333 28 114
c0 44 -13.167 82 -39.5 114s-59.166 59.167 -98.499 81.5s-93.333 48.833 -162 79.5c-66 30 -108.667 50 -128 60c-33.333 -56.667 -50 -104.667 -50 -144c0 -40.667 12.667 -75.167 38 -103.5z" />
    <glyph glyph-name="dieresis" unicode="&#xa8;" horiz-adv-x="974" 
d="M95 1569.5c16.667 28.333 39.168 51 67.501 68s59.166 25.5 92.499 25.5c53.333 0 94 -15.5 122 -46.5s42 -71.5 42 -121.5c0 -33.333 -8 -64.166 -24 -92.499s-38 -50.833 -66 -67.5s-59 -25 -93 -25c-50 0 -90.167 15.667 -120.5 47s-45.5 71.666 -45.5 120.999
c0 32.667 8.33301 63.167 25 91.5zM580.001 1569.5c16.667 28.333 39.168 51 67.501 68s59.166 25.5 92.499 25.5c53.333 0 94 -15.5 122 -46.5s42 -71.5 42 -121.5c0 -33.333 -8 -64.166 -24 -92.499s-38 -50.833 -66 -67.5s-59 -25 -93 -25
c-50 0 -90.167 15.667 -120.5 47s-45.5 71.666 -45.5 120.999c0 32.667 8.33301 63.167 25 91.5z" />
    <glyph glyph-name="copyright" unicode="&#xa9;" horiz-adv-x="2093" 
d="M1485 1722.5c133.333 -78.333 238.668 -184.666 316.001 -318.999s116 -281.166 116 -440.499c0 -160 -38.833 -307.333 -116.5 -442s-183 -241.5 -316 -320.5s-279.167 -118.5 -438.5 -118.5s-305.5 39.5 -438.5 118.5s-238.167 185.833 -315.5 320.5s-116 282 -116 442
c0 159.333 38.667 306.166 116 440.499s182.5 240.666 315.5 318.999s279.167 117.5 438.5 117.5s305.666 -39.167 438.999 -117.5zM1417.5 312c111 67.333 198.167 158.5 261.5 273.5s95 240.833 95 377.5s-31.667 262.334 -95 377.001s-150.5 205.667 -261.5 273
s-234.833 101 -371.5 101s-260.5 -33.667 -371.5 -101s-198.167 -158.333 -261.5 -273s-95 -240.334 -95 -377.001s31.667 -262.5 95 -377.5s150.5 -206.167 261.5 -273.5s234.833 -101 371.5 -101s260.5 33.667 371.5 101zM1247 1435
c45.333 -9.33301 79.332 -20.334 101.999 -33.001l-45 -206c-22 16 -53 29.667 -93 41s-79.667 17 -119 17c-49.333 0 -93.166 -10.5 -131.499 -31.5s-68.333 -51.333 -90 -91s-32.5 -86.5 -32.5 -140.5c0 -109.333 23.667 -189.5 71 -240.5s112.333 -76.5 195 -76.5
c78.667 0 153.667 21.333 225 64l48 -159c-34.667 -28.667 -82.167 -53.167 -142.5 -73.5s-122.166 -30.5 -185.499 -30.5c-88.667 0 -166.667 21.5 -234 64.5s-119.333 101.167 -156 174.5s-55 153.666 -55 240.999c0 94.667 19.333 179.334 58 254.001
s95.167 133.334 169.5 176.001s163.5 64 267.5 64c53.333 0 102.666 -4.66699 147.999 -14z" />
    <glyph glyph-name="ordfeminine" unicode="&#xaa;" horiz-adv-x="1067" 
d="M761.5 1586.5c56.333 -19.667 99.002 -52.167 128.002 -97.5s43.5 -106 43.5 -182v-630h-130c-34.667 0 -58.667 0.833008 -72 2.5s-24.333 7.66699 -33 18s-13 28.5 -13 54.5v13c-14 -14.667 -35.333 -29.5 -64 -44.5s-61.334 -27.667 -98.001 -38
s-73.334 -15.5 -110.001 -15.5c-60 0 -112.167 11.333 -156.5 34s-78.166 54.5 -101.499 95.5s-35 88.833 -35 143.5c0 66.667 17.333 122.667 52 168s81.334 79.666 140.001 102.999c99.333 36.667 219.666 55 360.999 55v35c0 35.333 -5.83301 62 -17.5 80
s-29.834 30.167 -54.501 36.5s-59 9.5 -103 9.5c-29.333 0 -64.166 -4.16699 -104.499 -12.5s-78.333 -18.5 -114 -30.5s-61.167 -23.333 -76.5 -34l-56 155c13.333 12.667 42.5 27.834 87.5 45.501s95.833 33 152.5 46s109.667 19.5 159 19.5
c87.333 0 159.166 -9.83301 215.499 -29.5zM410.002 884c23.333 -17.333 52.332 -26 86.999 -26c36.667 0 72 5.66699 106 17s57.333 22 70 32v213c-52.667 0 -96.167 -2 -130.5 -6s-65.166 -13.333 -92.499 -28c-28 -16 -47.5 -34.167 -58.5 -54.5
s-16.5 -44.833 -16.5 -73.5c0 -32 11.667 -56.667 35 -74z" />
    <glyph glyph-name="guillemotleft" unicode="&#xab;" horiz-adv-x="1998" 
d="M535 615l431 -325l-75 -214l-656 416v243l656 422l75 -216zM1318 615l431 -325l-75 -214l-656 416v243l656 422l75 -216z" />
    <glyph glyph-name="logicalnot" unicode="&#xac;" horiz-adv-x="1480" 
d="M1235 852v-529h-244v316h-746v213h990z" />
    <glyph glyph-name="registered" unicode="&#xae;" horiz-adv-x="2093" 
d="M1486 1722c134 -78.667 240 -185.167 318 -319.5s117 -281.166 117 -440.499c0 -160 -39 -307.333 -117 -442s-184 -241.5 -318 -320.5s-280.667 -118.5 -440 -118.5s-305.833 39.5 -439.5 118.5s-239.5 185.833 -317.5 320.5s-117 282 -117 442
c0 159.333 39 306.166 117 440.499s183.833 240.833 317.5 319.5s280.167 118 439.5 118s306 -39.333 440 -118zM1417.5 312c111.667 67.333 199.667 158.333 264 273s96.5 240.334 96.5 377.001c0 136 -32.167 261.333 -96.5 376s-152.333 205.667 -264 273
s-235.5 101 -371.5 101s-259.833 -33.667 -371.5 -101s-199.667 -158.333 -264 -273s-96.5 -240 -96.5 -376c0 -136.667 32.167 -262.334 96.5 -377.001s152.333 -205.667 264 -273s235.5 -101 371.5 -101s259.833 33.667 371.5 101zM798 1444
c20 0 54.0029 0.667969 102.003 2.00098c82 2 135 3 159 3c78 0 143.5 -11.667 196.5 -35s92.667 -55.666 119 -96.999s39.5 -89 39.5 -143c0 -172 -63.333 -277.667 -190 -317c32.667 -16.667 59.834 -40.834 81.501 -72.501s45.5 -74.167 71.5 -127.5
c21.333 -42.667 34.333 -68 39 -76c3.33301 -5.33301 10.166 -17 20.499 -35s25.5 -39.333 45.5 -64h-246c-7.33301 7.33301 -14.166 16.5 -20.499 27.5s-12.5 22.5 -18.5 34.5l-12 24c-4.66699 9.33301 -14.334 31.333 -29.001 66c-14 36 -26.833 65.667 -38.5 89
s-26.334 45.166 -44.001 65.499s-38.834 34.833 -63.501 43.5c-8.66699 -0.666992 -38.334 -1 -89.001 -1v-350h-212v963h89zM1155.5 1022c26.333 28 39.502 69 39.502 123c0 48 -12.833 84 -38.5 108s-68.834 36 -129.501 36h-30c-15.333 0 -28.833 -0.833008 -40.5 -2.5
s-23.5 -4.5 -35.5 -8.5v-291c22.667 -4.66699 62 -7 118 -7c51.333 0 90.166 14 116.499 42z" />
    <glyph glyph-name="macron" unicode="&#xaf;" horiz-adv-x="701" 
d="M646 1626v-206h-591v206h591z" />
    <glyph glyph-name="degree" unicode="&#xb0;" horiz-adv-x="957" 
d="M659.5 1587c55 -31.333 98.5 -74.334 130.5 -129.001s48 -114.667 48 -180c0 -68 -15.5 -129.167 -46.5 -183.5s-74 -96.833 -129 -127.5s-116.5 -46 -184.5 -46c-66 0 -126.5 15.833 -181.5 47.5s-98.5 74.834 -130.5 129.501s-48 114.667 -48 180
c0 67.333 15.667 128 47 182s74.333 96.5 129 127.5s116 46.5 184 46.5c66 0 126.5 -15.667 181.5 -47zM566 1120.5c26.667 15.667 47.502 37.332 62.502 64.999s22.5 58.5 22.5 92.5c0 33.333 -7.66699 63.833 -23 91.5s-36.333 49.334 -63 65.001s-55.667 23.5 -87 23.5
c-32 0 -61.167 -7.83301 -87.5 -23.5s-47 -37.167 -62 -64.5s-22.5 -58 -22.5 -92c0 -33.333 7.66699 -63.833 23 -91.5s36.166 -49.5 62.499 -65.5s55.166 -24 86.499 -24c32 0 61.333 7.83301 88 23.5z" />
    <glyph glyph-name="plusminus" unicode="&#xb1;" horiz-adv-x="1403" 
d="M584 662l-162 -6h-209v237h209l162 -7l-6 187v217h246v-217l-7 -187l151 7h222v-237h-222l-151 6l7 -188v-214h-246v214zM1152 198v-198h-909v198h909z" />
    <glyph glyph-name="uni00B2" unicode="&#xb2;" horiz-adv-x="1234" 
d="M1046 921l0.000976562 -240.999h-817l-43 154c59.333 30.667 129.666 76.834 210.999 138.501s152.166 128 212.499 199s90.5 135.833 90.5 194.5c0 102 -55 153 -165 153c-54 0 -102.5 -12.5 -145.5 -37.5s-84.833 -62.833 -125.5 -113.5l-108 149
c21.333 33.333 54.333 65.833 99 97.5s97.167 57.667 157.5 78s123.5 30.5 189.5 30.5c90 0 164.333 -15.333 223 -46s101.334 -68.834 128.001 -114.501s40 -91.834 40 -138.501c0 -98 -34.167 -189.667 -102.5 -275s-165.833 -168 -292.5 -248z" />
    <glyph glyph-name="uni00B3" unicode="&#xb3;" horiz-adv-x="1234" 
d="M400.5 795.5c32.333 -5 74.832 -7.5 127.499 -7.5c84 0.666992 145 14 183 40s57 64.333 57 115c0 34 -13.833 63.5 -41.5 88.5s-72.167 42.833 -133.5 53.5l-159 -33l1 185c46.667 6.66699 88.334 14.334 125.001 23.001c48 14.667 86.833 36 116.5 64
s44.5 59.667 44.5 95c0 33.333 -13.667 58.666 -41 75.999s-66.333 26 -117 26c-35.333 0 -75.333 -6.66699 -120 -20s-87.667 -32.666 -129 -57.999l-66 157c24.667 20.667 58.667 39.667 102 57s88.666 31 135.999 41s89.333 15 126 15c84 0 153.5 -10.5 208.5 -31.5
s95.5 -49.833 121.5 -86.5s39 -78.334 39 -125.001c0 -55.333 -13.833 -105.5 -41.5 -150.5s-76.834 -86.5 -147.501 -124.5c52 -2.66699 96.833 -15.5 134.5 -38.5s66.334 -52.167 86.001 -87.5s29.5 -73 29.5 -113c0 -70.667 -17 -133.667 -51 -189
s-86.167 -99 -156.5 -131s-158.166 -48 -263.499 -48c-46 0 -86.5 3.16699 -121.5 9.5s-72.833 14.833 -113.5 25.5c-16 4.66699 -31.667 8.66699 -47 12l-6 184c46 -10.667 85.167 -18.5 117.5 -23.5z" />
    <glyph glyph-name="acute" unicode="&#xb4;" horiz-adv-x="665" 
d="M234 1581c59.333 72 113.333 147.667 162 227l214 -174c-18 -42 -53.5 -90.333 -106.5 -145s-109 -104.667 -168 -150s-102.833 -74.333 -131.5 -87l-149 137c60 56 119.667 120 179 192z" />
    <glyph glyph-name="uni00B5" unicode="&#xb5;" horiz-adv-x="1404" 
d="M1337 87c-6.66699 -10 -21.6699 -23.332 -45.0029 -39.999s-53.333 -31.667 -90 -45s-76.334 -20 -119.001 -20c-96.667 0 -147 46 -151 138c-25.333 -36.667 -59.5 -68.5 -102.5 -95.5s-96.833 -40.5 -161.5 -40.5c-52.667 0 -98.167 5.16699 -136.5 15.5
s-70.833 27.833 -97.5 52.5l29 -423h-282v1511h312v-656c0 -61.333 6.66699 -110.333 20 -147s34.833 -63.334 64.5 -80.001s69.5 -25 119.5 -25c28.667 0 58.834 6.5 90.501 19.5s58.834 29.167 81.501 48.5v840h312v-859c0 -50.667 14.333 -76 43 -76
c8.66699 0 20.334 2 35.001 6s30.334 11 47.001 21z" />
    <glyph glyph-name="paragraph" unicode="&#xb6;" horiz-adv-x="1410" 
d="M173 891c-74 76 -111.001 195 -111.001 357c0 150.667 49.833 265.5 149.5 344.5s248.5 118.5 446.5 118.5c32.667 0 86.334 -1.66699 161.001 -5s123.667 -5.33301 147 -6c124 -5.33301 202.667 -8.33301 236 -9v-1691h-252v1522h-202v-1522h-252v777
c-141.333 0 -249 38 -323 114z" />
    <glyph glyph-name="periodcentered" unicode="&#xb7;" horiz-adv-x="641" 
d="M154 884.5c18.667 32.333 43.667 58.166 75 77.499s65 29 101 29c38 0 71 -8.5 99 -25.5s49.333 -40.5 64 -70.5s22 -63.333 22 -100c0 -37.333 -9 -72 -27 -104s-42.5 -57.5 -73.5 -76.5s-64.833 -28.5 -101.5 -28.5c-35.333 0 -67.333 8.5 -96 25.5s-51 40.333 -67 70
s-24 62.834 -24 99.501s9.33301 71.167 28 103.5z" />
    <glyph glyph-name="cedilla" unicode="&#xb8;" horiz-adv-x="518" 
d="M130 -285c34 0 62.166 12.667 84.499 38s34.5 62.666 36.5 111.999c0.666992 8 1 19.333 1 34c0 29.333 -2.83301 54 -8.5 74s-13.5 39 -23.5 57l137 4l49 -4c22 -20.667 38.333 -54.667 49 -102s15 -97 13 -149c-2.66699 -81.333 -27.834 -142.166 -75.501 -182.499
s-107.5 -60.5 -179.5 -60.5c-31.333 0 -66.166 2.83301 -104.499 8.5s-63.5 12.167 -75.5 19.5l20 165c14.667 -9.33301 40.334 -14 77.001 -14z" />
    <glyph glyph-name="uni00B9" unicode="&#xb9;" horiz-adv-x="1066" 
d="M389 1396c-64.667 -18 -122.669 -31.667 -174.002 -41l-40 161c37.333 10.667 81.833 28.167 133.5 52.5s99.834 49.5 144.501 75.5s75.334 46 92.001 60l145 -25v-1006h-279v729z" />
    <glyph glyph-name="ordmasculine" unicode="&#xba;" horiz-adv-x="1065" 
d="M787 1559c64.667 -39.333 113.332 -94.332 145.999 -164.999s49 -153 49 -247c0 -109.333 -20.667 -199.833 -62 -271.5s-96.166 -124 -164.499 -157s-143.833 -49.5 -226.5 -49.5c-95.333 0 -176.333 19.667 -243 59s-117.167 94.833 -151.5 166.5
s-51.5 156.167 -51.5 253.5c0 108 22.333 197.167 67 267.5s102.5 121.666 173.5 153.999s147.167 48.5 228.5 48.5c92 0 170.333 -19.667 235 -59zM672.498 924.501c28.333 43 42.5 112.833 42.5 209.5c0 92.667 -14.167 164.667 -42.5 216s-71.166 77 -128.499 77
c-63.333 0 -111.5 -21.333 -144.5 -64s-49.5 -111.667 -49.5 -207c0 -92 15.833 -164.333 47.5 -217s78.5 -79 140.5 -79c61.333 0 106.166 21.5 134.499 64.5z" />
    <glyph glyph-name="guillemotright" unicode="&#xbb;" horiz-adv-x="1998" 
d="M314 1157l656 -422v-243l-656 -416l-75 214l431 325l-431 326zM1753 735v-243l-656 -416l-75 214l431 325l-431 326l75 216z" />
    <glyph glyph-name="onequarter" unicode="&#xbc;" horiz-adv-x="2559" 
d="M2360 195h-164v-272h-256l1 272h-546l-52 94l498 889h68l187 -92l-440 -699h285l25 260h230v-260h164v-192zM1310 1530h243l-542 -1530h-240zM421 1396c-64.667 -18 -122.669 -31.667 -174.002 -41l-40 161c37.333 10.667 81.833 28.167 133.5 52.5
s99.834 49.5 144.501 75.5s75.334 46 92.001 60l145 -25v-1006h-279v729z" />
    <glyph glyph-name="onehalf" unicode="&#xbd;" horiz-adv-x="2559" 
d="M2368 239l0.00195312 -240.999h-817l-43 154c59.333 30.667 129.666 76.834 210.999 138.501s152.166 128 212.499 199s90.5 135.833 90.5 194.5c0 102 -55 153 -165 153c-54 0 -102.5 -12.5 -145.5 -37.5s-84.833 -62.833 -125.5 -113.5l-108 149
c21.333 33.333 54.333 65.833 99 97.5s97.167 57.667 157.5 78s123.5 30.5 189.5 30.5c90 0 164.333 -15.333 223 -46s101.334 -68.834 128 -114.501c26.667 -45.667 40 -91.834 40 -138.501c0 -98 -34.167 -189.667 -102.5 -275s-165.833 -168 -292.5 -248zM422.002 1396
c-64.667 -18 -122.669 -31.667 -174.002 -41l-40 161c37.333 10.667 81.833 28.167 133.5 52.5s99.834 49.5 144.501 75.5s75.334 46 92.001 60l145 -25v-1006h-279v729zM1310 1530h243l-542 -1530h-240z" />
    <glyph glyph-name="threequarters" unicode="&#xbe;" horiz-adv-x="2559" 
d="M2360 195h-164v-272h-256l1 272h-546l-52 94l498 889h68l187 -92l-440 -699h285l25 260h230v-260h164v-192zM266.5 795.5c32.333 -5 74.832 -7.5 127.499 -7.5c84 0.666992 145 14 183 40s57 64.333 57 115c0 34 -13.833 63.5 -41.5 88.5s-72.167 42.833 -133.5 53.5
l-159 -33l1 185c46.667 6.66699 88.334 14.334 125.001 23.001c48 14.667 86.833 36 116.5 64s44.5 59.667 44.5 95c0 33.333 -13.667 58.666 -41 75.999s-66.333 26 -117 26c-35.333 0 -75.333 -6.66699 -120 -20s-87.667 -32.666 -129 -57.999l-66 157
c24.667 20.667 58.667 39.667 102 57s88.666 31 135.999 41s89.333 15 126 15c84 0 153.5 -10.5 208.5 -31.5s95.5 -49.833 121.5 -86.5s39 -78.334 39 -125.001c0 -55.333 -13.833 -105.5 -41.5 -150.5s-76.834 -86.5 -147.501 -124.5
c52 -2.66699 96.833 -15.5 134.5 -38.5s66.334 -52.167 86.001 -87.5s29.5 -73 29.5 -113c0 -70.667 -17 -133.667 -51 -189s-86.167 -99 -156.5 -131s-158.166 -48 -263.499 -48c-46 0 -86.5 3.16699 -121.5 9.5s-72.833 14.833 -113.5 25.5
c-16 4.66699 -31.667 8.66699 -47 12l-6 184c46 -10.667 85.167 -18.5 117.5 -23.5zM1310 1530h243l-542 -1530h-240z" />
    <glyph glyph-name="questiondown" unicode="&#xbf;" horiz-adv-x="1057" 
d="M714.5 1273c-17.667 -29.333 -41.333 -52.6689 -71 -70.002s-60.834 -26 -93.501 -26c-35.333 0 -66.333 7.66699 -93 23s-47.167 36.5 -61.5 63.5s-21.5 57.167 -21.5 90.5c0 34 8.83301 65.667 26.5 95s41.167 52.833 70.5 70.5s60.666 26.5 93.999 26.5
c32.667 0 62.334 -7.83301 89.001 -23.5s47.834 -37.167 63.501 -64.5s23.5 -57.666 23.5 -90.999s-8.83301 -64.666 -26.5 -93.999zM759.001 612.997c-19.333 -38 -42.832 -70.6631 -70.499 -97.9961s-64.5 -59.333 -110.5 -96c-42 -33.333 -75.5 -61.833 -100.5 -85.5
s-45.833 -51.334 -62.5 -83.001s-25 -67.167 -25 -106.5c0 -70.667 26.5 -123.5 79.5 -158.5s134.833 -52.5 245.5 -52.5c45.333 0 82.166 2 110.499 6s50.166 8 65.499 12s25.333 6.66699 30 8v-232c-22 -13.333 -57.5 -24.833 -106.5 -34.5s-103.167 -14.5 -162.5 -14.5
c-142 0 -257.333 20.833 -346 62.5s-152.167 96.334 -190.5 164.001s-56.5 142.5 -54.5 224.5c0 63.333 11.5 119.5 34.5 168.5s51 90.333 84 124s76.5 72.5 130.5 116.5c44 36.667 78.333 67 103 91s46 51.5 64 82.5s28.333 65.167 31 102.5c0.666992 6.66699 1 16 1 28
c0 21.333 -2 41.166 -6 59.499s-10.667 43.833 -20 76.5c-1.33301 5.33301 -5 18.666 -11 39.999h238c22.667 -34.667 41.334 -73.834 56.001 -117.501s22 -95.834 22 -156.501c0 -49.333 -9.66699 -93 -29 -131z" />
    <glyph glyph-name="Agrave" unicode="&#xc0;" horiz-adv-x="1421" 
d="M987 322h-559l-101 -322h-342l562 1538h322l567 -1538h-347zM914 551l-165 522l-43 157l-44 -157l-163 -522h415zM593.5 1610c-47.667 34.667 -94.832 74.332 -141.499 118.999s-83 84.667 -109 120l217 131c7.33301 -21.333 38.666 -59.666 93.999 -114.999l201 -197
l-146 -125c-29.333 10 -67.833 32.333 -115.5 67z" />
    <glyph glyph-name="Aacute" unicode="&#xc1;" horiz-adv-x="1421" 
d="M987 322h-559l-101 -322h-342l562 1538h322l567 -1538h-347zM914 551l-165 522l-43 157l-44 -157l-163 -522h415zM746.5 1841c71 71.333 110.164 117.667 117.497 139l217 -131c-29.333 -38 -66.666 -78.833 -111.999 -122.5s-91.166 -82.5 -137.499 -116.5
s-85.166 -56.333 -116.499 -67l-146 125z" />
    <glyph glyph-name="Acircumflex" unicode="&#xc2;" horiz-adv-x="1421" 
d="M987 322h-559l-101 -322h-342l562 1538h322l567 -1538h-347zM914 551l-165 522l-43 157l-44 -157l-163 -522h415zM601 1959h220l276 -308l-165 -92l-221 199l-222 -199l-162 90z" />
    <glyph glyph-name="Atilde" unicode="&#xc3;" horiz-adv-x="1421" 
d="M987 322h-559l-101 -322h-342l562 1538h322l567 -1538h-347zM914 551l-165 522l-43 157l-44 -157l-163 -522h415zM390 1894c52 42 114.668 62.998 188.001 62.998c40 0 73 -6.5 99 -19.5s54 -31.833 84 -56.5c22.667 -18.667 41.667 -32.334 57 -41.001
s33.333 -13 54 -13c30 0 57.333 10.333 82 31s49 47.334 73 80.001l126 -108c-24 -69.333 -61.167 -124.666 -111.5 -165.999s-112.5 -62 -186.5 -62c-38.667 0 -70.5 6.33301 -95.5 19s-52.167 31.334 -81.5 56.001c-24.667 20 -45.334 34.667 -62.001 44
s-36.667 14 -60 14c-26 0 -52.5 -10 -79.5 -30s-51.833 -44 -74.5 -72l-125 98c23.333 66.667 61 121 113 163z" />
    <glyph glyph-name="Adieresis" unicode="&#xc4;" horiz-adv-x="1421" 
d="M987 322h-559l-101 -322h-342l562 1538h322l567 -1538h-347zM914 551l-165 522l-43 157l-44 -157l-163 -522h415zM297 1870c16.667 28 39.332 50 67.999 66s60 24 94 24c54 0 95.5 -14.833 124.5 -44.5s43.5 -69.5 43.5 -119.5c0 -34 -8.16699 -64.833 -24.5 -92.5
s-38.666 -49.5 -66.999 -65.5s-59.833 -24 -94.5 -24c-51.333 0 -92.333 15 -123 45s-46 69.667 -46 119c0 33.333 8.33301 64 25 92zM820.998 1870c16.667 28 39.333 50 68 66s60 24 94 24c54 0 95.333 -14.833 124 -44.5s43 -69.5 43 -119.5c0 -34 -8 -64.833 -24 -92.5
s-38.167 -49.5 -66.5 -65.5s-60.166 -24 -95.499 -24c-50.667 0 -91.334 15 -122.001 45s-46 69.667 -46 119c0 33.333 8.33301 64 25 92z" />
    <glyph glyph-name="Aring" unicode="&#xc5;" horiz-adv-x="1421" 
d="M987 322l-558.999 0.000976562l-101 -322h-342l530 1451c-48 22 -84.667 53.5 -110 94.5s-38 90.167 -38 147.5c0 65.333 16.5 118.666 49.5 159.999s75.5 71 127.5 89s108.667 27 170 27c106 0 188.5 -23 247.5 -69s88.5 -113.667 88.5 -203
c0 -59.333 -13.333 -109.333 -40 -150s-63.334 -71.667 -110.001 -93l536 -1454h-347zM592.001 1795.5c-27.333 -18.333 -41.001 -50.832 -41.001 -97.499c0 -41.333 14.333 -73.5 43 -96.5s66.667 -34.5 114 -34.5c52.667 -0.666992 92.334 7.66602 119.001 24.999
s40 50.333 40 99c0 44 -15 77 -45 99s-69.667 33 -119 33c-46.667 0 -83.667 -9.16699 -111 -27.5zM914 551.002l-165 522l-43 157l-44 -157l-163 -522h415z" />
    <glyph glyph-name="AE" unicode="&#xc6;" horiz-adv-x="1939" 
d="M1853 251v-251h-993v376h-448l-178 -376h-345l766 1522h1133v-244h-610v-374h468v-241h-468v-412h675zM860 598v726l-343 -726h343z" />
    <glyph glyph-name="Ccedilla" unicode="&#xc7;" horiz-adv-x="1299" 
d="M1244 64c-53.333 -21.333 -102.338 -38.334 -147.005 -51.001s-97.667 -21.334 -159 -26.001c12 -26.667 20.833 -58.5 26.5 -95.5s7.83398 -74.5 6.50098 -112.5c-2.66699 -81.333 -27.834 -142.166 -75.501 -182.499s-107.5 -60.5 -179.5 -60.5
c-31.333 0 -66.166 2.83301 -104.499 8.5s-63.5 12.167 -75.5 19.5l20 165c14.667 -9.33301 40.334 -14 77.001 -14c34 0 62.167 12.667 84.5 38s34.5 62.666 36.5 111.999c0.666992 8 1 19.333 1 34c0 36.667 -4.66699 67.334 -14 92.001
c-132 16 -246.167 57.833 -342.5 125.5s-170.166 156.5 -221.499 266.5s-77 234.667 -77 374c0 163.333 32.833 303.833 98.5 421.5s155 207 268 268s239.5 91.5 379.5 91.5c74 0 135.5 -3.66699 184.5 -11s101.5 -18 157.5 -32c40.667 -9.33301 64.667 -14.666 72 -15.999
l-46 -280c-4 2 -21.333 11.5 -52 28.5s-72 31 -124 42s-109.333 16.5 -172 16.5c-82.667 0 -157.167 -20.333 -223.5 -61s-118.666 -99.5 -156.999 -176.5s-57.5 -167.5 -57.5 -271.5c0 -105.333 18.5 -199.5 55.5 -282.5s90.333 -147.833 160 -194.5
s151.834 -70 246.501 -70c43.333 0 88.833 5.16699 136.5 15.5s91 23 130 38s67.833 29.167 86.5 42.5z" />
    <glyph glyph-name="Egrave" unicode="&#xc8;" horiz-adv-x="1254" 
d="M582.5 1610c-47.667 34.667 -94.832 74.332 -141.499 118.999s-83 84.667 -109 120l217 131c7.33301 -21.333 38.666 -59.666 93.999 -114.999l201 -197l-146 -125c-29.333 10 -67.833 32.333 -115.5 67zM1116 1522v-244h-610v-378h468v-241h-468v-408h675v-251h-993
v1522h928z" />
    <glyph glyph-name="Eacute" unicode="&#xc9;" horiz-adv-x="1254" 
d="M735.5 1841c71 71.333 110.164 117.667 117.497 139l217 -131c-29.333 -38 -66.666 -78.833 -111.999 -122.5s-91.166 -82.5 -137.499 -116.5s-85.166 -56.333 -116.499 -67l-146 125zM1116 1522v-244h-610v-378h468v-241h-468v-408h675v-251h-993v1522h928z" />
    <glyph glyph-name="Ecircumflex" unicode="&#xca;" horiz-adv-x="1254" 
d="M1116 1522v-244h-610v-378h468v-241h-468v-408h675v-251h-993v1522h928zM590 1959h220l276 -308l-165 -92l-221 199l-222 -199l-162 90z" />
    <glyph glyph-name="Edieresis" unicode="&#xcb;" horiz-adv-x="1254" 
d="M286 1870c16.667 28 39.332 50 67.999 66s60 24 94 24c54 0 95.5 -14.833 124.5 -44.5s43.5 -69.5 43.5 -119.5c0 -34 -8.16699 -64.833 -24.5 -92.5s-38.666 -49.5 -66.999 -65.5s-59.833 -24 -94.5 -24c-51.333 0 -92.333 15 -123 45s-46 69.667 -46 119
c0 33.333 8.33301 64 25 92zM809.998 1870c16.667 28 39.333 50 68 66s60 24 94 24c54 0 95.333 -14.833 124 -44.5s43 -69.5 43 -119.5c0 -34 -8 -64.833 -24 -92.5s-38.167 -49.5 -66.5 -65.5s-60.166 -24 -95.499 -24c-50.667 0 -91.334 15 -122.001 45
s-46 69.667 -46 119c0 33.333 8.33301 64 25 92zM1116 1522v-244h-610v-378h468v-241h-468v-408h675v-251h-993v1522h928z" />
    <glyph glyph-name="Igrave" unicode="&#xcc;" horiz-adv-x="722" 
d="M521 1522v-1522h-320v1522h320zM243.5 1610c-47.667 34.667 -94.832 74.332 -141.499 118.999s-83 84.667 -109 120l217 131c7.33301 -21.333 38.666 -59.666 93.999 -114.999l201 -197l-146 -125c-29.333 10 -67.833 32.333 -115.5 67z" />
    <glyph glyph-name="Iacute" unicode="&#xcd;" horiz-adv-x="722" 
d="M521 1522v-1522h-320v1522h320zM396.5 1841c71 71.333 110.164 117.667 117.497 139l217 -131c-29.333 -38 -66.666 -78.833 -111.999 -122.5s-91.166 -82.5 -137.499 -116.5s-85.166 -56.333 -116.499 -67l-146 125z" />
    <glyph glyph-name="Icircumflex" unicode="&#xce;" horiz-adv-x="722" 
d="M521 1522v-1522h-320v1522h320zM251 1959h220l276 -308l-165 -92l-221 199l-222 -199l-162 90z" />
    <glyph glyph-name="Idieresis" unicode="&#xcf;" horiz-adv-x="722" 
d="M521 1522v-1522h-320v1522h320zM-53 1870c16.667 28 39.332 50 67.999 66s60 24 94 24c54 0 95.5 -14.833 124.5 -44.5s43.5 -69.5 43.5 -119.5c0 -34 -8.16699 -64.833 -24.5 -92.5s-38.666 -49.5 -66.999 -65.5s-59.833 -24 -94.5 -24c-51.333 0 -92.333 15 -123 45
s-46 69.667 -46 119c0 33.333 8.33301 64 25 92zM470.998 1870c16.667 28 39.333 50 68 66s60 24 94 24c54 0 95.333 -14.833 124 -44.5s43 -69.5 43 -119.5c0 -34 -8 -64.833 -24 -92.5s-38.167 -49.5 -66.5 -65.5s-60.166 -24 -95.499 -24
c-50.667 0 -91.334 15 -122.001 45s-46 69.667 -46 119c0 33.333 8.33301 64 25 92z" />
    <glyph glyph-name="Eth" unicode="&#xd0;" horiz-adv-x="1554" 
d="M1268.5 1348c123.667 -126.667 185.501 -308.999 185.501 -546.999c0 -170 -31 -316.333 -93 -439s-150.167 -216.334 -264.5 -281.001s-248.833 -97 -403.5 -97c-48 0 -119.333 3 -214 9c-58 4.66699 -103.667 7 -137 7h-154v694h-119v201h119v627h151
c21.333 0 64 2 128 6c89.333 6.66699 169.666 10 240.999 10c250 0 436.833 -63.333 560.5 -190zM1010.5 361.501c71.667 87.667 107.499 222.832 107.499 405.499c0 130.667 -15.833 234.834 -47.5 312.501s-79.5 133.5 -143.5 167.5s-147 51 -249 51
c-35.333 0 -78.333 -3.33301 -129 -10l-40 -4v-389h337v-201h-337v-448c45.333 -12 113.333 -18 204 -18c126.667 1.33301 225.834 45.833 297.501 133.5z" />
    <glyph glyph-name="Ntilde" unicode="&#xd1;" horiz-adv-x="1622" 
d="M489 1894c52 42 114.668 62.998 188.001 62.998c40 0 73 -6.5 99 -19.5s54 -31.833 84 -56.5c22.667 -18.667 41.667 -32.334 57 -41.001s33.333 -13 54 -13c30 0 57.333 10.333 82 31s49 47.334 73 80.001l126 -108c-24 -69.333 -61.167 -124.666 -111.5 -165.999
s-112.5 -62 -186.5 -62c-38.667 0 -70.5 6.33301 -95.5 19s-52.167 31.334 -81.5 56.001c-24.667 20 -45.334 34.667 -62.001 44s-36.667 14 -60 14c-26 0 -52.5 -10 -79.5 -30s-51.833 -44 -74.5 -72l-125 98c23.333 66.667 61 121 113 163zM1432 1522v-1522h-319l-543 861
l-120 243l34 -363v-741h-296v1522h295l567 -895l115 -228l-29 366v757h296z" />
    <glyph glyph-name="Ograve" unicode="&#xd2;" 
d="M705.5 1610c-47.667 34.667 -94.832 74.332 -141.499 118.999s-83 84.667 -109 120l217 131c7.33301 -21.333 38.666 -59.666 93.999 -114.999l201 -197l-146 -125c-29.333 10 -67.833 32.333 -115.5 67zM195.502 1194.5c61.667 113 145.999 197.499 252.999 253.499
s231.167 86 372.5 90c138 4 258.667 -26 362 -90s182.166 -155.333 236.499 -274s80.166 -255.667 77.499 -411c-3.33301 -173.333 -35.666 -318.166 -96.999 -434.499s-145.666 -202.833 -252.999 -259.5s-232 -85 -374 -85c-140 0 -261.5 33.167 -364.5 99.5
s-181.167 158.833 -234.5 277.5s-78.666 254.667 -75.999 408c3.33301 170.667 35.833 312.5 97.5 425.5zM1128.5 1044c-26.333 78.667 -66.002 140.334 -119.002 185.001s-118.167 67 -195.5 67c-74 0 -140 -18.333 -198 -55s-104 -95 -138 -175s-51 -182.667 -51 -308
c0 -102 13.833 -193.667 41.5 -275s69.334 -145.333 125.001 -192s123.834 -70 204.501 -70c116.667 0 207.5 45.667 272.5 137s97.5 229.666 97.5 414.999c0 102 -13.167 192.333 -39.5 271z" />
    <glyph glyph-name="Oacute" unicode="&#xd3;" 
d="M858.5 1877c71 71.333 110.164 117.667 117.497 139l217 -131c-29.333 -38 -66.666 -78.833 -111.999 -122.5s-91.166 -82.5 -137.499 -116.5s-85.166 -56.333 -116.499 -67l-146 125zM195.497 1194.5c61.667 113 145.999 197.499 252.999 253.499s231.167 86 372.5 90
c138 4 258.667 -26 362 -90s182.166 -155.333 236.499 -274s80.166 -255.667 77.499 -411c-3.33301 -173.333 -35.666 -318.166 -96.999 -434.499s-145.666 -202.833 -252.999 -259.5s-232 -85 -374 -85c-140 0 -261.5 33.167 -364.5 99.5s-181.167 158.833 -234.5 277.5
s-78.666 254.667 -75.999 408c3.33301 170.667 35.833 312.5 97.5 425.5zM1128.5 1044c-26.333 78.667 -66.002 140.334 -119.002 185.001s-118.167 67 -195.5 67c-74 0 -140 -18.333 -198 -55s-104 -95 -138 -175s-51 -182.667 -51 -308c0 -102 13.833 -193.667 41.5 -275
s69.334 -145.333 125.001 -192s123.834 -70 204.501 -70c116.667 0 207.5 45.667 272.5 137s97.5 229.666 97.5 414.999c0 102 -13.167 192.333 -39.5 271z" />
    <glyph glyph-name="Ocircumflex" unicode="&#xd4;" 
d="M195.5 1194.5c61.667 113 145.999 197.499 252.999 253.499s231.167 86 372.5 90c138 4 258.667 -26 362 -90s182.166 -155.333 236.499 -274s80.166 -255.667 77.499 -411c-3.33301 -173.333 -35.666 -318.166 -96.999 -434.499s-145.666 -202.833 -252.999 -259.5
s-232 -85 -374 -85c-140 0 -261.5 33.167 -364.5 99.5s-181.167 158.833 -234.5 277.5s-78.666 254.667 -75.999 408c3.33301 170.667 35.833 312.5 97.5 425.5zM1128.5 1044c-26.333 78.667 -66.002 140.334 -119.002 185.001s-118.167 67 -195.5 67
c-74 0 -140 -18.333 -198 -55s-104 -95 -138 -175s-51 -182.667 -51 -308c0 -102 13.833 -193.667 41.5 -275s69.334 -145.333 125.001 -192s123.834 -70 204.501 -70c116.667 0 207.5 45.667 272.5 137s97.5 229.666 97.5 414.999c0 102 -13.167 192.333 -39.5 271z
M712.997 1959h220l276 -308l-165 -92l-221 199l-222 -199l-162 90z" />
    <glyph glyph-name="Otilde" unicode="&#xd5;" 
d="M502 1894c52 42 114.668 62.998 188.001 62.998c40 0 73 -6.5 99 -19.5s54 -31.833 84 -56.5c22.667 -18.667 41.667 -32.334 57 -41.001s33.333 -13 54 -13c30 0 57.333 10.333 82 31s49 47.334 73 80.001l126 -108c-24 -69.333 -61.167 -124.666 -111.5 -165.999
s-112.5 -62 -186.5 -62c-38.667 0 -70.5 6.33301 -95.5 19s-52.167 31.334 -81.5 56.001c-24.667 20 -45.334 34.667 -62.001 44s-36.667 14 -60 14c-26 0 -52.5 -10 -79.5 -30s-51.833 -44 -74.5 -72l-125 98c23.333 66.667 61 121 113 163zM195.501 1194.5
c61.667 113 145.999 197.499 252.999 253.499s231.167 86 372.5 90c138 4 258.667 -26 362 -90s182.166 -155.333 236.499 -274s80.166 -255.667 77.499 -411c-3.33301 -173.333 -35.666 -318.166 -96.999 -434.499s-145.666 -202.833 -252.999 -259.5s-232 -85 -374 -85
c-140 0 -261.5 33.167 -364.5 99.5s-181.167 158.833 -234.5 277.5s-78.666 254.667 -75.999 408c3.33301 170.667 35.833 312.5 97.5 425.5zM1128.5 1044c-26.333 78.667 -66.002 140.334 -119.002 185.001s-118.167 67 -195.5 67c-74 0 -140 -18.333 -198 -55
s-104 -95 -138 -175s-51 -182.667 -51 -308c0 -102 13.833 -193.667 41.5 -275s69.334 -145.333 125.001 -192s123.834 -70 204.501 -70c116.667 0 207.5 45.667 272.5 137s97.5 229.666 97.5 414.999c0 102 -13.167 192.333 -39.5 271z" />
    <glyph glyph-name="Odieresis" unicode="&#xd6;" 
d="M409 1870c16.667 28 39.332 50 67.999 66s60 24 94 24c54 0 95.5 -14.833 124.5 -44.5s43.5 -69.5 43.5 -119.5c0 -34 -8.16699 -64.833 -24.5 -92.5s-38.666 -49.5 -66.999 -65.5s-59.833 -24 -94.5 -24c-51.333 0 -92.333 15 -123 45s-46 69.667 -46 119
c0 33.333 8.33301 64 25 92zM932.998 1870c16.667 28 39.333 50 68 66s60 24 94 24c54 0 95.333 -14.833 124 -44.5s43 -69.5 43 -119.5c0 -34 -8 -64.833 -24 -92.5s-38.167 -49.5 -66.5 -65.5s-60.166 -24 -95.499 -24c-50.667 0 -91.334 15 -122.001 45
s-46 69.667 -46 119c0 33.333 8.33301 64 25 92zM195.497 1194.5c61.667 113 145.999 197.499 252.999 253.499s231.167 86 372.5 90c138 4 258.667 -26 362 -90s182.166 -155.333 236.499 -274s80.166 -255.667 77.499 -411
c-3.33301 -173.333 -35.666 -318.166 -96.999 -434.499s-145.666 -202.833 -252.999 -259.5s-232 -85 -374 -85c-140 0 -261.5 33.167 -364.5 99.5s-181.167 158.833 -234.5 277.5s-78.666 254.667 -75.999 408c3.33301 170.667 35.833 312.5 97.5 425.5zM1128.5 1044
c-26.333 78.667 -66.002 140.334 -119.002 185.001s-118.167 67 -195.5 67c-74 0 -140 -18.333 -198 -55s-104 -95 -138 -175s-51 -182.667 -51 -308c0 -102 13.833 -193.667 41.5 -275s69.334 -145.333 125.001 -192s123.834 -70 204.501 -70
c116.667 0 207.5 45.667 272.5 137s97.5 229.666 97.5 414.999c0 102 -13.167 192.333 -39.5 271z" />
    <glyph glyph-name="multiply" unicode="&#xd7;" horiz-adv-x="1380" 
d="M168 1160l171 160l354 -378l351 378l171 -160l-359 -383l356 -369l-171 -171l-351 368l-351 -368l-171 171l359 368z" />
    <glyph glyph-name="Oslash" unicode="&#xd8;" 
d="M1323.5 1328c56.333 -66.667 99.333 -145.998 129 -237.998s44.5 -193 44.5 -303c0 -178.667 -30.5 -327.834 -91.5 -447.501s-146 -208.834 -255 -267.501s-235.5 -88 -379.5 -88c-65.333 0 -127.666 7.66699 -186.999 23l-83 -227l-125 32l88 240
c-78.667 39.333 -145.834 93.833 -201.501 163.5s-97.5 151.5 -125.5 245.5s-41 196.667 -39 308c3.33301 170.667 35.833 312.5 97.5 425.5s146 197.5 253 253.5s231.167 86 372.5 90c60 2 119.333 -3.33301 178 -16l94 259l125 -32l-97 -268
c78.667 -35.333 146.167 -86.333 202.5 -153zM461.5 507.002c23 -75.333 56.499 -137 100.499 -185l349 960c-31.333 9.33301 -63.666 14 -96.999 14c-74 0 -140 -18.333 -198 -55s-104 -95 -138 -175s-51 -182.667 -51 -308c0 -92 11.5 -175.667 34.5 -251zM1070.5 358.002
c65 91.333 97.499 229.666 97.499 414.999c0 97.333 -12.167 184.333 -36.5 261s-60.166 137.334 -107.499 182.001l-354 -971c38 -16 80.667 -24 128 -24c116.667 0 207.5 45.667 272.5 137z" />
    <glyph glyph-name="Ugrave" unicode="&#xd9;" horiz-adv-x="1525" 
d="M650.5 1610c-47.667 34.667 -94.832 74.332 -141.499 118.999s-83 84.667 -109 120l217 131c7.33301 -21.333 38.666 -59.666 93.999 -114.999l201 -197l-146 -125c-29.333 10 -67.833 32.333 -115.5 67zM152.002 1522h314.999l-2 -852
c0 -115.333 11.167 -204.333 33.5 -267s55.166 -105.834 98.499 -129.501s100 -35.5 170 -35.5c67.333 0 122.333 12.833 165 38.5s75.167 70 97.5 133s33.5 149.833 33.5 260.5v852h313v-882c0 -214 -52 -376.833 -156 -488.5s-258 -167.5 -462 -167.5
c-217.333 0 -373.166 57.833 -467.499 173.5s-141.166 280.834 -140.499 495.501z" />
    <glyph glyph-name="Uacute" unicode="&#xda;" horiz-adv-x="1525" 
d="M803.5 1841c71 71.333 110.164 117.667 117.497 139l217 -131c-29.333 -38 -66.666 -78.833 -111.999 -122.5s-91.166 -82.5 -137.499 -116.5s-85.166 -56.333 -116.499 -67l-146 125zM151.997 1522h314.999l-2 -852c0 -115.333 11.167 -204.333 33.5 -267
s55.166 -105.834 98.499 -129.501s100 -35.5 170 -35.5c67.333 0 122.333 12.833 165 38.5s75.167 70 97.5 133s33.5 149.833 33.5 260.5v852h313v-882c0 -214 -52 -376.833 -156 -488.5s-258 -167.5 -462 -167.5c-217.333 0 -373.166 57.833 -467.499 173.5
s-141.166 280.834 -140.499 495.501z" />
    <glyph glyph-name="Ucircumflex" unicode="&#xdb;" horiz-adv-x="1525" 
d="M152 1522h314.999l-2 -852c0 -115.333 11.167 -204.333 33.5 -267s55.166 -105.834 98.499 -129.501s100 -35.5 170 -35.5c67.333 0 122.333 12.833 165 38.5s75.167 70 97.5 133s33.5 149.833 33.5 260.5v852h313v-882c0 -214 -52 -376.833 -156 -488.5
s-258 -167.5 -462 -167.5c-217.333 0 -373.166 57.833 -467.499 173.5s-141.166 280.834 -140.499 495.501zM657.999 1959h220l276 -308l-165 -92l-221 199l-222 -199l-162 90z" />
    <glyph glyph-name="Udieresis" unicode="&#xdc;" horiz-adv-x="1525" 
d="M354 1870c16.667 28 39.332 50 67.999 66s60 24 94 24c54 0 95.5 -14.833 124.5 -44.5s43.5 -69.5 43.5 -119.5c0 -34 -8.16699 -64.833 -24.5 -92.5s-38.666 -49.5 -66.999 -65.5s-59.833 -24 -94.5 -24c-51.333 0 -92.333 15 -123 45s-46 69.667 -46 119
c0 33.333 8.33301 64 25 92zM877.998 1870c16.667 28 39.333 50 68 66s60 24 94 24c54 0 95.333 -14.833 124 -44.5s43 -69.5 43 -119.5c0 -34 -8 -64.833 -24 -92.5s-38.167 -49.5 -66.5 -65.5s-60.166 -24 -95.499 -24c-50.667 0 -91.334 15 -122.001 45
s-46 69.667 -46 119c0 33.333 8.33301 64 25 92zM151.997 1522h314.999l-2 -852c0 -115.333 11.167 -204.333 33.5 -267s55.166 -105.834 98.499 -129.501s100 -35.5 170 -35.5c67.333 0 122.333 12.833 165 38.5s75.167 70 97.5 133s33.5 149.833 33.5 260.5v852h313v-882
c0 -214 -52 -376.833 -156 -488.5s-258 -167.5 -462 -167.5c-217.333 0 -373.166 57.833 -467.499 173.5s-141.166 280.834 -140.499 495.501z" />
    <glyph glyph-name="Yacute" unicode="&#xdd;" horiz-adv-x="1241" 
d="M780 533v-533h-319v535l-511 987h350l280 -590l44 -113l38 113l288 590h341zM674.5 1841c71 71.333 110.164 117.667 117.497 139l217 -131c-29.333 -38 -66.666 -78.833 -111.999 -122.5s-91.166 -82.5 -137.499 -116.5s-85.166 -56.333 -116.499 -67l-146 125z" />
    <glyph glyph-name="Thorn" unicode="&#xde;" horiz-adv-x="1359" 
d="M1141.5 1167c93.667 -80 140.5 -200.668 140.5 -362.001c0 -114.667 -22.333 -213 -67 -295s-110.334 -144.667 -197.001 -188s-192 -65 -316 -65c-54.667 0 -99.667 1.33301 -135 4s-55.666 4.33398 -60.999 5.00098v-266h-318v1522h318v-247l65 4
c74.667 5.33301 134 8 178 8c168 0 298.833 -40 392.5 -120zM821 523.499c44 15.667 79.333 45.668 106 90.001s40 107.166 40 188.499c0 79.333 -24.167 140 -72.5 182s-118.5 63 -210.5 63c-68 0 -127.333 -6.33301 -178 -19v-518c24 -4.66699 48 -7.5 72 -8.5
s52 -1.5 84 -1.5c62 0 115 7.83301 159 23.5z" />
    <glyph glyph-name="germandbls" unicode="&#xdf;" horiz-adv-x="1395" 
d="M1013.5 832.5c10.333 -17.667 23.5 -34.002 39.5 -49.002s38.667 -34.833 68 -59.5c45.333 -37.333 82.833 -71.5 112.5 -102.5s55.167 -70.167 76.5 -117.5s32 -102.333 32 -165c0 -126.667 -40.333 -217.5 -121 -272.5s-182.334 -82.5 -305.001 -82.5
c-53.333 0 -101.666 3.16699 -144.999 9.5s-73.666 14.166 -90.999 23.499v223c16.667 -10.667 41.334 -20.5 74.001 -29.5s68.334 -13.5 107.001 -13.5c42 0 79.833 10 113.5 30s50.5 52.333 50.5 97c0 29.333 -5.83301 56.333 -17.5 81s-26.167 46.667 -43.5 66
s-41.333 43 -72 71c-35.333 32.667 -63.833 61.334 -85.5 86.001s-40 54.5 -55 89.5s-22.5 74.833 -22.5 119.5c0 30 4.66699 57.167 14 81.5s20.666 45.333 33.999 63s31 38.5 53 62.5c30.667 33.333 53.5 62.5 68.5 87.5s22.5 55.167 22.5 90.5
c0 48.667 -14 85.834 -42 111.501s-68 38.5 -120 38.5c-80.667 0 -142.334 -32.167 -185.001 -96.5s-64 -172.5 -64 -324.5v-951h-317v924h-139v195l156 29c30.667 146 99.167 254.333 205.5 325s235.833 106 388.5 106c89.333 0 167.166 -12.833 233.499 -38.5
s117.5 -62 153.5 -109s54 -101.5 54 -163.5c0 -41.333 -7.33301 -77.5 -22 -108.5s-32.167 -56.667 -52.5 -77s-46.5 -43.166 -78.5 -68.499c-32 -24.667 -55.667 -46 -71 -64s-23 -38.333 -23 -61c0 -20 5.16699 -38.833 15.5 -56.5z" />
    <glyph glyph-name="agrave" unicode="&#xe0;" horiz-adv-x="1223" 
d="M872.5 1125.5c66.333 -24.333 115.832 -66.667 148.499 -127s49 -144.833 49 -253.5v-761h-182c-30 0 -52.667 2 -68 6s-27.333 13.333 -36 28s-13 38 -13 70v8c-34.667 -32 -77.334 -58.667 -128.001 -80s-107 -32 -169 -32c-73.333 0 -138.166 15.833 -194.499 47.5
s-100 75.667 -131 132s-46.5 120.166 -46.5 191.499c0 66.667 17.167 123.667 51.5 171s83.5 85.333 147.5 114c99.333 44 251.666 66 456.999 66v72c0 42.667 -5.5 74 -16.5 94s-32 33.667 -63 41s-79.833 11 -146.5 11c-32 0 -80.667 -8.16699 -146 -24.5
s-121.333 -35.166 -168 -56.499l-69 200c26.667 16 65.334 33.333 116.001 52s106.334 34.5 167.001 47.5s119 19.5 175 19.5c110.667 0 199.167 -12.167 265.5 -36.5zM685.999 215.499c36.667 13.667 60.667 27.8311 72 42.498v272c-38 0 -80.833 -4.16699 -128.5 -12.5
s-83.167 -17.833 -106.5 -28.5c-30 -11.333 -54 -26.666 -72 -45.999s-27 -48 -27 -86c0 -53.333 14.5 -93.666 43.5 -120.999s66.833 -41 113.5 -41c33.333 0 68.333 6.83301 105 20.5zM465.999 1338c-57.333 44 -112.332 92.998 -164.999 146.998
s-89.334 103.333 -110.001 148l215 174c40.667 -69.333 92.667 -142.666 156 -219.999s125 -143.666 185 -198.999l-149 -137c-30.667 14 -74.667 43 -132 87z" />
    <glyph glyph-name="aacute" unicode="&#xe1;" horiz-adv-x="1223" 
d="M872.5 1125.5c66.333 -24.333 115.832 -66.667 148.499 -127s49 -144.833 49 -253.5v-761h-182c-30 0 -52.667 2 -68 6s-27.333 13.333 -36 28s-13 38 -13 70v8c-34.667 -32 -77.334 -58.667 -128.001 -80s-107 -32 -169 -32c-73.333 0 -138.166 15.833 -194.499 47.5
s-100 75.667 -131 132s-46.5 120.166 -46.5 191.499c0 66.667 17.167 123.667 51.5 171s83.5 85.333 147.5 114c99.333 44 251.666 66 456.999 66v72c0 42.667 -5.5 74 -16.5 94s-32 33.667 -63 41s-79.833 11 -146.5 11c-32 0 -80.667 -8.16699 -146 -24.5
s-121.333 -35.166 -168 -56.499l-69 200c26.667 16 65.334 33.333 116.001 52s106.334 34.5 167.001 47.5s119 19.5 175 19.5c110.667 0 199.167 -12.167 265.5 -36.5zM685.999 215.499c36.667 13.667 60.667 27.8311 72 42.498v272c-38 0 -80.833 -4.16699 -128.5 -12.5
s-83.167 -17.833 -106.5 -28.5c-30 -11.333 -54 -26.666 -72 -45.999s-27 -48 -27 -86c0 -53.333 14.5 -93.666 43.5 -120.999s66.833 -41 113.5 -41c33.333 0 68.333 6.83301 105 20.5zM671.999 1580c59.333 72 113.333 147.667 162 227l214 -174
c-18 -42 -53.5 -90.333 -106.5 -145s-109 -104.667 -168 -150s-102.833 -74.333 -131.5 -87l-149 137c60 56 119.667 120 179 192z" />
    <glyph glyph-name="acircumflex" unicode="&#xe2;" horiz-adv-x="1223" 
d="M872.5 1125.5c66.333 -24.333 115.832 -66.667 148.499 -127s49 -144.833 49 -253.5v-761h-182c-30 0 -52.667 2 -68 6s-27.333 13.333 -36 28s-13 38 -13 70v8c-34.667 -32 -77.334 -58.667 -128.001 -80s-107 -32 -169 -32c-73.333 0 -138.166 15.833 -194.499 47.5
s-100 75.667 -131 132s-46.5 120.166 -46.5 191.499c0 66.667 17.167 123.667 51.5 171s83.5 85.333 147.5 114c99.333 44 251.666 66 456.999 66v72c0 42.667 -5.5 74 -16.5 94s-32 33.667 -63 41s-79.833 11 -146.5 11c-32 0 -80.667 -8.16699 -146 -24.5
s-121.333 -35.166 -168 -56.499l-69 200c26.667 16 65.334 33.333 116.001 52s106.334 34.5 167.001 47.5s119 19.5 175 19.5c110.667 0 199.167 -12.167 265.5 -36.5zM685.999 215.499c36.667 13.667 60.667 27.8311 72 42.498v272c-38 0 -80.833 -4.16699 -128.5 -12.5
s-83.167 -17.833 -106.5 -28.5c-30 -11.333 -54 -26.666 -72 -45.999s-27 -48 -27 -86c0 -53.333 14.5 -93.666 43.5 -120.999s66.833 -41 113.5 -41c33.333 0 68.333 6.83301 105 20.5zM516.999 1698h223l283 -372l-161 -90l-233 246l-242 -246l-156 89z" />
    <glyph glyph-name="atilde" unicode="&#xe3;" horiz-adv-x="1223" 
d="M872.5 1125.5c66.333 -24.333 115.832 -66.667 148.499 -127s49 -144.833 49 -253.5v-761h-182c-30 0 -52.667 2 -68 6s-27.333 13.333 -36 28s-13 38 -13 70v8c-34.667 -32 -77.334 -58.667 -128.001 -80s-107 -32 -169 -32c-73.333 0 -138.166 15.833 -194.499 47.5
s-100 75.667 -131 132s-46.5 120.166 -46.5 191.499c0 66.667 17.167 123.667 51.5 171s83.5 85.333 147.5 114c99.333 44 251.666 66 456.999 66v72c0 42.667 -5.5 74 -16.5 94s-32 33.667 -63 41s-79.833 11 -146.5 11c-32 0 -80.667 -8.16699 -146 -24.5
s-121.333 -35.166 -168 -56.499l-69 200c26.667 16 65.334 33.333 116.001 52s106.334 34.5 167.001 47.5s119 19.5 175 19.5c110.667 0 199.167 -12.167 265.5 -36.5zM685.999 215.499c36.667 13.667 60.667 27.8311 72 42.498v272c-38 0 -80.833 -4.16699 -128.5 -12.5
s-83.167 -17.833 -106.5 -28.5c-30 -11.333 -54 -26.666 -72 -45.999s-27 -48 -27 -86c0 -53.333 14.5 -93.666 43.5 -120.999s66.833 -41 113.5 -41c33.333 0 68.333 6.83301 105 20.5zM292.999 1635c52 42 114.666 62.9971 187.999 62.9971
c42.667 0 77.334 -6.66699 104.001 -20s54.334 -32.333 83.001 -57c21.333 -18 39.5 -31.333 54.5 -40s32.5 -13 52.5 -13c30 0 57.333 10.333 82 31s49 47.334 73 80.001l126 -108c-24 -69.333 -61.167 -124.666 -111.5 -165.999s-112.5 -62 -186.5 -62
c-38.667 0 -70.5 6.33301 -95.5 19s-52.167 31.334 -81.5 56.001c-24.667 20 -45.334 34.667 -62.001 44s-36.667 14 -60 14c-26 0 -52.5 -10 -79.5 -30s-51.833 -44 -74.5 -72l-125 98c23.333 66.667 61 121 113 163z" />
    <glyph glyph-name="adieresis" unicode="&#xe4;" horiz-adv-x="1223" 
d="M872.5 1125.5c66.333 -24.333 115.832 -66.667 148.499 -127s49 -144.833 49 -253.5v-761h-182c-30 0 -52.667 2 -68 6s-27.333 13.333 -36 28s-13 38 -13 70v8c-34.667 -32 -77.334 -58.667 -128.001 -80s-107 -32 -169 -32c-73.333 0 -138.166 15.833 -194.499 47.5
s-100 75.667 -131 132s-46.5 120.166 -46.5 191.499c0 66.667 17.167 123.667 51.5 171s83.5 85.333 147.5 114c99.333 44 251.666 66 456.999 66v72c0 42.667 -5.5 74 -16.5 94s-32 33.667 -63 41s-79.833 11 -146.5 11c-32 0 -80.667 -8.16699 -146 -24.5
s-121.333 -35.166 -168 -56.499l-69 200c26.667 16 65.334 33.333 116.001 52s106.334 34.5 167.001 47.5s119 19.5 175 19.5c110.667 0 199.167 -12.167 265.5 -36.5zM685.999 215.499c36.667 13.667 60.667 27.8311 72 42.498v272c-38 0 -80.833 -4.16699 -128.5 -12.5
s-83.167 -17.833 -106.5 -28.5c-30 -11.333 -54 -26.666 -72 -45.999s-27 -48 -27 -86c0 -53.333 14.5 -93.666 43.5 -120.999s66.833 -41 113.5 -41c33.333 0 68.333 6.83301 105 20.5zM233.999 1568.5c16.667 28.333 39.168 51 67.501 68s59.166 25.5 92.499 25.5
c53.333 0 94 -15.5 122 -46.5s42 -71.5 42 -121.5c0 -33.333 -8 -64.166 -24 -92.499s-38 -50.833 -66 -67.5s-59 -25 -93 -25c-50 0 -90.167 15.667 -120.5 47s-45.5 71.666 -45.5 120.999c0 32.667 8.33301 63.167 25 91.5zM719 1568.5c16.667 28.333 39.168 51 67.501 68
s59.166 25.5 92.499 25.5c53.333 0 94 -15.5 122 -46.5s42 -71.5 42 -121.5c0 -33.333 -8 -64.166 -24 -92.499s-38 -50.833 -66 -67.5s-59 -25 -93 -25c-50 0 -90.167 15.667 -120.5 47s-45.5 71.666 -45.5 120.999c0 32.667 8.33301 63.167 25 91.5z" />
    <glyph glyph-name="aring" unicode="&#xe5;" horiz-adv-x="1223" 
d="M872.5 1125.5c66.333 -24.333 115.832 -66.667 148.499 -127s49 -144.833 49 -253.5v-761h-182c-30 0 -52.667 2 -68 6s-27.333 13.333 -36 28s-13 38 -13 70v8c-34.667 -32 -77.334 -58.667 -128.001 -80s-107 -32 -169 -32c-73.333 0 -138.166 15.833 -194.499 47.5
s-100 75.667 -131 132s-46.5 120.166 -46.5 191.499c0 66.667 17.167 123.667 51.5 171s83.5 85.333 147.5 114c99.333 44 251.666 66 456.999 66v72c0 42.667 -5.5 74 -16.5 94s-32 33.667 -63 41s-79.833 11 -146.5 11c-32 0 -80.667 -8.16699 -146 -24.5
s-121.333 -35.166 -168 -56.499l-69 200c26.667 16 65.334 33.333 116.001 52s106.334 34.5 167.001 47.5s119 19.5 175 19.5c110.667 0 199.167 -12.167 265.5 -36.5zM685.999 215.499c36.667 13.667 60.667 27.8311 72 42.498v272c-38 0 -80.833 -4.16699 -128.5 -12.5
s-83.167 -17.833 -106.5 -28.5c-30 -11.333 -54 -26.666 -72 -45.999s-27 -48 -27 -86c0 -53.333 14.5 -93.666 43.5 -120.999s66.833 -41 113.5 -41c33.333 0 68.333 6.83301 105 20.5zM333.499 1764c33 42.667 75.666 73.834 127.999 93.501s108.833 29.5 169.5 29.5
c104.667 0 186.834 -24.333 246.501 -73s89.5 -118.334 89.5 -209.001c0 -65.333 -15.833 -119.833 -47.5 -163.5s-73.667 -76 -126 -97s-109.5 -31.5 -171.5 -31.5c-70 0 -130.333 11.667 -181 35s-89.5 56.5 -116.5 99.5s-40.5 94.167 -40.5 153.5
c0 66 16.5 120.333 49.5 163zM738.498 1703c-30.333 25.333 -69.498 38.001 -117.498 38.001c-44.667 0 -81.334 -10.667 -110.001 -32s-43 -55.666 -43 -102.999c0 -42 14.667 -76 44 -102s67 -39 113 -39c51.333 -0.666992 90.666 9.16602 117.999 29.499
s41 55.166 41 104.499c0 44 -15.167 78.667 -45.5 104z" />
    <glyph glyph-name="ae" unicode="&#xe6;" horiz-adv-x="1851" 
d="M1743 495l-674.001 0.000976562c6 -94 35.5 -164 88.5 -210s124.833 -69 215.5 -69c43.333 0 95.833 5.83301 157.5 17.5s106.834 25.5 135.501 41.5l51 -177c-39.333 -32 -98.333 -59 -177 -81s-160.667 -33 -246 -33c-91.333 0 -172 15 -242 45
s-127.667 73.333 -173 130c-54.667 -62.667 -116 -107.5 -184 -134.5s-141.333 -40.5 -220 -40.5c-69.333 0 -132.333 13.167 -189 39.5s-101.5 65.5 -134.5 117.5s-49.5 115 -49.5 189c0 69.333 19 130.5 57 183.5s90 94.167 156 123.5c54 24 121 41.5 201 52.5
s158.333 16.5 235 16.5v61c0 39.333 -6.5 70.333 -19.5 93s-33.667 39 -62 49s-66.833 15 -115.5 15c-36.667 0 -76.667 -4.33301 -120 -13s-83.833 -19.334 -121.5 -32.001s-65.834 -24.667 -84.501 -36l-69 200c23.333 13.333 57.5 29 102.5 47s99.833 34.5 164.5 49.5
s131.667 22.5 201 22.5c83.333 0 152 -8.66699 206 -26s96.333 -46.666 127 -87.999c92.667 72 208.334 108 347.001 108c82.667 0 157.334 -15 224.001 -45s120.167 -78.333 160.5 -145s61.166 -152.334 62.499 -257.001c0 -96 -3.66699 -167.333 -11 -214zM1465 712.001
c0 72.667 -13.6689 127.833 -41.002 165.5s-71.666 56.5 -132.999 56.5s-110.166 -20.167 -146.499 -60.5s-59.833 -108.833 -70.5 -205.5h390c0.666992 10 1 24.667 1 44zM706.497 226.5c41.667 21 73.167 44.8311 94.5 71.498c-25.333 66 -40 143.333 -44 232
c-45.333 0.666992 -88.166 -3 -128.499 -11s-73.833 -18 -100.5 -30c-22 -9.33301 -40 -18.666 -54 -27.999s-26.167 -23.166 -36.5 -41.499s-15.5 -42.5 -15.5 -72.5c0 -50 14.667 -87.833 44 -113.5s67.666 -38.5 114.999 -38.5c42 0 83.833 10.5 125.5 31.5z" />
    <glyph glyph-name="ccedilla" unicode="&#xe7;" horiz-adv-x="1048" 
d="M867 29c-46 -18.667 -96.6699 -31.667 -152.003 -39c12.667 -26 21.834 -58 27.501 -96s7.83398 -76.333 6.50098 -115c-2.66699 -81.333 -27.834 -142.166 -75.501 -182.499s-107.5 -60.5 -179.5 -60.5c-31.333 0 -66.166 2.83301 -104.499 8.5s-63.5 12.167 -75.5 19.5
l20 165c14.667 -9.33301 40.334 -14 77.001 -14c34 0 62.167 12.667 84.5 38s34.5 62.666 36.5 111.999c0.666992 8 1 19.667 1 35c0 37.333 -4.66699 68 -14 92c-92 14.667 -169.833 48 -233.5 100s-111.334 117.667 -143.001 197s-47.5 168.333 -47.5 267
c0 114.667 21 217.334 63 308.001s105.667 162 191 214s190.333 78 315 78c67.333 0 128.333 -5.83301 183 -17.5s92.334 -25.167 113.001 -40.5l-39 -241c-28.667 15.333 -60.5 26.5 -95.5 33.5s-78.167 10.5 -129.5 10.5c-48 0 -93.667 -10.167 -137 -30.5
s-79.333 -53.333 -108 -99s-44 -104.5 -46 -176.5c-2 -79.333 8.66699 -146 32 -200s56.5 -94.167 99.5 -120.5s92.167 -39.5 147.5 -39.5c50 0 97.833 4.5 143.5 13.5s80.5 20.167 104.5 33.5l45 -185c-27.333 -26.667 -64 -49.334 -110 -68.001z" />
    <glyph glyph-name="egrave" unicode="&#xe8;" horiz-adv-x="1190" 
d="M1082 495l-674 0.00195312c6 -94 35.5 -164 88.5 -210s124.833 -69 215.5 -69c43.333 0 95.833 5.83301 157.5 17.5s106.834 25.5 135.501 41.5l51 -177c-39.333 -32 -98.333 -59 -177 -81s-160.667 -33 -246 -33c-114.667 0 -212.334 23.333 -293.001 70
s-141.667 114.167 -183 202.5s-62 194.166 -62 317.499c0 112 21.667 212 65 300s106.5 157 189.5 207s181.833 75 296.5 75c82.667 0 157.334 -15 224.001 -45s120.167 -78.333 160.5 -145s61.166 -152.334 62.499 -257.001c0 -96 -3.66699 -167.333 -11 -214zM804 712.002
c0 72.667 -13.6689 127.833 -41.002 165.5s-71.666 56.5 -132.999 56.5s-110.166 -20.167 -146.499 -60.5s-59.833 -108.833 -70.5 -205.5h390c0.666992 10 1 24.667 1 44zM473.998 1339c-57.333 44 -112.332 92.998 -164.999 146.998s-89.334 103.333 -110.001 148l215 174
c40.667 -69.333 92.667 -142.666 156 -219.999s125 -143.666 185 -198.999l-149 -137c-30.667 14 -74.667 43 -132 87z" />
    <glyph glyph-name="eacute" unicode="&#xe9;" horiz-adv-x="1190" 
d="M680 1581c59.333 72 113.333 147.667 162 227l214 -174c-18 -42 -53.5 -90.333 -106.5 -145s-109 -104.667 -168 -150s-102.833 -74.333 -131.5 -87l-149 137c60 56 119.667 120 179 192zM1082 495l-674 0.00195312c6 -94 35.5 -164 88.5 -210s124.833 -69 215.5 -69
c43.333 0 95.833 5.83301 157.5 17.5s106.834 25.5 135.501 41.5l51 -177c-39.333 -32 -98.333 -59 -177 -81s-160.667 -33 -246 -33c-114.667 0 -212.334 23.333 -293.001 70s-141.667 114.167 -183 202.5s-62 194.166 -62 317.499c0 112 21.667 212 65 300
s106.5 157 189.5 207s181.833 75 296.5 75c82.667 0 157.334 -15 224.001 -45s120.167 -78.333 160.5 -145s61.166 -152.334 62.499 -257.001c0 -96 -3.66699 -167.333 -11 -214zM804 712.002c0 72.667 -13.6689 127.833 -41.002 165.5s-71.666 56.5 -132.999 56.5
s-110.166 -20.167 -146.499 -60.5s-59.833 -108.833 -70.5 -205.5h390c0.666992 10 1 24.667 1 44z" />
    <glyph glyph-name="ecircumflex" unicode="&#xea;" horiz-adv-x="1190" 
d="M525 1699h223l283 -372l-161 -90l-233 246l-242 -246l-156 89zM1082 495l-674 0.00195312c6 -94 35.5 -164 88.5 -210s124.833 -69 215.5 -69c43.333 0 95.833 5.83301 157.5 17.5s106.834 25.5 135.501 41.5l51 -177c-39.333 -32 -98.333 -59 -177 -81
s-160.667 -33 -246 -33c-114.667 0 -212.334 23.333 -293.001 70s-141.667 114.167 -183 202.5s-62 194.166 -62 317.499c0 112 21.667 212 65 300s106.5 157 189.5 207s181.833 75 296.5 75c82.667 0 157.334 -15 224.001 -45s120.167 -78.333 160.5 -145
s61.166 -152.334 62.499 -257.001c0 -96 -3.66699 -167.333 -11 -214zM804 712.002c0 72.667 -13.6689 127.833 -41.002 165.5s-71.666 56.5 -132.999 56.5s-110.166 -20.167 -146.499 -60.5s-59.833 -108.833 -70.5 -205.5h390c0.666992 10 1 24.667 1 44z" />
    <glyph glyph-name="edieresis" unicode="&#xeb;" horiz-adv-x="1190" 
d="M242 1569.5c16.667 28.333 39.168 51 67.501 68s59.166 25.5 92.499 25.5c53.333 0 94 -15.5 122 -46.5s42 -71.5 42 -121.5c0 -33.333 -8 -64.166 -24 -92.499s-38 -50.833 -66 -67.5s-59 -25 -93 -25c-50 0 -90.167 15.667 -120.5 47s-45.5 71.666 -45.5 120.999
c0 32.667 8.33301 63.167 25 91.5zM727.001 1569.5c16.667 28.333 39.168 51 67.501 68s59.166 25.5 92.499 25.5c53.333 0 94 -15.5 122 -46.5s42 -71.5 42 -121.5c0 -33.333 -8 -64.166 -24 -92.499s-38 -50.833 -66 -67.5s-59 -25 -93 -25
c-50 0 -90.167 15.667 -120.5 47s-45.5 71.666 -45.5 120.999c0 32.667 8.33301 63.167 25 91.5zM1082 495l-674 0.00195312c6 -94 35.5 -164 88.5 -210s124.833 -69 215.5 -69c43.333 0 95.833 5.83301 157.5 17.5s106.834 25.5 135.501 41.5l51 -177
c-39.333 -32 -98.333 -59 -177 -81s-160.667 -33 -246 -33c-114.667 0 -212.334 23.333 -293.001 70s-141.667 114.167 -183 202.5s-62 194.166 -62 317.499c0 112 21.667 212 65 300s106.5 157 189.5 207s181.833 75 296.5 75c82.667 0 157.334 -15 224.001 -45
s120.167 -78.333 160.5 -145s61.166 -152.334 62.499 -257.001c0 -96 -3.66699 -167.333 -11 -214zM804.002 712.002c0 72.667 -13.6689 127.833 -41.002 165.5s-71.666 56.5 -132.999 56.5s-110.166 -20.167 -146.499 -60.5s-59.833 -108.833 -70.5 -205.5h390
c0.666992 10 1 24.667 1 44z" />
    <glyph glyph-name="igrave" unicode="&#xec;" horiz-adv-x="660" 
d="M486 1140v-1140h-312v1140h312zM170 1338c-57.333 44 -112.332 92.998 -164.999 146.998s-89.334 103.333 -110.001 148l215 174c40.667 -69.333 92.667 -142.666 156 -219.999s125 -143.666 185 -198.999l-149 -137c-30.667 14 -74.667 43 -132 87z" />
    <glyph glyph-name="iacute" unicode="&#xed;" horiz-adv-x="660" 
d="M376 1580c59.333 72 113.333 147.667 162 227l214 -174c-18 -42 -53.5 -90.333 -106.5 -145s-109 -104.667 -168 -150s-102.833 -74.333 -131.5 -87l-149 137c60 56 119.667 120 179 192zM486 1140v-1140h-312v1140h312z" />
    <glyph glyph-name="icircumflex" unicode="&#xee;" horiz-adv-x="660" 
d="M221 1698h223l283 -372l-161 -90l-233 246l-242 -246l-156 89zM486 1140v-1140h-312v1140h312z" />
    <glyph glyph-name="idieresis" unicode="&#xef;" horiz-adv-x="660" 
d="M-50 1568.5c16.667 28.333 39.168 51 67.501 68s59.166 25.5 92.499 25.5c53.333 0 94 -15.5 122 -46.5s42 -71.5 42 -121.5c0 -33.333 -8 -64.166 -24 -92.499s-38 -50.833 -66 -67.5s-59 -25 -93 -25c-50 0 -90.167 15.667 -120.5 47s-45.5 71.666 -45.5 120.999
c0 32.667 8.33301 63.167 25 91.5zM411.001 1568.5c16.667 28.333 39.168 51 67.501 68s59.166 25.5 92.499 25.5c53.333 0 94 -15.5 122 -46.5s42 -71.5 42 -121.5c0 -33.333 -8 -64.166 -24 -92.499s-38 -50.833 -66 -67.5s-59 -25 -93 -25
c-50 0 -90.167 15.667 -120.5 47s-45.5 71.666 -45.5 120.999c0 32.667 8.33301 63.167 25 91.5zM486.002 1140v-1140h-312v1140h312z" />
    <glyph glyph-name="eth" unicode="&#xf0;" horiz-adv-x="1294" 
d="M973 1360.5c77.333 -98.333 137.004 -208.83 179.004 -331.497s63 -248.667 63 -378c0 -145.333 -24.833 -269 -74.5 -371s-117.334 -178.667 -203.001 -230s-181.5 -77 -287.5 -77c-111.333 0 -209 24.167 -293 72.5s-148.667 116 -194 203s-68 187.5 -68 301.5
c0 121.333 20.667 227 62 317s101.666 159.5 180.999 208.5s174.666 73.5 285.999 73.5c72 0 136 -17.333 192 -52c-20.667 61.333 -52.834 120.166 -96.501 176.499s-94.167 105.166 -151.5 146.499l-117 -158l-149 99l122 158c-67.333 41.333 -135.333 72 -204 92l53 176
c60 -17.333 111.5 -34.333 154.5 -51s83.5 -35.334 121.5 -56.001l74 100.5l51 71.5l152 -100l-49 -64l-74 -93c102.667 -58 192.667 -136.167 270 -234.5zM778.504 245.503c35 29 62.667 71.5 83 127.5s30.5 123 30.5 201c0 110.667 -2 191.334 -6 242.001
c-18 30.667 -47 57.667 -87 81s-86.333 35 -139 35c-50 0 -93 -15.167 -129 -45.5s-63.667 -74.333 -83 -132s-29 -126.834 -29 -207.501c0 -112 21.167 -197.5 63.5 -256.5s101.5 -88.5 177.5 -88.5c44 0 83.5 14.5 118.5 43.5z" />
    <glyph glyph-name="ntilde" unicode="&#xf1;" horiz-adv-x="1352" 
d="M457 1140l6 -122.001c46 34.667 103.333 66.334 172 95.001s135 44 199 46c82 2.66699 149 -10.166 201 -38.499s90.833 -75.333 116.5 -141s38.5 -153.834 38.5 -264.501v-715h-312v648c0 64.667 -5 114.834 -15 150.501s-27 61.167 -51 76.5s-58 22.333 -102 21
c-33.333 -0.666992 -71 -8.33398 -113 -23.001s-79 -36 -111 -64v-809h-312v1140h283zM428 1635c52 42 114.666 62.9971 187.999 62.9971c42.667 0 77.334 -6.66699 104.001 -20s54.334 -32.333 83.001 -57c21.333 -18 39.5 -31.333 54.5 -40s32.5 -13 52.5 -13
c30 0 57.333 10.333 82 31s49 47.334 73 80.001l126 -108c-24 -69.333 -61.167 -124.666 -111.5 -165.999s-112.5 -62 -186.5 -62c-38.667 0 -70.5 6.33301 -95.5 19s-52.167 31.334 -81.5 56.001c-24.667 20 -45.334 34.667 -62.001 44s-36.667 14 -60 14
c-26 0 -52.5 -10 -79.5 -30s-51.833 -44 -74.5 -72l-125 98c23.333 66.667 61 121 113 163z" />
    <glyph glyph-name="ograve" unicode="&#xf2;" horiz-adv-x="1302" 
d="M168 893.5c48 86.333 114.667 151.669 200 196.002s183.333 66.5 294 66.5c126 0 229.667 -26.5 311 -79.5s140.5 -124 177.5 -213s55.5 -189.5 55.5 -301.5c0 -122.667 -24 -227.334 -72 -314.001s-114.667 -152.334 -200 -197.001s-183 -67 -293 -67
c-126.667 0 -230.667 26.667 -312 80s-140.5 124.833 -177.5 214.5s-55.5 190.5 -55.5 302.5c0 122 24 226.167 72 312.5zM826 827.503c-38 71 -95.667 106.501 -173 106.501c-156 0 -234 -116 -234 -348c0 -70 8.16699 -133.833 24.5 -191.5s42 -103.834 77 -138.501
s78.833 -52 131.5 -52c154 0 231 119 231 357c0 106.667 -19 195.5 -57 266.5zM500 1338c-57.333 44 -112.332 92.998 -164.999 146.998s-89.334 103.333 -110.001 148l215 174c40.667 -69.333 92.667 -142.666 156 -219.999s125 -143.666 185 -198.999l-149 -137
c-30.667 14 -74.667 43 -132 87z" />
    <glyph glyph-name="oacute" unicode="&#xf3;" horiz-adv-x="1302" 
d="M706 1580c59.333 72 113.333 147.667 162 227l214 -174c-18 -42 -53.5 -90.333 -106.5 -145s-109 -104.667 -168 -150s-102.833 -74.333 -131.5 -87l-149 137c60 56 119.667 120 179 192zM168 893.5c48 86.333 114.667 151.669 200 196.002s183.333 66.5 294 66.5
c126 0 229.667 -26.5 311 -79.5s140.5 -124 177.5 -213s55.5 -189.5 55.5 -301.5c0 -122.667 -24 -227.334 -72 -314.001s-114.667 -152.334 -200 -197.001s-183 -67 -293 -67c-126.667 0 -230.667 26.667 -312 80s-140.5 124.833 -177.5 214.5s-55.5 190.5 -55.5 302.5
c0 122 24 226.167 72 312.5zM826 827.503c-38 71 -95.667 106.501 -173 106.501c-156 0 -234 -116 -234 -348c0 -70 8.16699 -133.833 24.5 -191.5s42 -103.834 77 -138.501s78.833 -52 131.5 -52c154 0 231 119 231 357c0 106.667 -19 195.5 -57 266.5z" />
    <glyph glyph-name="ocircumflex" unicode="&#xf4;" horiz-adv-x="1302" 
d="M551 1698h223l283 -372l-161 -90l-233 246l-242 -246l-156 89zM168 893.5c48 86.333 114.667 151.669 200 196.002s183.333 66.5 294 66.5c126 0 229.667 -26.5 311 -79.5s140.5 -124 177.5 -213s55.5 -189.5 55.5 -301.5c0 -122.667 -24 -227.334 -72 -314.001
s-114.667 -152.334 -200 -197.001s-183 -67 -293 -67c-126.667 0 -230.667 26.667 -312 80s-140.5 124.833 -177.5 214.5s-55.5 190.5 -55.5 302.5c0 122 24 226.167 72 312.5zM826 827.503c-38 71 -95.667 106.501 -173 106.501c-156 0 -234 -116 -234 -348
c0 -70 8.16699 -133.833 24.5 -191.5s42 -103.834 77 -138.501s78.833 -52 131.5 -52c154 0 231 119 231 357c0 106.667 -19 195.5 -57 266.5z" />
    <glyph glyph-name="otilde" unicode="&#xf5;" horiz-adv-x="1302" 
d="M168 893.5c48 86.333 114.667 151.669 200 196.002s183.333 66.5 294 66.5c126 0 229.667 -26.5 311 -79.5s140.5 -124 177.5 -213s55.5 -189.5 55.5 -301.5c0 -122.667 -24 -227.334 -72 -314.001s-114.667 -152.334 -200 -197.001s-183 -67 -293 -67
c-126.667 0 -230.667 26.667 -312 80s-140.5 124.833 -177.5 214.5s-55.5 190.5 -55.5 302.5c0 122 24 226.167 72 312.5zM826 827.503c-38 71 -95.667 106.501 -173 106.501c-156 0 -234 -116 -234 -348c0 -70 8.16699 -133.833 24.5 -191.5s42 -103.834 77 -138.501
s78.833 -52 131.5 -52c154 0 231 119 231 357c0 106.667 -19 195.5 -57 266.5zM327 1635c52 42 114.666 62.9971 187.999 62.9971c42.667 0 77.334 -6.66699 104.001 -20s54.334 -32.333 83.001 -57c21.333 -18 39.5 -31.333 54.5 -40s32.5 -13 52.5 -13
c30 0 57.333 10.333 82 31s49 47.334 73 80.001l126 -108c-24 -69.333 -61.167 -124.666 -111.5 -165.999s-112.5 -62 -186.5 -62c-38.667 0 -70.5 6.33301 -95.5 19s-52.167 31.334 -81.5 56.001c-24.667 20 -45.334 34.667 -62.001 44s-36.667 14 -60 14
c-26 0 -52.5 -10 -79.5 -30s-51.833 -44 -74.5 -72l-125 98c23.333 66.667 61 121 113 163z" />
    <glyph glyph-name="odieresis" unicode="&#xf6;" horiz-adv-x="1302" 
d="M268 1568.5c16.667 28.333 39.168 51 67.501 68s59.166 25.5 92.499 25.5c53.333 0 94 -15.5 122 -46.5s42 -71.5 42 -121.5c0 -33.333 -8 -64.166 -24 -92.499s-38 -50.833 -66 -67.5s-59 -25 -93 -25c-50 0 -90.167 15.667 -120.5 47s-45.5 71.666 -45.5 120.999
c0 32.667 8.33301 63.167 25 91.5zM753.001 1568.5c16.667 28.333 39.168 51 67.501 68s59.166 25.5 92.499 25.5c53.333 0 94 -15.5 122 -46.5s42 -71.5 42 -121.5c0 -33.333 -8 -64.166 -24 -92.499s-38 -50.833 -66 -67.5s-59 -25 -93 -25
c-50 0 -90.167 15.667 -120.5 47s-45.5 71.666 -45.5 120.999c0 32.667 8.33301 63.167 25 91.5zM168.002 893.5c48 86.333 114.667 151.669 200 196.002s183.333 66.5 294 66.5c126 0 229.667 -26.5 311 -79.5s140.5 -124 177.5 -213s55.5 -189.5 55.5 -301.5
c0 -122.667 -24 -227.334 -72 -314.001s-114.667 -152.334 -200 -197.001s-183 -67 -293 -67c-126.667 0 -230.667 26.667 -312 80s-140.5 124.833 -177.5 214.5s-55.5 190.5 -55.5 302.5c0 122 24 226.167 72 312.5zM826.002 827.503c-38 71 -95.667 106.501 -173 106.501
c-156 0 -234 -116 -234 -348c0 -70 8.16699 -133.833 24.5 -191.5s42 -103.834 77 -138.501s78.833 -52 131.5 -52c154 0 231 119 231 357c0 106.667 -19 195.5 -57 266.5z" />
    <glyph glyph-name="divide" unicode="&#xf7;" horiz-adv-x="1403" 
d="M555 1315c18.667 31.333 43.832 56.501 75.499 75.501s65.5 28.5 101.5 28.5c57.333 0 102.333 -17.5 135 -52.5s49 -79.833 49 -134.5c0 -37.333 -9.16699 -71.833 -27.5 -103.5s-43.166 -56.834 -74.499 -75.501s-65.333 -28 -102 -28c-35.333 0 -67 8 -95 24
s-50 38.333 -66 67s-24 61 -24 97c0 36.667 9.33301 70.667 28 102zM1200 889.001v-234h-997v234h997zM551.498 427.001c19 31.333 44.165 56.501 75.498 75.501s65.333 28.5 102 28.5c56.667 0 101.334 -17.5 134.001 -52.5s49 -79.833 49 -134.5
c0 -37.333 -9.16699 -71.833 -27.5 -103.5s-43.166 -56.834 -74.499 -75.501s-65.333 -28 -102 -28c-35.333 0 -67 8 -95 24s-50 38.333 -66 67s-24 61 -24 97c0 36.667 9.5 70.667 28.5 102z" />
    <glyph glyph-name="oslash" unicode="&#xf8;" horiz-adv-x="1302" 
d="M1136.5 894c48.333 -100 71.502 -216.001 69.502 -348.001c-1.33301 -119.333 -26.333 -221.166 -75 -305.499s-115.334 -148.166 -200.001 -191.499s-181.334 -65 -290.001 -65c-43.333 0 -86 3.66699 -128 11l-76 -215l-125 32l78 220c-100 44 -174 114.5 -222 211.5
s-72 209.5 -72 337.5c0 122 24 226.167 72 312.5s114.667 151.666 200 195.999s183.333 66.5 294 66.5c46 0 87 -3.33301 123 -10l78 221l125 -32l-80 -225c104 -44 180.167 -116 228.5 -216zM435.502 425.499c11 -49.667 27.5 -91.5 49.5 -125.5l222 627
c-20 4.66699 -38 7 -54 7c-156 0 -234 -116 -234 -348c0 -57.333 5.5 -110.833 16.5 -160.5zM883.002 560.999c0 57.333 -5.66797 110.667 -17.001 160s-28.333 91 -51 125l-225 -633c18.667 -6 39.334 -9 62.001 -9c154 0 231 119 231 357z" />
    <glyph glyph-name="ugrave" unicode="&#xf9;" horiz-adv-x="1326" 
d="M1152 1140l0.00292969 -1156h-206c-26.667 0 -46 3.83301 -58 11.5s-18 23.167 -18 46.5v52c-43.333 -30.667 -96.166 -56.667 -158.499 -78s-120.5 -32 -174.5 -32c-104 0 -183.333 19.667 -238 59s-91.167 93.666 -109.5 162.999s-27.5 158.666 -27.5 267.999v666h312
v-663c0 -71.333 6.16699 -125.166 18.5 -161.499s30.666 -60.833 54.999 -73.5s58.166 -19 101.499 -19c33.333 0 68.666 7 105.999 21s65.666 28.667 84.999 44v852h312zM514.003 1338c-57.333 44 -112.332 92.998 -164.999 146.998s-89.334 103.333 -110.001 148l215 174
c40.667 -69.333 92.667 -142.666 156 -219.999s125 -143.666 185 -198.999l-149 -137c-30.667 14 -74.667 43 -132 87z" />
    <glyph glyph-name="uacute" unicode="&#xfa;" horiz-adv-x="1326" 
d="M720 1580c59.333 72 113.333 147.667 162 227l214 -174c-18 -42 -53.5 -90.333 -106.5 -145s-109 -104.667 -168 -150s-102.833 -74.333 -131.5 -87l-149 137c60 56 119.667 120 179 192zM1152 1140l0.00292969 -1156h-206c-26.667 0 -46 3.83301 -58 11.5
s-18 23.167 -18 46.5v52c-43.333 -30.667 -96.166 -56.667 -158.499 -78s-120.5 -32 -174.5 -32c-104 0 -183.333 19.667 -238 59s-91.167 93.666 -109.5 162.999s-27.5 158.666 -27.5 267.999v666h312v-663c0 -71.333 6.16699 -125.166 18.5 -161.499
s30.666 -60.833 54.999 -73.5s58.166 -19 101.499 -19c33.333 0 68.666 7 105.999 21s65.666 28.667 84.999 44v852h312z" />
    <glyph glyph-name="ucircumflex" unicode="&#xfb;" horiz-adv-x="1326" 
d="M565 1698h223l283 -372l-161 -90l-233 246l-242 -246l-156 89zM1152 1140l0.00292969 -1156h-206c-26.667 0 -46 3.83301 -58 11.5s-18 23.167 -18 46.5v52c-43.333 -30.667 -96.166 -56.667 -158.499 -78s-120.5 -32 -174.5 -32c-104 0 -183.333 19.667 -238 59
s-91.167 93.666 -109.5 162.999s-27.5 158.666 -27.5 267.999v666h312v-663c0 -71.333 6.16699 -125.166 18.5 -161.499s30.666 -60.833 54.999 -73.5s58.166 -19 101.499 -19c33.333 0 68.666 7 105.999 21s65.666 28.667 84.999 44v852h312z" />
    <glyph glyph-name="udieresis" unicode="&#xfc;" horiz-adv-x="1326" 
d="M282 1568.5c16.667 28.333 39.168 51 67.501 68s59.166 25.5 92.499 25.5c53.333 0 94 -15.5 122 -46.5s42 -71.5 42 -121.5c0 -33.333 -8 -64.166 -24 -92.499s-38 -50.833 -66 -67.5s-59 -25 -93 -25c-50 0 -90.167 15.667 -120.5 47s-45.5 71.666 -45.5 120.999
c0 32.667 8.33301 63.167 25 91.5zM767.001 1568.5c16.667 28.333 39.168 51 67.501 68s59.166 25.5 92.499 25.5c53.333 0 94 -15.5 122 -46.5s42 -71.5 42 -121.5c0 -33.333 -8 -64.166 -24 -92.499s-38 -50.833 -66 -67.5s-59 -25 -93 -25
c-50 0 -90.167 15.667 -120.5 47s-45.5 71.666 -45.5 120.999c0 32.667 8.33301 63.167 25 91.5zM1152 1140l0.00292969 -1156h-206c-26.667 0 -46 3.83301 -58 11.5s-18 23.167 -18 46.5v52c-43.333 -30.667 -96.166 -56.667 -158.499 -78s-120.5 -32 -174.5 -32
c-104 0 -183.333 19.667 -238 59s-91.167 93.666 -109.5 162.999s-27.5 158.666 -27.5 267.999v666h312v-663c0 -71.333 6.16699 -125.166 18.5 -161.499s30.666 -60.833 54.999 -73.5s58.166 -19 101.499 -19c33.333 0 68.666 7 105.999 21s65.666 28.667 84.999 44v852
h312z" />
    <glyph glyph-name="yacute" unicode="&#xfd;" horiz-adv-x="1188" 
d="M1162 1140l-355 -1170c-40 -130.667 -93.333 -233.334 -160 -308.001s-141 -124 -223 -148c-17.333 -5.33301 -42.833 -10.166 -76.5 -14.499s-58.834 -6.5 -75.501 -6.5c-17.333 0 -45.666 2.16699 -84.999 6.5s-61.666 8.5 -66.999 12.5v253
c12 -4 31.167 -8.33301 57.5 -13s44.833 -7 55.5 -7c47.333 0 88.166 4.33301 122.499 13s68.333 31.5 102 68.5s60.5 94.833 80.5 173.5h-134l-387 1140h338l173 -609l83 -329l77 329l139 609h335zM658 1580c59.333 72 113.333 147.667 162 227l214 -174
c-18 -42 -53.5 -90.333 -106.5 -145s-109 -104.667 -168 -150s-102.833 -74.333 -131.5 -87l-149 137c60 56 119.667 120 179 192z" />
    <glyph glyph-name="thorn" unicode="&#xfe;" horiz-adv-x="1340" 
d="M1019 1095.5c68.667 -40.333 123.5 -101.332 164.5 -182.999s61.5 -181.834 61.5 -300.501c0 -124.667 -25 -235.167 -75 -331.5s-120.167 -171 -210.5 -224s-193.833 -79.5 -310.5 -79.5c-54 0 -109.667 3.66699 -167 11l4 -157v-338h-318v2168h312v-437l-8 -188
c36 34 79.333 62.5 130 85.5s113.667 34.5 189 34.5c83.333 0 159.333 -20.167 228 -60.5zM861 849.501c-38 49 -93.335 73.499 -166.002 73.499c-41.333 0 -81.166 -6.66699 -119.499 -20s-70.166 -30.333 -95.499 -51v-620c24 -26 82.667 -39 176 -39
c50.667 0 95.667 15.833 135 47.5s70.333 77.834 93 138.501s34 132.667 34 216c0 120.667 -19 205.5 -57 254.5z" />
    <glyph glyph-name="ydieresis" unicode="&#xff;" horiz-adv-x="1188" 
d="M1162 1140l-355 -1170c-40 -130.667 -93.333 -233.334 -160 -308.001s-141 -124 -223 -148c-17.333 -5.33301 -42.833 -10.166 -76.5 -14.499s-58.834 -6.5 -75.501 -6.5c-17.333 0 -45.666 2.16699 -84.999 6.5s-61.666 8.5 -66.999 12.5v253
c12 -4 31.167 -8.33301 57.5 -13s44.833 -7 55.5 -7c47.333 0 88.166 4.33301 122.499 13s68.333 31.5 102 68.5s60.5 94.833 80.5 173.5h-134l-387 1140h338l173 -609l83 -329l77 329l139 609h335zM220 1568.5c16.667 28.333 39.168 51 67.501 68s59.166 25.5 92.499 25.5
c53.333 0 94 -15.5 122 -46.5s42 -71.5 42 -121.5c0 -33.333 -8 -64.166 -24 -92.499s-38 -50.833 -66 -67.5s-59 -25 -93 -25c-50 0 -90.167 15.667 -120.5 47s-45.5 71.666 -45.5 120.999c0 32.667 8.33301 63.167 25 91.5zM705.001 1568.5
c16.667 28.333 39.168 51 67.501 68s59.166 25.5 92.499 25.5c53.333 0 94 -15.5 122 -46.5s42 -71.5 42 -121.5c0 -33.333 -8 -64.166 -24 -92.499s-38 -50.833 -66 -67.5s-59 -25 -93 -25c-50 0 -90.167 15.667 -120.5 47s-45.5 71.666 -45.5 120.999
c0 32.667 8.33301 63.167 25 91.5z" />
    <glyph glyph-name="Amacron" unicode="&#x100;" horiz-adv-x="1421" 
d="M987 322h-559l-101 -322h-342l562 1538h322l567 -1538h-347zM914 551l-165 522l-43 157l-44 -157l-163 -522h415zM1010 1892v-206h-591v206h591z" />
    <glyph glyph-name="amacron" unicode="&#x101;" horiz-adv-x="1223" 
d="M872.5 1125.5c66.333 -24.333 115.832 -66.667 148.499 -127s49 -144.833 49 -253.5v-761h-182c-30 0 -52.667 2 -68 6s-27.333 13.333 -36 28s-13 38 -13 70v8c-34.667 -32 -77.334 -58.667 -128.001 -80s-107 -32 -169 -32c-73.333 0 -138.166 15.833 -194.499 47.5
s-100 75.667 -131 132s-46.5 120.166 -46.5 191.499c0 66.667 17.167 123.667 51.5 171s83.5 85.333 147.5 114c99.333 44 251.666 66 456.999 66v72c0 42.667 -5.5 74 -16.5 94s-32 33.667 -63 41s-79.833 11 -146.5 11c-32 0 -80.667 -8.16699 -146 -24.5
s-121.333 -35.166 -168 -56.499l-69 200c26.667 16 65.334 33.333 116.001 52s106.334 34.5 167.001 47.5s119 19.5 175 19.5c110.667 0 199.167 -12.167 265.5 -36.5zM685.999 215.499c36.667 13.667 60.667 27.8311 72 42.498v272c-38 0 -80.833 -4.16699 -128.5 -12.5
s-83.167 -17.833 -106.5 -28.5c-30 -11.333 -54 -26.666 -72 -45.999s-27 -48 -27 -86c0 -53.333 14.5 -93.666 43.5 -120.999s66.833 -41 113.5 -41c33.333 0 68.333 6.83301 105 20.5zM921.999 1625v-206h-591v206h591z" />
    <glyph glyph-name="Abreve" unicode="&#x102;" horiz-adv-x="1421" 
d="M987 322h-559l-101 -322h-342l562 1538h322l567 -1538h-347zM914 551l-165 522l-43 157l-44 -157l-163 -522h415zM537 1959c2 -23.333 7.00195 -45.167 15.002 -65.5s24.5 -38.333 49.5 -54s61.167 -23.5 108.5 -23.5c109.333 0 168 47.667 176 143h187
c2.66699 -68 -10 -128 -38 -180s-69.833 -92.667 -125.5 -122s-122.167 -44 -199.5 -44c-80.667 0 -148.834 14.5 -204.501 43.5s-96.834 69.5 -123.501 121.5s-38.667 112.333 -36 181h191z" />
    <glyph glyph-name="abreve" unicode="&#x103;" horiz-adv-x="1223" 
d="M872.5 1125.5c66.333 -24.333 115.832 -66.667 148.499 -127s49 -144.833 49 -253.5v-761h-182c-30 0 -52.667 2 -68 6s-27.333 13.333 -36 28s-13 38 -13 70v8c-34.667 -32 -77.334 -58.667 -128.001 -80s-107 -32 -169 -32c-73.333 0 -138.166 15.833 -194.499 47.5
s-100 75.667 -131 132s-46.5 120.166 -46.5 191.499c0 66.667 17.167 123.667 51.5 171s83.5 85.333 147.5 114c99.333 44 251.666 66 456.999 66v72c0 42.667 -5.5 74 -16.5 94s-32 33.667 -63 41s-79.833 11 -146.5 11c-32 0 -80.667 -8.16699 -146 -24.5
s-121.333 -35.166 -168 -56.499l-69 200c26.667 16 65.334 33.333 116.001 52s106.334 34.5 167.001 47.5s119 19.5 175 19.5c110.667 0 199.167 -12.167 265.5 -36.5zM685.999 215.499c36.667 13.667 60.667 27.8311 72 42.498v272c-38 0 -80.833 -4.16699 -128.5 -12.5
s-83.167 -17.833 -106.5 -28.5c-30 -11.333 -54 -26.666 -72 -45.999s-27 -48 -27 -86c0 -53.333 14.5 -93.666 43.5 -120.999s66.833 -41 113.5 -41c33.333 0 68.333 6.83301 105 20.5zM458.999 1684c2.66699 -26.667 7.32812 -51.5 13.9951 -74.5
s22.334 -44.5 47.001 -64.5s60.667 -30 108 -30c46 0 81.333 10 106 30s40.834 41.667 48.501 65s12.834 48 15.501 74h193c2.66699 -70 -10.833 -134.667 -40.5 -194s-72.667 -106.333 -129 -141s-121.166 -52 -194.499 -52c-76.667 0 -143 17.333 -199 52
s-98.167 81.5 -126.5 140.5s-41.166 123.833 -38.499 194.5h196z" />
    <glyph glyph-name="Aogonek" unicode="&#x104;" horiz-adv-x="1421" 
d="M1308 -311c36.667 0 78.3311 6.66699 124.998 20v-157c-28.667 -21.333 -63.5 -38 -104.5 -50s-82.833 -18 -125.5 -18s-83.667 8 -123 24s-71.666 39.167 -96.999 69.5s-39 65.833 -41 106.5c-4 68 15.333 129 58 183s95.334 98.333 158.001 133h-69l-102 322h-559
l-101 -322h-342l562 1538h322l567 -1538h-70c-58.667 -38 -103.167 -72.833 -133.5 -104.5s-45.5 -67.5 -45.5 -107.5c0 -66 40.333 -99 121 -99zM913.997 551l-165 522l-43 157l-44 -157l-163 -522h415z" />
    <glyph glyph-name="aogonek" unicode="&#x105;" horiz-adv-x="1223" 
d="M1083 -291l-0.00292969 -157c-28.667 -21.333 -63.5 -38 -104.5 -50s-82.833 -18 -125.5 -18s-83.667 8 -123 24s-71.666 39.167 -96.999 69.5s-39 65.833 -41 106.5c-4 67.333 14.667 127.5 56 180.5s93 97.167 155 132.5c-21.333 13.333 -32 43.666 -32 90.999v8
c-34.667 -32 -77.334 -58.667 -128.001 -80s-107 -32 -169 -32c-73.333 0 -138.166 15.833 -194.499 47.5s-100 75.667 -131 132s-46.5 120.166 -46.5 191.499c0 66.667 17.167 123.667 51.5 171s83.5 85.333 147.5 114c99.333 44 251.666 66 456.999 66v72
c0 42.667 -5.5 74 -16.5 94s-32 33.667 -63 41s-79.833 11 -146.5 11c-32 0 -80.667 -8.16699 -146 -24.5s-121.333 -35.166 -168 -56.499l-69 200c26.667 16 65.334 33.333 116.001 52s106.334 34.5 167.001 47.5s119 19.5 175 19.5c110.667 0 199.167 -12.167 265.5 -36.5
s115.833 -66.666 148.5 -126.999s49 -144.833 49 -253.5v-761h-78c-50.667 -34.667 -89.167 -67 -115.5 -97s-39.5 -63.333 -39.5 -100c0 -65.333 40.333 -98 121 -98c36.667 0 78.334 6.66699 125.001 20zM685.997 215.5c36.667 13.667 60.667 27.8311 72 42.498v272
c-38 0 -80.833 -4.16699 -128.5 -12.5s-83.167 -17.833 -106.5 -28.5c-30 -11.333 -54 -26.666 -72 -45.999s-27 -48 -27 -86c0 -53.333 14.5 -93.666 43.5 -120.999s66.833 -41 113.5 -41c33.333 0 68.333 6.83301 105 20.5z" />
    <glyph glyph-name="Cacute" unicode="&#x106;" horiz-adv-x="1299" 
d="M1030.5 1527c49 -7.33301 101.499 -17.999 157.499 -31.999c40.667 -9.33301 64.667 -14.666 72 -15.999l-46 -280c-4 2 -21.333 11.5 -52 28.5s-72 31 -124 42s-109.333 16.5 -172 16.5c-82.667 0 -157.167 -20.333 -223.5 -61s-118.666 -99.5 -156.999 -176.5
s-57.5 -167.5 -57.5 -271.5c0 -105.333 18.5 -199.5 55.5 -282.5s90.333 -147.833 160 -194.5s151.834 -70 246.501 -70c43.333 0 88.833 5.16699 136.5 15.5s91 23 130 38s67.833 29.167 86.5 42.5l1 -262c-42 -16.667 -79.167 -30.334 -111.5 -41.001
s-71.5 -19.834 -117.5 -27.501s-97.667 -11.5 -155 -11.5c-154 0 -288.333 32.167 -403 96.5s-202.834 154.833 -264.501 271.5s-92.5 251.667 -92.5 405c0 163.333 32.833 303.833 98.5 421.5s155 207 268 268s239.5 91.5 379.5 91.5c74 0 135.5 -3.66699 184.5 -11z
M867.499 1841c71 71.333 110.164 117.667 117.497 139l217 -131c-29.333 -38 -66.666 -78.833 -111.999 -122.5s-91.166 -82.5 -137.499 -116.5s-85.166 -56.333 -116.499 -67l-146 125z" />
    <glyph glyph-name="cacute" unicode="&#x107;" horiz-adv-x="1048" 
d="M683 1581c59.333 72 113.333 147.667 162 227l214 -174c-18 -42 -53.5 -90.333 -106.5 -145s-109 -104.667 -168 -150s-102.833 -74.333 -131.5 -87l-149 137c60 56 119.667 120 179 192zM847 1138.5c54.667 -11.667 92.3311 -25.168 112.998 -40.501l-39 -241
c-28.667 15.333 -60.5 26.5 -95.5 33.5s-78.167 10.5 -129.5 10.5c-48 0 -93.667 -10.167 -137 -30.5s-79.333 -53.333 -108 -99s-44 -104.5 -46 -176.5c-2 -79.333 8.66699 -146 32 -200s56.5 -94.167 99.5 -120.5s92.167 -39.5 147.5 -39.5c50 0 97.833 4.5 143.5 13.5
s80.5 20.167 104.5 33.5l45 -185c-35.333 -34 -84.666 -61.333 -147.999 -82s-130.666 -31 -201.999 -31c-114.667 0 -212 24.5 -292 73.5s-140 116.667 -180 203s-60 184.833 -60 295.5c0 114.667 21 217.334 63 308.001s105.667 162 191 214s190.333 78 315 78
c67.333 0 128.333 -5.83301 183 -17.5z" />
    <glyph glyph-name="Ccircumflex" unicode="&#x108;" horiz-adv-x="1299" 
d="M1030.5 1527c49 -7.33301 101.499 -17.999 157.499 -31.999c40.667 -9.33301 64.667 -14.666 72 -15.999l-46 -280c-4 2 -21.333 11.5 -52 28.5s-72 31 -124 42s-109.333 16.5 -172 16.5c-82.667 0 -157.167 -20.333 -223.5 -61s-118.666 -99.5 -156.999 -176.5
s-57.5 -167.5 -57.5 -271.5c0 -105.333 18.5 -199.5 55.5 -282.5s90.333 -147.833 160 -194.5s151.834 -70 246.501 -70c43.333 0 88.833 5.16699 136.5 15.5s91 23 130 38s67.833 29.167 86.5 42.5l1 -262c-42 -16.667 -79.167 -30.334 -111.5 -41.001
s-71.5 -19.834 -117.5 -27.501s-97.667 -11.5 -155 -11.5c-154 0 -288.333 32.167 -403 96.5s-202.834 154.833 -264.501 271.5s-92.5 251.667 -92.5 405c0 163.333 32.833 303.833 98.5 421.5s155 207 268 268s239.5 91.5 379.5 91.5c74 0 135.5 -3.66699 184.5 -11z
M721.999 1959h220l276 -308l-165 -92l-221 199l-222 -199l-162 90z" />
    <glyph glyph-name="ccircumflex" unicode="&#x109;" horiz-adv-x="1048" 
d="M528 1699h223l283 -372l-161 -90l-233 246l-242 -246l-156 89zM847 1138.5c54.667 -11.667 92.3311 -25.168 112.998 -40.501l-39 -241c-28.667 15.333 -60.5 26.5 -95.5 33.5s-78.167 10.5 -129.5 10.5c-48 0 -93.667 -10.167 -137 -30.5s-79.333 -53.333 -108 -99
s-44 -104.5 -46 -176.5c-2 -79.333 8.66699 -146 32 -200s56.5 -94.167 99.5 -120.5s92.167 -39.5 147.5 -39.5c50 0 97.833 4.5 143.5 13.5s80.5 20.167 104.5 33.5l45 -185c-35.333 -34 -84.666 -61.333 -147.999 -82s-130.666 -31 -201.999 -31
c-114.667 0 -212 24.5 -292 73.5s-140 116.667 -180 203s-60 184.833 -60 295.5c0 114.667 21 217.334 63 308.001s105.667 162 191 214s190.333 78 315 78c67.333 0 128.333 -5.83301 183 -17.5z" />
    <glyph glyph-name="Cdotaccent" unicode="&#x10a;" horiz-adv-x="1299" 
d="M682.5 1868.5c17 27.667 40.166 49.5 69.499 65.5s61 24 95 24c54.667 0 96.834 -14.833 126.501 -44.5s44.5 -69.5 44.5 -119.5c0 -34 -8.33301 -64.667 -25 -92s-39.5 -49 -68.5 -65s-60.833 -24 -95.5 -24c-51.333 0 -92.833 14.833 -124.5 44.5
s-47.5 69.5 -47.5 119.5c0 33.333 8.5 63.833 25.5 91.5zM1030.5 1527c49 -7.33301 101.499 -17.999 157.499 -31.999c40.667 -9.33301 64.667 -14.666 72 -15.999l-46 -280c-4 2 -21.333 11.5 -52 28.5s-72 31 -124 42s-109.333 16.5 -172 16.5
c-82.667 0 -157.167 -20.333 -223.5 -61s-118.666 -99.5 -156.999 -176.5s-57.5 -167.5 -57.5 -271.5c0 -105.333 18.5 -199.5 55.5 -282.5s90.333 -147.833 160 -194.5s151.834 -70 246.501 -70c43.333 0 88.833 5.16699 136.5 15.5s91 23 130 38s67.833 29.167 86.5 42.5
l1 -262c-42 -16.667 -79.167 -30.334 -111.5 -41.001s-71.5 -19.834 -117.5 -27.501s-97.667 -11.5 -155 -11.5c-154 0 -288.333 32.167 -403 96.5s-202.834 154.833 -264.501 271.5s-92.5 251.667 -92.5 405c0 163.333 32.833 303.833 98.5 421.5s155 207 268 268
s239.5 91.5 379.5 91.5c74 0 135.5 -3.66699 184.5 -11z" />
    <glyph glyph-name="cdotaccent" unicode="&#x10b;" horiz-adv-x="1048" 
d="M847 1138.5c54.667 -11.667 92.3311 -25.168 112.998 -40.501l-39 -241c-28.667 15.333 -60.5 26.5 -95.5 33.5s-78.167 10.5 -129.5 10.5c-48 0 -93.667 -10.167 -137 -30.5s-79.333 -53.333 -108 -99s-44 -104.5 -46 -176.5c-2 -79.333 8.66699 -146 32 -200
s56.5 -94.167 99.5 -120.5s92.167 -39.5 147.5 -39.5c50 0 97.833 4.5 143.5 13.5s80.5 20.167 104.5 33.5l45 -185c-35.333 -34 -84.666 -61.333 -147.999 -82s-130.666 -31 -201.999 -31c-114.667 0 -212 24.5 -292 73.5s-140 116.667 -180 203s-60 184.833 -60 295.5
c0 114.667 21 217.334 63 308.001s105.667 162 191 214s190.333 78 315 78c67.333 0 128.333 -5.83301 183 -17.5zM470.997 1571c18.667 28.667 43.3311 51.5 73.998 68.5s63 25.5 97 25.5c54.667 0 98.334 -15.833 131.001 -47.5s49 -72.5 49 -122.5
c0 -33.333 -9.16699 -64.5 -27.5 -93.5s-42.666 -52 -72.999 -69s-62.833 -25.5 -97.5 -25.5c-34 0 -64.667 7.33301 -92 22s-49 35 -65 61s-24 55.333 -24 88c0 33.333 9.33301 64.333 28 93z" />
    <glyph glyph-name="Ccaron" unicode="&#x10c;" horiz-adv-x="1299" 
d="M1030.5 1527c49 -7.33301 101.499 -17.999 157.499 -31.999c40.667 -9.33301 64.667 -14.666 72 -15.999l-46 -280c-4 2 -21.333 11.5 -52 28.5s-72 31 -124 42s-109.333 16.5 -172 16.5c-82.667 0 -157.167 -20.333 -223.5 -61s-118.666 -99.5 -156.999 -176.5
s-57.5 -167.5 -57.5 -271.5c0 -105.333 18.5 -199.5 55.5 -282.5s90.333 -147.833 160 -194.5s151.834 -70 246.501 -70c43.333 0 88.833 5.16699 136.5 15.5s91 23 130 38s67.833 29.167 86.5 42.5l1 -262c-42 -16.667 -79.167 -30.334 -111.5 -41.001
s-71.5 -19.834 -117.5 -27.501s-97.667 -11.5 -155 -11.5c-154 0 -288.333 32.167 -403 96.5s-202.834 154.833 -264.501 271.5s-92.5 251.667 -92.5 405c0 163.333 32.833 303.833 98.5 421.5s155 207 268 268s239.5 91.5 379.5 91.5c74 0 135.5 -3.66699 184.5 -11z
M612.999 1960l220 -181l223 181l154 -91l-267 -293h-219l-268 292z" />
    <glyph glyph-name="ccaron" unicode="&#x10d;" horiz-adv-x="1048" 
d="M636 1467l233 246l161 -90l-283 -372h-223l-286 373l156 89zM847 1138.5c54.667 -11.667 92.3311 -25.168 112.998 -40.501l-39 -241c-28.667 15.333 -60.5 26.5 -95.5 33.5s-78.167 10.5 -129.5 10.5c-48 0 -93.667 -10.167 -137 -30.5s-79.333 -53.333 -108 -99
s-44 -104.5 -46 -176.5c-2 -79.333 8.66699 -146 32 -200s56.5 -94.167 99.5 -120.5s92.167 -39.5 147.5 -39.5c50 0 97.833 4.5 143.5 13.5s80.5 20.167 104.5 33.5l45 -185c-35.333 -34 -84.666 -61.333 -147.999 -82s-130.666 -31 -201.999 -31
c-114.667 0 -212 24.5 -292 73.5s-140 116.667 -180 203s-60 184.833 -60 295.5c0 114.667 21 217.334 63 308.001s105.667 162 191 214s190.333 78 315 78c67.333 0 128.333 -5.83301 183 -17.5z" />
    <glyph glyph-name="Dcaron" unicode="&#x10e;" horiz-adv-x="1554" 
d="M547 1960l220 -181l223 181l154 -91l-267 -293h-219l-268 292zM339 1522c21.333 0 64.001 2.00098 128.001 6.00098c89.333 6.66699 169.666 10 240.999 10c250 0 436.833 -63.333 560.5 -190s185.5 -309 185.5 -547c0 -170 -31 -316.333 -93 -439
s-150.167 -216.334 -264.5 -281.001s-248.833 -97 -403.5 -97c-48 0 -119.333 3 -214 9c-58 4.66699 -103.667 7 -137 7h-154v1522h151zM1010.5 361.501c71.667 87.667 107.499 222.832 107.499 405.499c0 130.667 -15.833 234.834 -47.5 312.501s-79.5 133.5 -143.5 167.5
s-147 51 -249 51c-35.333 0 -78.333 -3.33301 -129 -10l-40 -4v-1038c45.333 -12 113.333 -18 204 -18c126.667 1.33301 225.834 45.833 297.501 133.5z" />
    <glyph glyph-name="dcaron" unicode="&#x10f;" horiz-adv-x="1647" 
d="M1171 1662l-0.00195312 -1678h-212c-25.333 0 -44.166 3.83301 -56.499 11.5s-18.5 23.167 -18.5 46.5v77c-36.667 -37.333 -81.167 -69.166 -133.5 -95.499s-119.5 -39.5 -201.5 -39.5c-83.333 0 -159.333 20.5 -228 61.5s-123.5 102.833 -164.5 185.5
s-61.5 183.334 -61.5 302.001c0 124.667 24.167 234 72.5 328s116.333 166.667 204 218s188.834 77 303.501 77c68 0 130.333 -10.667 187 -32l-3 100v438h312zM479.498 300.998c38.333 -49.333 93.501 -74.001 165.501 -74.001c40.667 0 80.167 5.66699 118.5 17
s70.166 25.666 95.499 42.999v615c-18.667 12.667 -42.334 21.167 -71.001 25.5s-63.334 6.5 -104.001 6.5c-51.333 0 -96.666 -14.333 -135.999 -43s-70.166 -71.667 -92.499 -129s-33.5 -127.666 -33.5 -210.999c0 -117.333 19.167 -200.666 57.5 -249.999zM1389 1061
c6.66699 31.333 12.168 74.999 16.501 130.999s6.16602 111 5.49902 165c0 44.667 -5.83301 87.834 -17.5 129.501s-25.5 70.834 -41.5 87.501l12 64l215 70c47.333 -44.667 71 -134 71 -268c0 -54.667 -6.16699 -111.5 -18.5 -170.5s-27.833 -111.833 -46.5 -158.5
s-37 -80.334 -55 -101.001l-133 28z" />
    <glyph glyph-name="Dcroat" unicode="&#x110;" horiz-adv-x="1554" 
d="M1268.5 1348c123.667 -126.667 185.501 -308.999 185.501 -546.999c0 -170 -31 -316.333 -93 -439s-150.167 -216.334 -264.5 -281.001s-248.833 -97 -403.5 -97c-48 0 -119.333 3 -214 9c-58 4.66699 -103.667 7 -137 7h-154v694h-119v201h119v627h151
c21.333 0 64 2 128 6c89.333 6.66699 169.666 10 240.999 10c250 0 436.833 -63.333 560.5 -190zM1010.5 361.501c71.667 87.667 107.499 222.832 107.499 405.499c0 130.667 -15.833 234.834 -47.5 312.501s-79.5 133.5 -143.5 167.5s-147 51 -249 51
c-35.333 0 -78.333 -3.33301 -129 -10l-40 -4v-389h337v-201h-337v-448c45.333 -12 113.333 -18 204 -18c126.667 1.33301 225.834 45.833 297.501 133.5z" />
    <glyph glyph-name="dcroat" unicode="&#x111;" horiz-adv-x="1339" 
d="M1299 1293l-128.002 -0.00195312v-1309h-212c-25.333 0 -44.166 3.83301 -56.499 11.5s-18.5 23.167 -18.5 46.5v77c-36.667 -37.333 -81.167 -69.166 -133.5 -95.499s-119.5 -39.5 -201.5 -39.5c-83.333 0 -159.333 20.5 -228 61.5s-123.5 102.833 -164.5 185.5
s-61.5 183.334 -61.5 302.001c0 124.667 24.167 234 72.5 328s116.333 166.667 204 218s188.834 77 303.501 77c68 0 130.333 -10.667 187 -32l-3 100v69h-227v180h227v189h312v-189h128v-180zM479.498 300.998c38.333 -49.333 93.501 -74.001 165.501 -74.001
c40.667 0 80.167 5.66699 118.5 17s70.166 25.666 95.499 42.999v615c-18.667 12.667 -42.334 21.167 -71.001 25.5s-63.334 6.5 -104.001 6.5c-51.333 0 -96.666 -14.333 -135.999 -43s-70.166 -71.667 -92.499 -129s-33.5 -127.666 -33.5 -210.999
c0 -117.333 19.167 -200.666 57.5 -249.999z" />
    <glyph glyph-name="Emacron" unicode="&#x112;" horiz-adv-x="1254" 
d="M999 1892v-206h-591v206h591zM1116 1522v-244h-610v-378h468v-241h-468v-408h675v-251h-993v1522h928z" />
    <glyph glyph-name="emacron" unicode="&#x113;" horiz-adv-x="1190" 
d="M1082 495l-674 0.00195312c6 -94 35.5 -164 88.5 -210s124.833 -69 215.5 -69c43.333 0 95.833 5.83301 157.5 17.5s106.834 25.5 135.501 41.5l51 -177c-39.333 -32 -98.333 -59 -177 -81s-160.667 -33 -246 -33c-114.667 0 -212.334 23.333 -293.001 70
s-141.667 114.167 -183 202.5s-62 194.166 -62 317.499c0 112 21.667 212 65 300s106.5 157 189.5 207s181.833 75 296.5 75c82.667 0 157.334 -15 224.001 -45s120.167 -78.333 160.5 -145s61.166 -152.334 62.499 -257.001c0 -96 -3.66699 -167.333 -11 -214zM804 712.002
c0 72.667 -13.6689 127.833 -41.002 165.5s-71.666 56.5 -132.999 56.5s-110.166 -20.167 -146.499 -60.5s-59.833 -108.833 -70.5 -205.5h390c0.666992 10 1 24.667 1 44zM929.998 1626v-206h-591v206h591z" />
    <glyph glyph-name="Ebreve" unicode="&#x114;" horiz-adv-x="1254" 
d="M526 1959c2 -23.333 7.00195 -45.167 15.002 -65.5s24.5 -38.333 49.5 -54s61.167 -23.5 108.5 -23.5c109.333 0 168 47.667 176 143h187c2.66699 -68 -10 -128 -38 -180s-69.833 -92.667 -125.5 -122s-122.167 -44 -199.5 -44c-80.667 0 -148.834 14.5 -204.501 43.5
s-96.834 69.5 -123.501 121.5s-38.667 112.333 -36 181h191zM1116 1522v-244h-610v-378h468v-241h-468v-408h675v-251h-993v1522h928z" />
    <glyph glyph-name="ebreve" unicode="&#x115;" horiz-adv-x="1190" 
d="M1082 495l-674 0.00195312c6 -94 35.5 -164 88.5 -210s124.833 -69 215.5 -69c43.333 0 95.833 5.83301 157.5 17.5s106.834 25.5 135.501 41.5l51 -177c-39.333 -32 -98.333 -59 -177 -81s-160.667 -33 -246 -33c-114.667 0 -212.334 23.333 -293.001 70
s-141.667 114.167 -183 202.5s-62 194.166 -62 317.499c0 112 21.667 212 65 300s106.5 157 189.5 207s181.833 75 296.5 75c82.667 0 157.334 -15 224.001 -45s120.167 -78.333 160.5 -145s61.166 -152.334 62.499 -257.001c0 -96 -3.66699 -167.333 -11 -214zM804 712.002
c0 72.667 -13.6689 127.833 -41.002 165.5s-71.666 56.5 -132.999 56.5s-110.166 -20.167 -146.499 -60.5s-59.833 -108.833 -70.5 -205.5h390c0.666992 10 1 24.667 1 44zM466.998 1685c2.66699 -26.667 7.32812 -51.5 13.9951 -74.5s22.334 -44.5 47.001 -64.5
s60.667 -30 108 -30c46 0 81.333 10 106 30s40.834 41.667 48.501 65s12.834 48 15.501 74h193c2.66699 -70 -10.833 -134.667 -40.5 -194s-72.667 -106.333 -129 -141s-121.166 -52 -194.499 -52c-76.667 0 -143 17.333 -199 52s-98.167 81.5 -126.5 140.5
s-41.166 123.833 -38.499 194.5h196z" />
    <glyph glyph-name="Edotaccent" unicode="&#x116;" horiz-adv-x="1254" 
d="M550.5 1868.5c17 27.667 40.166 49.5 69.499 65.5s61 24 95 24c54.667 0 96.834 -14.833 126.501 -44.5s44.5 -69.5 44.5 -119.5c0 -34 -8.33301 -64.667 -25 -92s-39.5 -49 -68.5 -65s-60.833 -24 -95.5 -24c-51.333 0 -92.833 14.833 -124.5 44.5
s-47.5 69.5 -47.5 119.5c0 33.333 8.5 63.833 25.5 91.5zM1116 1522v-244h-610v-378h468v-241h-468v-408h675v-251h-993v1522h928z" />
    <glyph glyph-name="edotaccent" unicode="&#x117;" horiz-adv-x="1190" 
d="M1082 495l-674 0.00195312c6 -94 35.5 -164 88.5 -210s124.833 -69 215.5 -69c43.333 0 95.833 5.83301 157.5 17.5s106.834 25.5 135.501 41.5l51 -177c-39.333 -32 -98.333 -59 -177 -81s-160.667 -33 -246 -33c-114.667 0 -212.334 23.333 -293.001 70
s-141.667 114.167 -183 202.5s-62 194.166 -62 317.499c0 112 21.667 212 65 300s106.5 157 189.5 207s181.833 75 296.5 75c82.667 0 157.334 -15 224.001 -45s120.167 -78.333 160.5 -145s61.166 -152.334 62.499 -257.001c0 -96 -3.66699 -167.333 -11 -214zM804 712.002
c0 72.667 -13.6689 127.833 -41.002 165.5s-71.666 56.5 -132.999 56.5s-110.166 -20.167 -146.499 -60.5s-59.833 -108.833 -70.5 -205.5h390c0.666992 10 1 24.667 1 44zM467.998 1571c18.667 28.667 43.3311 51.5 73.998 68.5s63 25.5 97 25.5
c54.667 0 98.334 -15.833 131.001 -47.5s49 -72.5 49 -122.5c0 -33.333 -9.16699 -64.5 -27.5 -93.5s-42.666 -52 -72.999 -69s-62.833 -25.5 -97.5 -25.5c-34 0 -64.667 7.33301 -92 22s-49 35 -65 61s-24 55.333 -24 88c0 33.333 9.33301 64.333 28 93z" />
    <glyph glyph-name="Eogonek" unicode="&#x118;" horiz-adv-x="1254" 
d="M1187 -291l-0.00292969 -157c-28.667 -21.333 -63.5 -38 -104.5 -50s-82.833 -18 -125.5 -18s-83.667 8 -123 24s-71.666 39.167 -96.999 69.5s-39 65.833 -41 106.5c-4 68 15.333 129 58 183s95.334 98.333 158.001 133h-724v1522h928v-244h-610v-378h468v-241h-468
v-408h675v-251h-61c-58.667 -38 -103.167 -72.833 -133.5 -104.5s-45.5 -67.5 -45.5 -107.5c0 -66 40.333 -99 121 -99c36.667 0 78.334 6.66699 125.001 20z" />
    <glyph glyph-name="eogonek" unicode="&#x119;" horiz-adv-x="1190" 
d="M1082 495l-674.003 0.00195312c6 -94 35.5 -164 88.5 -210s124.833 -69 215.5 -69c43.333 0 95.833 5.83301 157.5 17.5s106.834 25.5 135.501 41.5l51 -177c-2 -2 -4 -3.5 -6 -4.5s-3.66699 -2.16699 -5 -3.5h1c-61.333 -45.333 -113.166 -93.5 -155.499 -144.5
s-63.5 -107.167 -63.5 -168.5c1.33301 -30.667 12.833 -53 34.5 -67s50.5 -21 86.5 -21c36.667 0 78.334 6.66699 125.001 20v-157c-28.667 -21.333 -63.5 -38 -104.5 -50s-82.833 -18 -125.5 -18s-83.667 8 -123 24s-71.666 39.167 -96.999 69.5s-39 65.833 -41 106.5
c-4 64 10 122.5 42 175.5s73.667 96.833 125 131.5c-44 -4.66699 -82.667 -7 -116 -7c-114.667 0 -212.334 23.333 -293.001 70s-141.667 114.167 -183 202.5s-62 194.166 -62 317.499c0 112 21.667 212 65 300s106.5 157 189.5 207s181.833 75 296.5 75
c82.667 0 157.334 -15 224.001 -45s120.167 -78.333 160.5 -145s61.166 -152.334 62.499 -257.001c0 -96 -3.66699 -167.333 -11 -214zM803.997 712.002c0 72.667 -13.6689 127.833 -41.002 165.5s-71.666 56.5 -132.999 56.5s-110.166 -20.167 -146.499 -60.5
s-59.833 -108.833 -70.5 -205.5h390c0.666992 10 1 24.667 1 44z" />
    <glyph glyph-name="Ecaron" unicode="&#x11a;" horiz-adv-x="1254" 
d="M481 1960l220 -181l223 181l154 -91l-267 -293h-219l-268 292zM1116 1522v-244h-610v-378h468v-241h-468v-408h675v-251h-993v1522h928z" />
    <glyph glyph-name="ecaron" unicode="&#x11b;" horiz-adv-x="1190" 
d="M633 1467l233 246l161 -90l-283 -372h-223l-286 373l156 89zM1082 495l-674 0.00195312c6 -94 35.5 -164 88.5 -210s124.833 -69 215.5 -69c43.333 0 95.833 5.83301 157.5 17.5s106.834 25.5 135.501 41.5l51 -177c-39.333 -32 -98.333 -59 -177 -81
s-160.667 -33 -246 -33c-114.667 0 -212.334 23.333 -293.001 70s-141.667 114.167 -183 202.5s-62 194.166 -62 317.499c0 112 21.667 212 65 300s106.5 157 189.5 207s181.833 75 296.5 75c82.667 0 157.334 -15 224.001 -45s120.167 -78.333 160.5 -145
s61.166 -152.334 62.499 -257.001c0 -96 -3.66699 -167.333 -11 -214zM804 712.002c0 72.667 -13.6689 127.833 -41.002 165.5s-71.666 56.5 -132.999 56.5s-110.166 -20.167 -146.499 -60.5s-59.833 -108.833 -70.5 -205.5h390c0.666992 10 1 24.667 1 44z" />
    <glyph glyph-name="Gcircumflex" unicode="&#x11c;" horiz-adv-x="1494" 
d="M1372 820l-0.00195312 -729.998c-13.333 -0.666992 -27.666 -3.33398 -42.999 -8.00098s-36.666 -11.667 -63.999 -21c-67.333 -23.333 -133.166 -42 -197.499 -56s-144.5 -21 -240.5 -21c-152 0 -282.667 31.5 -392 94.5s-192.5 152.333 -249.5 268
s-85.5 251.167 -85.5 406.5c0 176 32.833 322.667 98.5 440s155.5 204.166 269.5 260.499s244.333 84.5 391 84.5c77.333 0 139.333 -3.33301 186 -10s97.667 -16.667 153 -30c34 -8.66699 64.333 -15.334 91 -20.001l-10 -273c-56 26.667 -114.333 46.834 -175 60.501
s-142 20.5 -244 20.5c-88 0 -164.167 -20.167 -228.5 -60.5s-113.833 -98.333 -148.5 -174s-52 -166.167 -52 -271.5s14 -199.5 42 -282.5s70.667 -148.667 128 -197s128.666 -72.5 213.999 -72.5c102 0 187 12.667 255 38v305l-233 12v237h535zM730.998 1960h220l276 -308
l-165 -92l-221 199l-222 -199l-162 90z" />
    <glyph glyph-name="gcircumflex" unicode="&#x11d;" horiz-adv-x="1305" 
d="M524 1699h223l283 -372l-161 -90l-233 246l-242 -246l-156 89zM1288 914l-188.999 -0.00292969c13.333 -38.667 20 -82 20 -130c0 -122 -44.167 -215 -132.5 -279s-213.166 -96 -374.499 -96c-37.333 0 -70.333 2.33301 -99 7c-14 -11.333 -24.667 -25.166 -32 -41.499
s-11 -33.5 -11 -51.5c0 -32 10 -53.333 30 -64s55 -16 105 -16h190c168 0 283.167 -32.5 345.5 -97.5s93.5 -147.5 93.5 -247.5c0 -85.333 -27.167 -159.333 -81.5 -222s-126.5 -110.334 -216.5 -143.001s-187 -49 -291 -49c-176.667 0 -313.167 28.5 -409.5 85.5
s-144.5 139.5 -144.5 247.5c0 52.667 16.167 99.5 48.5 140.5s74.833 73.167 127.5 96.5c-32 16.667 -55.5 40.334 -70.5 71.001s-22.5 63.667 -22.5 99c0 45.333 14 89 42 131s74.667 76.333 140 103c-72.667 31.333 -129.834 74.833 -171.501 130.5
s-62.5 117.834 -62.5 186.501c0 130.667 44.667 226.834 134 288.501s214.666 92.5 375.999 92.5c147.333 0 262.333 -27.667 345 -83c22 19.333 48.333 35.333 79 48s65.667 19 105 19h127v-226zM769.501 637.997c36.333 25.333 54.501 71 54.501 137
c0 62 -16.167 108.833 -48.5 140.5s-80.5 47.5 -144.5 47.5c-64.667 0 -115.5 -13.833 -152.5 -41.5s-55.5 -75.167 -55.5 -142.5c0 -56 16.667 -99.833 50 -131.5s81.333 -47.5 144 -47.5c65.333 0 116.166 12.667 152.499 38zM505.002 -0.00292969
c-14.667 0 -35.334 0.666992 -62.001 2c-28 -25.333 -42 -64 -42 -116c0 -62.667 19.5 -114.667 58.5 -156s100.833 -62 185.5 -62c88 0 156.833 13.5 206.5 40.5s74.5 69.5 74.5 127.5c0 39.333 -6 70.5 -18 93.5s-36.667 40.5 -74 52.5s-92.666 18 -165.999 18h-163z" />
    <glyph glyph-name="Gbreve" unicode="&#x11e;" horiz-adv-x="1494" 
d="M667 1960c2 -23.333 7.00195 -45.167 15.002 -65.5s24.5 -38.333 49.5 -54s61.167 -23.5 108.5 -23.5c109.333 0 168 47.667 176 143h187c2.66699 -68 -10 -128 -38 -180s-69.833 -92.667 -125.5 -122s-122.167 -44 -199.5 -44c-80.667 0 -148.834 14.5 -204.501 43.5
s-96.834 69.5 -123.501 121.5s-38.667 112.333 -36 181h191zM1372 819.999l-0.00195312 -729.998c-13.333 -0.666992 -27.666 -3.33398 -42.999 -8.00098s-36.666 -11.667 -63.999 -21c-67.333 -23.333 -133.166 -42 -197.499 -56s-144.5 -21 -240.5 -21
c-152 0 -282.667 31.5 -392 94.5s-192.5 152.333 -249.5 268s-85.5 251.167 -85.5 406.5c0 176 32.833 322.667 98.5 440s155.5 204.166 269.5 260.499s244.333 84.5 391 84.5c77.333 0 139.333 -3.33301 186 -10s97.667 -16.667 153 -30
c34 -8.66699 64.333 -15.334 91 -20.001l-10 -273c-56 26.667 -114.333 46.834 -175 60.501s-142 20.5 -244 20.5c-88 0 -164.167 -20.167 -228.5 -60.5s-113.833 -98.333 -148.5 -174s-52 -166.167 -52 -271.5s14 -199.5 42 -282.5s70.667 -148.667 128 -197
s128.666 -72.5 213.999 -72.5c102 0 187 12.667 255 38v305l-233 12v237h535z" />
    <glyph glyph-name="gbreve" unicode="&#x11f;" horiz-adv-x="1305" 
d="M1288 914l-188.999 -0.00292969c13.333 -38.667 20 -82 20 -130c0 -122 -44.167 -215 -132.5 -279s-213.166 -96 -374.499 -96c-37.333 0 -70.333 2.33301 -99 7c-14 -11.333 -24.667 -25.166 -32 -41.499s-11 -33.5 -11 -51.5c0 -32 10 -53.333 30 -64s55 -16 105 -16
h190c168 0 283.167 -32.5 345.5 -97.5s93.5 -147.5 93.5 -247.5c0 -85.333 -27.167 -159.333 -81.5 -222s-126.5 -110.334 -216.5 -143.001s-187 -49 -291 -49c-176.667 0 -313.167 28.5 -409.5 85.5s-144.5 139.5 -144.5 247.5c0 52.667 16.167 99.5 48.5 140.5
s74.833 73.167 127.5 96.5c-32 16.667 -55.5 40.334 -70.5 71.001s-22.5 63.667 -22.5 99c0 45.333 14 89 42 131s74.667 76.333 140 103c-72.667 31.333 -129.834 74.833 -171.501 130.5s-62.5 117.834 -62.5 186.501c0 130.667 44.667 226.834 134 288.501
s214.666 92.5 375.999 92.5c147.333 0 262.333 -27.667 345 -83c22 19.333 48.333 35.333 79 48s65.667 19 105 19h127v-226zM769.501 637.997c36.333 25.333 54.501 71 54.501 137c0 62 -16.167 108.833 -48.5 140.5s-80.5 47.5 -144.5 47.5
c-64.667 0 -115.5 -13.833 -152.5 -41.5s-55.5 -75.167 -55.5 -142.5c0 -56 16.667 -99.833 50 -131.5s81.333 -47.5 144 -47.5c65.333 0 116.166 12.667 152.499 38zM505.002 -0.00292969c-14.667 0 -35.334 0.666992 -62.001 2c-28 -25.333 -42 -64 -42 -116
c0 -62.667 19.5 -114.667 58.5 -156s100.833 -62 185.5 -62c88 0 156.833 13.5 206.5 40.5s74.5 69.5 74.5 127.5c0 39.333 -6 70.5 -18 93.5s-36.667 40.5 -74 52.5s-92.666 18 -165.999 18h-163zM466.002 1685c2.66699 -26.667 7.32812 -51.5 13.9951 -74.5
s22.334 -44.5 47.001 -64.5s60.667 -30 108 -30c46 0 81.333 10 106 30s40.834 41.667 48.501 65s12.834 48 15.501 74h193c2.66699 -70 -10.833 -134.667 -40.5 -194s-72.667 -106.333 -129 -141s-121.166 -52 -194.499 -52c-76.667 0 -143 17.333 -199 52
s-98.167 81.5 -126.5 140.5s-41.166 123.833 -38.499 194.5h196z" />
    <glyph glyph-name="Gdotaccent" unicode="&#x120;" horiz-adv-x="1494" 
d="M691.5 1869.5c17 27.667 40.166 49.5 69.499 65.5s61 24 95 24c54.667 0 96.834 -14.833 126.501 -44.5s44.5 -69.5 44.5 -119.5c0 -34 -8.33301 -64.667 -25 -92s-39.5 -49 -68.5 -65s-60.833 -24 -95.5 -24c-51.333 0 -92.833 14.833 -124.5 44.5
s-47.5 69.5 -47.5 119.5c0 33.333 8.5 63.833 25.5 91.5zM1372 820l-0.00195312 -729.998c-13.333 -0.666992 -27.666 -3.33398 -42.999 -8.00098s-36.666 -11.667 -63.999 -21c-67.333 -23.333 -133.166 -42 -197.499 -56s-144.5 -21 -240.5 -21
c-152 0 -282.667 31.5 -392 94.5s-192.5 152.333 -249.5 268s-85.5 251.167 -85.5 406.5c0 176 32.833 322.667 98.5 440s155.5 204.166 269.5 260.499s244.333 84.5 391 84.5c77.333 0 139.333 -3.33301 186 -10s97.667 -16.667 153 -30
c34 -8.66699 64.333 -15.334 91 -20.001l-10 -273c-56 26.667 -114.333 46.834 -175 60.501s-142 20.5 -244 20.5c-88 0 -164.167 -20.167 -228.5 -60.5s-113.833 -98.333 -148.5 -174s-52 -166.167 -52 -271.5s14 -199.5 42 -282.5s70.667 -148.667 128 -197
s128.666 -72.5 213.999 -72.5c102 0 187 12.667 255 38v305l-233 12v237h535z" />
    <glyph glyph-name="gdotaccent" unicode="&#x121;" horiz-adv-x="1305" 
d="M1288 914l-188.999 -0.00292969c13.333 -38.667 20 -82 20 -130c0 -122 -44.167 -215 -132.5 -279s-213.166 -96 -374.499 -96c-37.333 0 -70.333 2.33301 -99 7c-14 -11.333 -24.667 -25.166 -32 -41.499s-11 -33.5 -11 -51.5c0 -32 10 -53.333 30 -64s55 -16 105 -16
h190c168 0 283.167 -32.5 345.5 -97.5s93.5 -147.5 93.5 -247.5c0 -85.333 -27.167 -159.333 -81.5 -222s-126.5 -110.334 -216.5 -143.001s-187 -49 -291 -49c-176.667 0 -313.167 28.5 -409.5 85.5s-144.5 139.5 -144.5 247.5c0 52.667 16.167 99.5 48.5 140.5
s74.833 73.167 127.5 96.5c-32 16.667 -55.5 40.334 -70.5 71.001s-22.5 63.667 -22.5 99c0 45.333 14 89 42 131s74.667 76.333 140 103c-72.667 31.333 -129.834 74.833 -171.501 130.5s-62.5 117.834 -62.5 186.501c0 130.667 44.667 226.834 134 288.501
s214.666 92.5 375.999 92.5c147.333 0 262.333 -27.667 345 -83c22 19.333 48.333 35.333 79 48s65.667 19 105 19h127v-226zM769.501 637.997c36.333 25.333 54.501 71 54.501 137c0 62 -16.167 108.833 -48.5 140.5s-80.5 47.5 -144.5 47.5
c-64.667 0 -115.5 -13.833 -152.5 -41.5s-55.5 -75.167 -55.5 -142.5c0 -56 16.667 -99.833 50 -131.5s81.333 -47.5 144 -47.5c65.333 0 116.166 12.667 152.499 38zM505.002 -0.00292969c-14.667 0 -35.334 0.666992 -62.001 2c-28 -25.333 -42 -64 -42 -116
c0 -62.667 19.5 -114.667 58.5 -156s100.833 -62 185.5 -62c88 0 156.833 13.5 206.5 40.5s74.5 69.5 74.5 127.5c0 39.333 -6 70.5 -18 93.5s-36.667 40.5 -74 52.5s-92.666 18 -165.999 18h-163zM467.002 1571c18.667 28.667 43.3311 51.5 73.998 68.5s63 25.5 97 25.5
c54.667 0 98.334 -15.833 131.001 -47.5s49 -72.5 49 -122.5c0 -33.333 -9.16699 -64.5 -27.5 -93.5s-42.666 -52 -72.999 -69s-62.833 -25.5 -97.5 -25.5c-34 0 -64.667 7.33301 -92 22s-49 35 -65 61s-24 55.333 -24 88c0 33.333 9.33301 64.333 28 93z" />
    <glyph glyph-name="Gcommaaccent" unicode="&#x122;" horiz-adv-x="1494" 
d="M727 -490c20 22 30.001 67.332 30.001 135.999c0 25.333 -6.66699 50 -20 74s-27.333 39.333 -42 46v50l184 98c15.333 -3.33301 31.5 -13.5 48.5 -30.5s31.333 -39.667 43 -68s17.5 -60.5 17.5 -96.5c0 -49.333 -9 -94.166 -27 -134.499s-38.833 -73 -62.5 -98
s-43.834 -40.5 -60.501 -46.5l-111 44v26zM1372 819.999l-0.00195312 -729.998c-13.333 -0.666992 -27.666 -3.33398 -42.999 -8.00098s-36.666 -11.667 -63.999 -21c-67.333 -23.333 -133.166 -42 -197.499 -56s-144.5 -21 -240.5 -21c-152 0 -282.667 31.5 -392 94.5
s-192.5 152.333 -249.5 268s-85.5 251.167 -85.5 406.5c0 176 32.833 322.667 98.5 440s155.5 204.166 269.5 260.499s244.333 84.5 391 84.5c77.333 0 139.333 -3.33301 186 -10s97.667 -16.667 153 -30c34 -8.66699 64.333 -15.334 91 -20.001l-10 -273
c-56 26.667 -114.333 46.834 -175 60.501s-142 20.5 -244 20.5c-88 0 -164.167 -20.167 -228.5 -60.5s-113.833 -98.333 -148.5 -174s-52 -166.167 -52 -271.5s14 -199.5 42 -282.5s70.667 -148.667 128 -197s128.666 -72.5 213.999 -72.5c102 0 187 12.667 255 38v305
l-233 12v237h535z" />
    <glyph glyph-name="gcommaaccent" unicode="&#x123;" horiz-adv-x="1305" 
d="M555 1328c-31.333 22.667 -56.667 53.166 -76 91.499s-29 81.5 -29 129.5c0 51.333 10.167 99 30.5 143s45.5 80.333 75.5 109s58.667 47 86 55l118 -51v-23c-18 -21.333 -31.333 -42.833 -40 -64.5s-13 -51.167 -13 -88.5c0 -33.333 8.16699 -65.666 24.5 -96.999
s36.5 -49.333 60.5 -54v-69l-139 -121c-34 4 -66.667 17.333 -98 40zM1288 913.999l-188.999 -0.00292969c13.333 -38.667 20 -82 20 -130c0 -122 -44.167 -215 -132.5 -279s-213.166 -96 -374.499 -96c-37.333 0 -70.333 2.33301 -99 7
c-14 -11.333 -24.667 -25.166 -32 -41.499s-11 -33.5 -11 -51.5c0 -32 10 -53.333 30 -64s55 -16 105 -16h190c168 0 283.167 -32.5 345.5 -97.5s93.5 -147.5 93.5 -247.5c0 -85.333 -27.167 -159.333 -81.5 -222s-126.5 -110.334 -216.5 -143.001s-187 -49 -291 -49
c-176.667 0 -313.167 28.5 -409.5 85.5s-144.5 139.5 -144.5 247.5c0 52.667 16.167 99.5 48.5 140.5s74.833 73.167 127.5 96.5c-32 16.667 -55.5 40.334 -70.5 71.001s-22.5 63.667 -22.5 99c0 45.333 14 89 42 131s74.667 76.333 140 103
c-72.667 31.333 -129.834 74.833 -171.501 130.5s-62.5 117.834 -62.5 186.501c0 130.667 44.667 226.834 134 288.501s214.666 92.5 375.999 92.5c147.333 0 262.333 -27.667 345 -83c22 19.333 48.333 35.333 79 48s65.667 19 105 19h127v-226zM769.5 637.996
c36.333 25.333 54.501 71 54.501 137c0 62 -16.167 108.833 -48.5 140.5s-80.5 47.5 -144.5 47.5c-64.667 0 -115.5 -13.833 -152.5 -41.5s-55.5 -75.167 -55.5 -142.5c0 -56 16.667 -99.833 50 -131.5s81.333 -47.5 144 -47.5c65.333 0 116.166 12.667 152.499 38z
M505.001 -0.00390625c-14.667 0 -35.334 0.666992 -62.001 2c-28 -25.333 -42 -64 -42 -116c0 -62.667 19.5 -114.667 58.5 -156s100.833 -62 185.5 -62c88 0 156.833 13.5 206.5 40.5s74.5 69.5 74.5 127.5c0 39.333 -6 70.5 -18 93.5s-36.667 40.5 -74 52.5
s-92.666 18 -165.999 18h-163z" />
    <glyph glyph-name="Hcircumflex" unicode="&#x124;" horiz-adv-x="1601" 
d="M506 1522v-632h593v632h314v-1522h-314v651h-593v-651h-318v1522h318zM690 1959h220l276 -308l-165 -92l-221 199l-222 -199l-162 90z" />
    <glyph glyph-name="hcircumflex" unicode="&#x125;" horiz-adv-x="1351" 
d="M1022.5 1119c55.667 -29.333 97.333 -77.334 125 -144.001s41.5 -155 41.5 -265v-710h-312v648c0 61.333 -5.16699 109.833 -15.5 145.5s-27 61.5 -50 77.5s-54.833 24 -95.5 24c-34 0 -73.5 -7 -118.5 -21s-84.167 -35.667 -117.5 -65v-809h-312v1662h248l263 298h220
l276 -308l-165 -92l-221 199l-222 -199l-87 48v-384l-17 -202c42.667 35.333 96.5 66.5 161.5 93.5s127.167 41.5 186.5 43.5c85.333 2.66699 155.833 -10.666 211.5 -39.999z" />
    <glyph glyph-name="Hbar" unicode="&#x126;" horiz-adv-x="1621" 
d="M1599 1045h-166v-1045h-322v621h-601v-621h-322v1045h-164v192h164v285h322v-285h601v285h322v-285h166v-192zM1111 1045h-601v-191h601v191z" />
    <glyph glyph-name="hbar" unicode="&#x127;" horiz-adv-x="1351" 
d="M1022.5 1119c55.667 -29.333 97.333 -77.334 125 -144.001s41.5 -155 41.5 -265v-710h-312v648c0 61.333 -5.16699 109.833 -15.5 145.5s-27 61.5 -50 77.5s-54.833 24 -95.5 24c-34 0 -73.5 -7 -118.5 -21s-84.167 -35.667 -117.5 -65v-809h-312v1293h-132v180h132v189
h312v-189h223v-180h-223v-69l-17 -202c42.667 35.333 96.5 66.5 161.5 93.5s127.167 41.5 186.5 43.5c85.333 2.66699 155.833 -10.666 211.5 -39.999z" />
    <glyph glyph-name="Itilde" unicode="&#x128;" horiz-adv-x="722" 
d="M521 1522v-1522h-320v1522h320zM40 1894c52 42 114.668 62.998 188.001 62.998c40 0 73 -6.5 99 -19.5s54 -31.833 84 -56.5c22.667 -18.667 41.667 -32.334 57 -41.001s33.333 -13 54 -13c30 0 57.333 10.333 82 31s49 47.334 73 80.001l126 -108
c-24 -69.333 -61.167 -124.666 -111.5 -165.999s-112.5 -62 -186.5 -62c-38.667 0 -70.5 6.33301 -95.5 19s-52.167 31.334 -81.5 56.001c-24.667 20 -45.334 34.667 -62.001 44s-36.667 14 -60 14c-26 0 -52.5 -10 -79.5 -30s-51.833 -44 -74.5 -72l-125 98
c23.333 66.667 61 121 113 163z" />
    <glyph glyph-name="itilde" unicode="&#x129;" horiz-adv-x="660" 
d="M486 1140v-1140h-312v1140h312zM-3 1635c52 42 114.666 62.9971 187.999 62.9971c42.667 0 77.334 -6.66699 104.001 -20s54.334 -32.333 83.001 -57c21.333 -18 39.5 -31.333 54.5 -40s32.5 -13 52.5 -13c30 0 57.333 10.333 82 31s49 47.334 73 80.001l126 -108
c-24 -69.333 -61.167 -124.666 -111.5 -165.999s-112.5 -62 -186.5 -62c-38.667 0 -70.5 6.33301 -95.5 19s-52.167 31.334 -81.5 56.001c-24.667 20 -45.334 34.667 -62.001 44s-36.667 14 -60 14c-26 0 -52.5 -10 -79.5 -30s-51.833 -44 -74.5 -72l-125 98
c23.333 66.667 61 121 113 163z" />
    <glyph glyph-name="Imacron" unicode="&#x12a;" horiz-adv-x="722" 
d="M521 1522v-1522h-320v1522h320zM660 1892v-206h-591v206h591z" />
    <glyph glyph-name="imacron" unicode="&#x12b;" horiz-adv-x="660" 
d="M486 1140v-1140h-312v1140h312zM626 1625v-206h-591v206h591z" />
    <glyph glyph-name="Ibreve" unicode="&#x12c;" horiz-adv-x="722" 
d="M521 1522v-1522h-320v1522h320zM187 1959c2 -23.333 7.00195 -45.167 15.002 -65.5s24.5 -38.333 49.5 -54s61.167 -23.5 108.5 -23.5c109.333 0 168 47.667 176 143h187c2.66699 -68 -10 -128 -38 -180s-69.833 -92.667 -125.5 -122s-122.167 -44 -199.5 -44
c-80.667 0 -148.834 14.5 -204.501 43.5s-96.834 69.5 -123.501 121.5s-38.667 112.333 -36 181h191z" />
    <glyph glyph-name="ibreve" unicode="&#x12d;" horiz-adv-x="660" 
d="M486 1140v-1140h-312v1140h312zM163 1684c2.66699 -26.667 7.32812 -51.5 13.9951 -74.5s22.334 -44.5 47.001 -64.5s60.667 -30 108 -30c46 0 81.333 10 106 30s40.834 41.667 48.501 65s12.834 48 15.501 74h193c2.66699 -70 -10.833 -134.667 -40.5 -194
s-72.667 -106.333 -129 -141s-121.166 -52 -194.499 -52c-76.667 0 -143 17.333 -199 52s-98.167 81.5 -126.5 140.5s-41.166 123.833 -38.499 194.5h196z" />
    <glyph glyph-name="Iogonek" unicode="&#x12e;" horiz-adv-x="731" 
d="M532 -291l-0.00292969 -157c-28.667 -21.333 -63.5 -38 -104.5 -50s-82.833 -18 -125.5 -18s-83.667 8 -123 24s-71.666 39.167 -96.999 69.5s-39 65.833 -41 106.5c-4 68 15.333 129 58 183s95.334 98.333 158.001 133h-56v1522h320v-1522h-56
c-58.667 -38 -103.167 -72.833 -133.5 -104.5s-45.5 -67.5 -45.5 -107.5c0 -66 40.333 -99 121 -99c36.667 0 78.334 6.66699 125.001 20z" />
    <glyph glyph-name="iogonek" unicode="&#x12f;" horiz-adv-x="660" 
d="M237 1329c-27.333 14.667 -49.0029 35 -65.0029 61s-24 55.333 -24 88c0 33.333 9.33301 64.333 28 93s43.334 51.5 74.001 68.5s63 25.5 97 25.5c54.667 0 98.334 -15.833 131.001 -47.5s49 -72.5 49 -122.5c0 -33.333 -9.16699 -64.5 -27.5 -93.5
s-42.666 -52 -72.999 -69s-62.833 -25.5 -97.5 -25.5c-34 0 -64.667 7.33301 -92 22zM375.997 -311c36.667 0 78.3311 6.66699 124.998 20v-157c-28.667 -21.333 -63.5 -38 -104.5 -50s-82.833 -18 -125.5 -18s-83.667 8 -123 24s-71.666 39.167 -96.999 69.5
s-39 65.833 -41 106.5c-4 68 15.333 129 58 183s95.334 98.333 158.001 133h-52v1140h312v-1140h-52c-58.667 -38 -103.167 -72.833 -133.5 -104.5s-45.5 -67.5 -45.5 -107.5c0 -66 40.333 -99 121 -99z" />
    <glyph glyph-name="Idotaccent" unicode="&#x130;" horiz-adv-x="722" 
d="M521 1522v-1522h-320v1522h320zM211.5 1868.5c17 27.667 40.166 49.5 69.499 65.5s61 24 95 24c54.667 0 96.834 -14.833 126.501 -44.5s44.5 -69.5 44.5 -119.5c0 -34 -8.33301 -64.667 -25 -92s-39.5 -49 -68.5 -65s-60.833 -24 -95.5 -24
c-51.333 0 -92.833 14.833 -124.5 44.5s-47.5 69.5 -47.5 119.5c0 33.333 8.5 63.833 25.5 91.5z" />
    <glyph glyph-name="dotlessi" unicode="&#x131;" horiz-adv-x="660" 
d="M486 1140v-1140h-312v1140h312z" />
    <glyph glyph-name="IJ" unicode="&#x132;" horiz-adv-x="1520" 
d="M521 1522v-1522h-320v1522h320zM873 -62c46.667 45.333 78.666 104.999 95.999 178.999c12.667 52.667 21.167 117.834 25.5 195.501s6.5 176.167 6.5 295.5v914h320v-909l1 -223c0 -63.333 -1.33301 -118.833 -4 -166.5s-8 -91.834 -16 -132.501
c-16.667 -87.333 -54 -162.666 -112 -225.999s-123.833 -111.5 -197.5 -144.5s-141.5 -50.5 -203.5 -52.5l-77 168c60.667 22.667 114.334 56.667 161.001 102z" />
    <glyph glyph-name="ij" unicode="&#x133;" horiz-adv-x="1304" 
d="M486 1140v-1140h-312v1140h312zM164 1570c18.667 28.667 43.3311 51.5 73.998 68.5s63 25.5 97 25.5c54.667 0 98.334 -15.833 131.001 -47.5s49 -72.5 49 -122.5c0 -33.333 -9.16699 -64.5 -27.5 -93.5s-42.666 -52 -72.999 -69s-62.833 -25.5 -97.5 -25.5
c-34 0 -64.667 7.33301 -92 22s-49 35 -65 61s-24 55.333 -24 88c0 33.333 9.33301 64.333 28 93zM608.997 -296.5c26 -5 47.333 -7.50098 64 -7.50098c40.667 0 72.5 9.5 95.5 28.5s39.667 50.5 50 94.5s15.5 104.667 15.5 182v1139h312v-1058
c0 -205.333 -35.5 -354.833 -106.5 -448.5s-173.833 -140.5 -308.5 -140.5c-20.667 0 -52 2.83301 -94 8.5s-69 10.834 -81 15.501v201c9.33301 -4.66699 27 -9.5 53 -14.5zM822.997 1571c18.667 28.667 43.3311 51.5 73.998 68.5s63 25.5 97 25.5
c54.667 0 98.334 -15.833 131.001 -47.5s49 -72.5 49 -122.5c0 -33.333 -9.16699 -64.5 -27.5 -93.5s-42.666 -52 -72.999 -69s-62.833 -25.5 -97.5 -25.5c-34 0 -64.667 7.33301 -92 22s-49 35 -65 61s-24 55.333 -24 88c0 33.333 9.33301 64.333 28 93z" />
    <glyph glyph-name="Jcircumflex" unicode="&#x134;" horiz-adv-x="798" 
d="M151 -62c46.667 45.333 78.666 104.999 95.999 178.999c12.667 52.667 21.167 117.834 25.5 195.501s6.5 176.167 6.5 295.5v914h320v-909l1 -223c0 -63.333 -1.33301 -118.833 -4 -166.5s-8 -91.834 -16 -132.501c-16.667 -87.333 -54 -162.666 -112 -225.999
s-123.833 -111.5 -197.5 -144.5s-141.5 -50.5 -203.5 -52.5l-77 168c60.667 22.667 114.334 56.667 161.001 102zM321.999 1960h220l276 -308l-165 -92l-221 199l-222 -199l-162 90z" />
    <glyph glyph-name="jcircumflex" unicode="&#x135;" horiz-adv-x="644" 
d="M-51 -296.5c26 -5 47.333 -7.50098 64 -7.50098c40.667 0 72.5 9.5 95.5 28.5s39.667 50.5 50 94.5s15.5 104.667 15.5 182v1139h312v-1058c0 -205.333 -35.5 -354.833 -106.5 -448.5s-173.833 -140.5 -308.5 -140.5c-20.667 0 -52 2.83301 -94 8.5
s-69 10.834 -81 15.501v201c9.33301 -4.66699 27 -9.5 53 -14.5zM220 1699h223l283 -372l-161 -90l-233 246l-242 -246l-156 89z" />
    <glyph glyph-name="Kcommaaccent" unicode="&#x136;" horiz-adv-x="1444" 
d="M654 -490c20 22 30.001 67.332 30.001 135.999c0 25.333 -6.66699 50 -20 74s-27.333 39.333 -42 46v50l184 98c15.333 -3.33301 31.5 -13.5 48.5 -30.5s31.333 -39.667 43 -68s17.5 -60.5 17.5 -96.5c0 -49.333 -9 -94.166 -27 -134.499s-38.833 -73 -62.5 -98
s-43.834 -40.5 -60.501 -46.5l-111 44v26zM1411 -0.000976562l-354 -0.000976562c-7.33301 10.667 -17 27.667 -29 51l-13 25c-5.33301 10 -12.333 22.333 -21 37c-50 90 -104.5 182.333 -163.5 277s-114.833 180 -167.5 256l-157 -177v-469h-318v1522h318v-674l535 674h350
l-514 -644c44 -65.333 116.667 -181.166 218 -347.499l251 -420.5z" />
    <glyph glyph-name="kcommaaccent" unicode="&#x137;" horiz-adv-x="1238" 
d="M561 -490c20 22 30.001 67.332 30.001 135.999c0 25.333 -6.66699 50 -20 74s-27.333 39.333 -42 46v50l184 98c15.333 -3.33301 31.5 -13.5 48.5 -30.5s31.333 -39.667 43 -68s17.5 -60.5 17.5 -96.5c0 -49.333 -9 -94.166 -27 -134.499s-38.833 -73 -62.5 -98
s-43.834 -40.5 -60.501 -46.5l-111 44v26zM598.001 474.999l-122 -133l4 -129v-213h-312v1661h312v-684l-10 -287l385 450h353l-407 -443l447 -697h-355z" />
    <glyph glyph-name="kgreenlandic" unicode="&#x138;" horiz-adv-x="1241" 
d="M615 437l-131 -153l2 -124v-160h-312v1140h312v-361l-7 -155l396 516h349l-410 -474l443 -666h-355z" />
    <glyph glyph-name="Lacute" unicode="&#x139;" horiz-adv-x="1120" 
d="M384.5 1841c71 71.333 110.164 117.667 117.497 139l217 -131c-29.333 -38 -66.666 -78.833 -111.999 -122.5s-91.166 -82.5 -137.499 -116.5s-85.166 -56.333 -116.499 -67l-146 125zM505.997 1522v-1280h548v-242h-866v1522h318z" />
    <glyph glyph-name="lacute" unicode="&#x13a;" horiz-adv-x="672" 
d="M359.5 1841c71 71.333 110.164 117.667 117.497 139l217 -131c-29.333 -38 -66.666 -78.833 -111.999 -122.5s-91.166 -82.5 -137.499 -116.5s-85.166 -56.333 -116.499 -67l-146 125zM491.997 1527v-1527h-312v1527h312z" />
    <glyph glyph-name="Lcommaaccent" unicode="&#x13b;" horiz-adv-x="1120" 
d="M520 -490c20 22 30.001 67.332 30.001 135.999c0 25.333 -6.66699 50 -20 74s-27.333 39.333 -42 46v50l184 98c15.333 -3.33301 31.5 -13.5 48.5 -30.5s31.333 -39.667 43 -68s17.5 -60.5 17.5 -96.5c0 -49.333 -9 -94.166 -27 -134.499s-38.833 -73 -62.5 -98
s-43.834 -40.5 -60.501 -46.5l-111 44v26zM506.001 1522v-1280h548v-242h-866v1522h318z" />
    <glyph glyph-name="lcommaaccent" unicode="&#x13c;" horiz-adv-x="672" 
d="M242 -490c20 22 30.001 67.332 30.001 135.999c0 25.333 -6.66699 50 -20 74s-27.333 39.333 -42 46v50l184 98c15.333 -3.33301 31.5 -13.5 48.5 -30.5s31.333 -39.667 43 -68s17.5 -60.5 17.5 -96.5c0 -49.333 -9 -94.166 -27 -134.499s-38.833 -73 -62.5 -98
s-43.834 -40.5 -60.501 -46.5l-111 44v26zM492.001 1662v-1662h-312v1662h312z" />
    <glyph glyph-name="Lcaron" unicode="&#x13d;" horiz-adv-x="1120" 
d="M506 1522v-1280h548v-242h-866v1522h318zM838 1061c6.66699 31.333 12.168 74.999 16.501 130.999s6.16602 111 5.49902 165c0 44.667 -5.83301 87.834 -17.5 129.501s-25.5 70.834 -41.5 87.501l12 64l215 70c47.333 -44.667 71 -134 71 -268
c0 -54.667 -6.16699 -111.5 -18.5 -170.5s-27.833 -111.833 -46.5 -158.5s-37 -80.334 -55 -101.001l-133 28z" />
    <glyph glyph-name="lcaron" unicode="&#x13e;" horiz-adv-x="956" 
d="M492 1662v-1662h-312v1662h312zM691 1061c6.66699 31.333 12.168 74.999 16.501 130.999s6.16602 111 5.49902 165c0 44.667 -5.83301 87.834 -17.5 129.501s-25.5 70.834 -41.5 87.501l12 64l215 70c47.333 -44.667 71 -134 71 -268
c0 -54.667 -6.16699 -111.5 -18.5 -170.5s-27.833 -111.833 -46.5 -158.5s-37 -80.334 -55 -101.001l-133 28z" />
    <glyph glyph-name="Ldot" unicode="&#x13f;" horiz-adv-x="1410" 
d="M911 950.5c18.667 32.333 43.667 58.166 75 77.499s65 29 101 29c38 0 71 -8.5 99 -25.5s49.333 -40.5 64 -70.5s22 -63.333 22 -100c0 -37.333 -9 -72 -27 -104s-42.5 -57.5 -73.5 -76.5s-64.833 -28.5 -101.5 -28.5c-35.333 0 -67.333 8.5 -96 25.5s-51 40.333 -67 70
s-24 62.834 -24 99.501s9.33301 71.167 28 103.5zM506 1522v-1280h548v-242h-866v1522h318z" />
    <glyph glyph-name="ldot" unicode="&#x140;" horiz-adv-x="1071" 
d="M492 1662v-1662h-312v1662h312zM694 958.5c18.667 32.333 43.667 58.166 75 77.499s65 29 101 29c38 0 71 -8.5 99 -25.5s49.333 -40.5 64 -70.5s22 -63.333 22 -100c0 -37.333 -9 -72 -27 -104s-42.5 -57.5 -73.5 -76.5s-64.833 -28.5 -101.5 -28.5
c-35.333 0 -67.333 8.5 -96 25.5s-51 40.333 -67 70s-24 62.834 -24 99.501s9.33301 71.167 28 103.5z" />
    <glyph glyph-name="Lslash" unicode="&#x141;" horiz-adv-x="1120" 
d="M1054 242v-242h-866v604l-98 -36l-65 170l163 60v724h318v-607l313 116l65 -172l-378 -139v-478h548z" />
    <glyph glyph-name="lslash" unicode="&#x142;" horiz-adv-x="672" 
d="M672 951l-180 -66v-885h-312v770l-162 -60v195l162 62v695h312v-574l180 69v-206z" />
    <glyph glyph-name="Nacute" unicode="&#x143;" horiz-adv-x="1622" 
d="M845.5 1841c71 71.333 110.164 117.667 117.497 139l217 -131c-29.333 -38 -66.666 -78.833 -111.999 -122.5s-91.166 -82.5 -137.499 -116.5s-85.166 -56.333 -116.499 -67l-146 125zM1432 1522v-1522h-319l-543 861l-120 243l34 -363v-741h-296v1522h295l567 -895
l115 -228l-29 366v757h296z" />
    <glyph glyph-name="nacute" unicode="&#x144;" horiz-adv-x="1352" 
d="M807 1580c59.333 72 113.333 147.667 162 227l214 -174c-18 -42 -53.5 -90.333 -106.5 -145s-109 -104.667 -168 -150s-102.833 -74.333 -131.5 -87l-149 137c60 56 119.667 120 179 192zM457 1140l6 -122.001c46 34.667 103.333 66.334 172 95.001s135 44 199 46
c82 2.66699 149 -10.166 201 -38.499s90.833 -75.333 116.5 -141s38.5 -153.834 38.5 -264.501v-715h-312v648c0 64.667 -5 114.834 -15 150.501s-27 61.167 -51 76.5s-58 22.333 -102 21c-33.333 -0.666992 -71 -8.33398 -113 -23.001s-79 -36 -111 -64v-809h-312v1140h283
z" />
    <glyph glyph-name="Ncommaaccent" unicode="&#x145;" horiz-adv-x="1622" 
d="M685 -490c20 22 30.001 67.332 30.001 135.999c0 25.333 -6.66699 50 -20 74s-27.333 39.333 -42 46v50l184 98c15.333 -3.33301 31.5 -13.5 48.5 -30.5s31.333 -39.667 43 -68s17.5 -60.5 17.5 -96.5c0 -49.333 -9 -94.166 -27 -134.499s-38.833 -73 -62.5 -98
s-43.834 -40.5 -60.501 -46.5l-111 44v26zM1432 1522v-1522h-319l-543 861l-120 243l34 -363v-741h-296v1522h295l567 -895l115 -228l-29 366v757h296z" />
    <glyph glyph-name="ncommaaccent" unicode="&#x146;" horiz-adv-x="1352" 
d="M586 -490c20 22 30.001 67.332 30.001 135.999c0 25.333 -6.66699 50 -20 74s-27.333 39.333 -42 46v50l184 98c15.333 -3.33301 31.5 -13.5 48.5 -30.5s31.333 -39.667 43 -68s17.5 -60.5 17.5 -96.5c0 -49.333 -9 -94.166 -27 -134.499s-38.833 -73 -62.5 -98
s-43.834 -40.5 -60.501 -46.5l-111 44v26zM457.001 1140l6 -122.001c46 34.667 103.333 66.334 172 95.001s135 44 199 46c82 2.66699 149 -10.166 201 -38.499s90.833 -75.333 116.5 -141s38.5 -153.834 38.5 -264.501v-715h-312v648c0 64.667 -5 114.834 -15 150.501
s-27 61.167 -51 76.5s-58 22.333 -102 21c-33.333 -0.666992 -71 -8.33398 -113 -23.001s-79 -36 -111 -64v-809h-312v1140h283z" />
    <glyph glyph-name="Ncaron" unicode="&#x147;" horiz-adv-x="1622" 
d="M591 1960l220 -181l223 181l154 -91l-267 -293h-219l-268 292zM1432 1522v-1522h-319l-543 861l-120 243l34 -363v-741h-296v1522h295l567 -895l115 -228l-29 366v757h296z" />
    <glyph glyph-name="ncaron" unicode="&#x148;" horiz-adv-x="1352" 
d="M760 1466l233 246l161 -90l-283 -372h-223l-286 373l156 89zM457 1140l6 -122.001c46 34.667 103.333 66.334 172 95.001s135 44 199 46c82 2.66699 149 -10.166 201 -38.499s90.833 -75.333 116.5 -141s38.5 -153.834 38.5 -264.501v-715h-312v648
c0 64.667 -5 114.834 -15 150.501s-27 61.167 -51 76.5s-58 22.333 -102 21c-33.333 -0.666992 -71 -8.33398 -113 -23.001s-79 -36 -111 -64v-809h-312v1140h283z" />
    <glyph glyph-name="napostrophe" unicode="&#x149;" horiz-adv-x="1352" 
d="M586 -490c20 22 30.001 67.332 30.001 135.999c0 25.333 -6.66699 50 -20 74s-27.333 39.333 -42 46v50l184 98c15.333 -3.33301 31.5 -13.5 48.5 -30.5s31.333 -39.667 43 -68s17.5 -60.5 17.5 -96.5c0 -49.333 -9 -94.166 -27 -134.499s-38.833 -73 -62.5 -98
s-43.834 -40.5 -60.501 -46.5l-111 44v26zM457.001 1140l6 -122.001c46 34.667 103.333 66.334 172 95.001s135 44 199 46c82 2.66699 149 -10.166 201 -38.499s90.833 -75.333 116.5 -141s38.5 -153.834 38.5 -264.501v-715h-312v648c0 64.667 -5 114.834 -15 150.501
s-27 61.167 -51 76.5s-58 22.333 -102 21c-33.333 -0.666992 -71 -8.33398 -113 -23.001s-79 -36 -111 -64v-809h-312v1140h283z" />
    <glyph glyph-name="Eng" unicode="&#x14a;" horiz-adv-x="1620" 
d="M1432 270c0 -66 -2.16504 -122.334 -6.49805 -169.001s-12.833 -92.667 -25.5 -138c-20.667 -74.667 -60.334 -142 -119.001 -202s-129.334 -107.667 -212.001 -143s-168.667 -55 -258 -59l-70 125c58 16.667 115.167 42.834 171.5 78.501s102.5 76.167 138.5 121.5
s54 90.333 54 135l-526 842l-115 231l38 -351v-741h-314l-1 1522h308l544 -895l112 -222l-35 360v757h315v-1113z" />
    <glyph glyph-name="eng" unicode="&#x14b;" horiz-adv-x="1352" 
d="M457 1138l6.00098 -119.999c46 34.667 103.333 66.334 172 95.001s135 44 199 46c82 2.66699 149 -10 201 -38s90.833 -74.833 116.5 -140.5s38.5 -153.834 38.5 -264.501v-747c0 -110.667 -15.167 -201.5 -45.5 -272.5s-71.666 -122.667 -123.999 -155
s-112.5 -48.5 -180.5 -48.5c-34.667 0 -71.834 1.33301 -111.501 4s-68.834 6 -87.501 10v196c9.33301 -3.33301 26 -6 50 -8s43.333 -3 58 -3c32.667 0 58 6.33301 76 19s31.333 37.667 40 75s13 93.666 13 168.999v703c0 64 -4.83301 113.833 -14.5 149.5
s-26.5 61.167 -50.5 76.5s-57.667 22.333 -101 21c-32 -0.666992 -69.667 -9 -113 -25s-81 -38 -113 -66v-814h-312v1138h283z" />
    <glyph glyph-name="Omacron" unicode="&#x14c;" 
d="M1122 1892v-206h-591v206h591zM195.5 1194.5c61.667 113 145.999 197.499 252.999 253.499s231.167 86 372.5 90c138 4 258.667 -26 362 -90s182.166 -155.333 236.499 -274s80.166 -255.667 77.499 -411c-3.33301 -173.333 -35.666 -318.166 -96.999 -434.499
s-145.666 -202.833 -252.999 -259.5s-232 -85 -374 -85c-140 0 -261.5 33.167 -364.5 99.5s-181.167 158.833 -234.5 277.5s-78.666 254.667 -75.999 408c3.33301 170.667 35.833 312.5 97.5 425.5zM1128.5 1044c-26.333 78.667 -66.002 140.334 -119.002 185.001
s-118.167 67 -195.5 67c-74 0 -140 -18.333 -198 -55s-104 -95 -138 -175s-51 -182.667 -51 -308c0 -102 13.833 -193.667 41.5 -275s69.334 -145.333 125.001 -192s123.834 -70 204.501 -70c116.667 0 207.5 45.667 272.5 137s97.5 229.666 97.5 414.999
c0 102 -13.167 192.333 -39.5 271z" />
    <glyph glyph-name="omacron" unicode="&#x14d;" horiz-adv-x="1302" 
d="M956 1625v-206h-591v206h591zM168 893.5c48 86.333 114.667 151.669 200 196.002s183.333 66.5 294 66.5c126 0 229.667 -26.5 311 -79.5s140.5 -124 177.5 -213s55.5 -189.5 55.5 -301.5c0 -122.667 -24 -227.334 -72 -314.001s-114.667 -152.334 -200 -197.001
s-183 -67 -293 -67c-126.667 0 -230.667 26.667 -312 80s-140.5 124.833 -177.5 214.5s-55.5 190.5 -55.5 302.5c0 122 24 226.167 72 312.5zM826 827.503c-38 71 -95.667 106.501 -173 106.501c-156 0 -234 -116 -234 -348c0 -70 8.16699 -133.833 24.5 -191.5
s42 -103.834 77 -138.501s78.833 -52 131.5 -52c154 0 231 119 231 357c0 106.667 -19 195.5 -57 266.5z" />
    <glyph glyph-name="Obreve" unicode="&#x14e;" 
d="M649 1959c2 -23.333 7.00195 -45.167 15.002 -65.5s24.5 -38.333 49.5 -54s61.167 -23.5 108.5 -23.5c109.333 0 168 47.667 176 143h187c2.66699 -68 -10 -128 -38 -180s-69.833 -92.667 -125.5 -122s-122.167 -44 -199.5 -44c-80.667 0 -148.834 14.5 -204.501 43.5
s-96.834 69.5 -123.501 121.5s-38.667 112.333 -36 181h191zM195.502 1194.5c61.667 113 145.999 197.499 252.999 253.499s231.167 86 372.5 90c138 4 258.667 -26 362 -90s182.166 -155.333 236.499 -274s80.166 -255.667 77.499 -411
c-3.33301 -173.333 -35.666 -318.166 -96.999 -434.499s-145.666 -202.833 -252.999 -259.5s-232 -85 -374 -85c-140 0 -261.5 33.167 -364.5 99.5s-181.167 158.833 -234.5 277.5s-78.666 254.667 -75.999 408c3.33301 170.667 35.833 312.5 97.5 425.5zM1128.5 1044
c-26.333 78.667 -66.002 140.334 -119.002 185.001s-118.167 67 -195.5 67c-74 0 -140 -18.333 -198 -55s-104 -95 -138 -175s-51 -182.667 -51 -308c0 -102 13.833 -193.667 41.5 -275s69.334 -145.333 125.001 -192s123.834 -70 204.501 -70
c116.667 0 207.5 45.667 272.5 137s97.5 229.666 97.5 414.999c0 102 -13.167 192.333 -39.5 271z" />
    <glyph glyph-name="obreve" unicode="&#x14f;" horiz-adv-x="1302" 
d="M168 893.5c48 86.333 114.667 151.669 200 196.002s183.333 66.5 294 66.5c126 0 229.667 -26.5 311 -79.5s140.5 -124 177.5 -213s55.5 -189.5 55.5 -301.5c0 -122.667 -24 -227.334 -72 -314.001s-114.667 -152.334 -200 -197.001s-183 -67 -293 -67
c-126.667 0 -230.667 26.667 -312 80s-140.5 124.833 -177.5 214.5s-55.5 190.5 -55.5 302.5c0 122 24 226.167 72 312.5zM826 827.503c-38 71 -95.667 106.501 -173 106.501c-156 0 -234 -116 -234 -348c0 -70 8.16699 -133.833 24.5 -191.5s42 -103.834 77 -138.501
s78.833 -52 131.5 -52c154 0 231 119 231 357c0 106.667 -19 195.5 -57 266.5zM493 1684c2.66699 -26.667 7.32812 -51.5 13.9951 -74.5s22.334 -44.5 47.001 -64.5s60.667 -30 108 -30c46 0 81.333 10 106 30s40.834 41.667 48.501 65s12.834 48 15.501 74h193
c2.66699 -70 -10.833 -134.667 -40.5 -194s-72.667 -106.333 -129 -141s-121.166 -52 -194.499 -52c-76.667 0 -143 17.333 -199 52s-98.167 81.5 -126.5 140.5s-41.166 123.833 -38.499 194.5h196z" />
    <glyph glyph-name="Ohungarumlaut" unicode="&#x150;" 
d="M195.5 1194.5c61.667 113 145.999 197.499 252.999 253.499s231.167 86 372.5 90c138 4 258.667 -26 362 -90s182.166 -155.333 236.499 -274s80.166 -255.667 77.499 -411c-3.33301 -173.333 -35.666 -318.166 -96.999 -434.499s-145.666 -202.833 -252.999 -259.5
s-232 -85 -374 -85c-140 0 -261.5 33.167 -364.5 99.5s-181.167 158.833 -234.5 277.5s-78.666 254.667 -75.999 408c3.33301 170.667 35.833 312.5 97.5 425.5zM1128.5 1044c-26.333 78.667 -66.002 140.334 -119.002 185.001s-118.167 67 -195.5 67
c-74 0 -140 -18.333 -198 -55s-104 -95 -138 -175s-51 -182.667 -51 -308c0 -102 13.833 -193.667 41.5 -275s69.334 -145.333 125.001 -192s123.834 -70 204.501 -70c116.667 0 207.5 45.667 272.5 137s97.5 229.666 97.5 414.999c0 102 -13.167 192.333 -39.5 271z
M516.997 1745c34.667 42.667 67.499 85.168 98.499 127.501s49.167 71.166 54.5 86.499l230 -112c-44 -64 -93.667 -125 -149 -183s-101.666 -95.333 -138.999 -112l-162 115c10 9.33301 32.333 35.333 67 78zM1032 1744.5c35.333 42.333 68.668 84.334 100.001 126.001
s49.666 70.167 54.999 85.5l226 -113c-41.333 -61.333 -90 -121 -146 -179s-103.667 -95.333 -143 -112l-161 115c10.667 9.33301 33.667 35.166 69 77.499z" />
    <glyph glyph-name="ohungarumlaut" unicode="&#x151;" horiz-adv-x="1302" 
d="M567 1834l195.001 -137c-21.333 -34.667 -53.333 -77.5 -96 -128.5s-86.334 -98.5 -131.001 -142.5s-81.667 -74.667 -111 -92l-127 93zM1088 1830l196.001 -135.999c-22.667 -35.333 -55.834 -78.833 -99.501 -130.5s-88.167 -99.334 -133.5 -143.001
s-83 -72.5 -113 -86.5l-122 93zM168.002 893.501c48 86.333 114.667 151.669 200 196.002s183.333 66.5 294 66.5c126 0 229.667 -26.5 311 -79.5s140.5 -124 177.5 -213s55.5 -189.5 55.5 -301.5c0 -122.667 -24 -227.334 -72 -314.001s-114.667 -152.334 -200 -197.001
s-183 -67 -293 -67c-126.667 0 -230.667 26.667 -312 80s-140.5 124.833 -177.5 214.5s-55.5 190.5 -55.5 302.5c0 122 24 226.167 72 312.5zM826.002 827.504c-38 71 -95.667 106.501 -173 106.501c-156 0 -234 -116 -234 -348c0 -70 8.16699 -133.833 24.5 -191.5
s42 -103.834 77 -138.501s78.833 -52 131.5 -52c154 0 231 119 231 357c0 106.667 -19 195.5 -57 266.5z" />
    <glyph glyph-name="OE" unicode="&#x152;" horiz-adv-x="2133" 
d="M2047 251l-0.000976562 -250.999h-993v42c-69.333 -38.667 -159.333 -58 -270 -58c-138.667 0 -259.167 32.5 -361.5 97.5s-180.666 155.167 -234.999 270.5s-81.5 246.666 -81.5 393.999c0 168.667 31.167 312.5 93.5 431.5s148 208.833 257 269.5s232.833 91 371.5 91
c90 0 165.333 -15.333 226 -46v30h928v-244h-610v-374h450v-241h-450v-412h675zM949.999 243.501c40.667 15 75.332 40.167 103.999 75.5v871c-62 70.667 -140 106 -234 106c-70 0 -134 -16.333 -192 -49s-105.333 -89 -142 -169s-55 -186.667 -55 -320
c0 -107.333 14.5 -201.5 43.5 -282.5s71.5 -143.667 127.5 -188s123.333 -66.5 202 -66.5c56.667 0 105.334 7.5 146.001 22.5z" />
    <glyph glyph-name="oe" unicode="&#x153;" horiz-adv-x="1962" 
d="M1854 495h-674c6 -94 35.5 -164 88.5 -210s124.833 -69 215.5 -69c43.333 0 95.833 5.83301 157.5 17.5s106.834 25.5 135.501 41.5l51 -177c-39.333 -32 -98.333 -59 -177 -81s-160.667 -33 -246 -33c-163.333 0 -290.666 47.333 -381.999 142
c-46.667 -46.667 -102.834 -82 -168.501 -106s-138.834 -36 -219.501 -36c-126 0 -229.167 26.5 -309.5 79.5s-138.666 123.833 -174.999 212.5s-54.5 189.334 -54.5 302.001c0 122.667 23.5 227.5 70.5 314.5s112.667 152.667 197 197s181.833 66.5 292.5 66.5
c165.333 0 292 -47.333 380 -142c46 45.333 101.167 80.333 165.5 105s136.5 37 216.5 37c82.667 0 157.667 -15 225 -45s121.166 -78.333 161.499 -145s60.5 -152.334 60.5 -257.001c0 -96 -3.66699 -167.333 -11 -214zM818.5 294.5
c36.333 60.333 54.499 149.167 54.499 266.5c0 107.333 -18.333 196.333 -55 267s-93.667 106 -171 106c-79.333 0 -137.166 -29.5 -173.499 -88.5s-54.5 -145.5 -54.5 -259.5c0 -110.667 18.333 -202 55 -274s94 -108 172 -108c78.667 0 136.167 30.167 172.5 90.5z
M1576 712.001c0 72.667 -13.6689 127.833 -41.002 165.5s-71.666 56.5 -132.999 56.5s-110.166 -20.167 -146.499 -60.5s-59.833 -108.833 -70.5 -205.5h390c0.666992 10 1 24.667 1 44z" />
    <glyph glyph-name="Racute" unicode="&#x154;" horiz-adv-x="1435" 
d="M1381 0h-353.998c-6.66699 9.33301 -13.334 20.5 -20.001 33.5s-14 28.5 -22 46.5l-14 30c-11.333 24 -21.833 49.167 -31.5 75.5s-21.834 61.5 -36.501 105.5c-20.667 63.333 -38.834 114.166 -54.501 152.499s-35.167 70.5 -58.5 96.5s-51 39 -83 39
c-68 -2.66699 -135 -4 -201 -4v-575h-318v1522h147c34 0 73 2 117 6c36.667 2.66699 79.334 5 128.001 7s101.667 3 159 3c162 0 293.833 -35.167 395.5 -105.5s152.5 -188.5 152.5 -354.5c0 -119.333 -21.5 -214.666 -64.5 -285.999s-105.833 -123.333 -188.5 -156
c35.333 -30 66.166 -69.333 92.499 -118s57.5 -115 93.5 -199c38.667 -93.333 71.334 -163 98.001 -209zM506.002 804c33.333 -4 103.001 -6 209.001 -6c90 0 156.333 25.667 199 77s64 116 64 194c0 45.333 -7.16699 84.833 -21.5 118.5s-41.833 61 -82.5 82
s-98.334 31.5 -173.001 31.5c-79.333 0 -144.333 -6 -195 -18v-479zM790.503 1841c71 71.333 110.164 117.667 117.497 139l217 -131c-29.333 -38 -66.666 -78.833 -111.999 -122.5s-91.166 -82.5 -137.499 -116.5s-85.166 -56.333 -116.499 -67l-146 125z" />
    <glyph glyph-name="racute" unicode="&#x155;" horiz-adv-x="926" 
d="M587 1581c59.333 72 113.333 147.667 162 227l214 -174c-18 -42 -53.5 -90.333 -106.5 -145s-109 -104.667 -168 -150s-102.833 -74.333 -131.5 -87l-149 137c60 56 119.667 120 179 192zM861 1145l0.000976562 -301c-15.333 8.66699 -32.833 15.5 -52.5 20.5
s-47.834 7.5 -84.501 7.5c-96 0 -180.667 -34.333 -254 -103v-769h-312v1140h277l14 -156c16.667 29.333 41.5 57.333 74.5 84s71.333 48.5 115 65.5s88.167 25.5 133.5 25.5c43.333 0 73 -4.66699 89 -14z" />
    <glyph glyph-name="Rcommaaccent" unicode="&#x156;" horiz-adv-x="1435" 
d="M643 -490c20 22 30.001 67.332 30.001 135.999c0 25.333 -6.66699 50 -20 74s-27.333 39.333 -42 46v50l184 98c15.333 -3.33301 31.5 -13.5 48.5 -30.5s31.333 -39.667 43 -68s17.5 -60.5 17.5 -96.5c0 -49.333 -9 -94.166 -27 -134.499s-38.833 -73 -62.5 -98
s-43.834 -40.5 -60.501 -46.5l-111 44v26zM1381 -0.000976562h-353.998c-6.66699 9.33301 -13.334 20.5 -20.001 33.5s-14 28.5 -22 46.5l-14 30c-11.333 24 -21.833 49.167 -31.5 75.5s-21.834 61.5 -36.501 105.5c-20.667 63.333 -38.834 114.166 -54.501 152.499
s-35.167 70.5 -58.5 96.5s-51 39 -83 39c-68 -2.66699 -135 -4 -201 -4v-575h-318v1522h147c34 0 73 2 117 6c36.667 2.66699 79.334 5 128.001 7s101.667 3 159 3c162 0 293.833 -35.167 395.5 -105.5s152.5 -188.5 152.5 -354.5c0 -119.333 -21.5 -214.666 -64.5 -285.999
s-105.833 -123.333 -188.5 -156c35.333 -30 66.166 -69.333 92.499 -118s57.5 -115 93.5 -199c38.667 -93.333 71.334 -163 98.001 -209zM506.003 803.999c33.333 -4 103.001 -6 209.001 -6c90 0 156.333 25.667 199 77s64 116 64 194c0 45.333 -7.16699 84.833 -21.5 118.5
s-41.833 61 -82.5 82s-98.334 31.5 -173.001 31.5c-79.333 0 -144.333 -6 -195 -18v-479z" />
    <glyph glyph-name="rcommaaccent" unicode="&#x157;" horiz-adv-x="926" 
d="M228 -490c20 22 30.001 67.332 30.001 135.999c0 25.333 -6.66699 50 -20 74s-27.333 39.333 -42 46v50l184 98c15.333 -3.33301 31.5 -13.5 48.5 -30.5s31.333 -39.667 43 -68s17.5 -60.5 17.5 -96.5c0 -49.333 -9 -94.166 -27 -134.499s-38.833 -73 -62.5 -98
s-43.834 -40.5 -60.501 -46.5l-111 44v26zM861.001 1145l0.000976562 -301c-15.333 8.66699 -32.833 15.5 -52.5 20.5s-47.834 7.5 -84.501 7.5c-96 0 -180.667 -34.333 -254 -103v-769h-312v1140h277l14 -156c16.667 29.333 41.5 57.333 74.5 84s71.333 48.5 115 65.5
s88.167 25.5 133.5 25.5c43.333 0 73 -4.66699 89 -14z" />
    <glyph glyph-name="Rcaron" unicode="&#x158;" horiz-adv-x="1435" 
d="M536 1960l220 -181l223 181l154 -91l-267 -293h-219l-268 292zM1381 0h-353.998c-6.66699 9.33301 -13.334 20.5 -20.001 33.5s-14 28.5 -22 46.5l-14 30c-11.333 24 -21.833 49.167 -31.5 75.5s-21.834 61.5 -36.501 105.5
c-20.667 63.333 -38.834 114.166 -54.501 152.499s-35.167 70.5 -58.5 96.5s-51 39 -83 39c-68 -2.66699 -135 -4 -201 -4v-575h-318v1522h147c34 0 73 2 117 6c36.667 2.66699 79.334 5 128.001 7s101.667 3 159 3c162 0 293.833 -35.167 395.5 -105.5
s152.5 -188.5 152.5 -354.5c0 -119.333 -21.5 -214.666 -64.5 -285.999s-105.833 -123.333 -188.5 -156c35.333 -30 66.166 -69.333 92.499 -118s57.5 -115 93.5 -199c38.667 -93.333 71.334 -163 98.001 -209zM506.002 804c33.333 -4 103.001 -6 209.001 -6
c90 0 156.333 25.667 199 77s64 116 64 194c0 45.333 -7.16699 84.833 -21.5 118.5s-41.833 61 -82.5 82s-98.334 31.5 -173.001 31.5c-79.333 0 -144.333 -6 -195 -18v-479z" />
    <glyph glyph-name="rcaron" unicode="&#x159;" horiz-adv-x="926" 
d="M540 1467l233 246l161 -90l-283 -372h-223l-286 373l156 89zM861 1145l0.000976562 -301c-15.333 8.66699 -32.833 15.5 -52.5 20.5s-47.834 7.5 -84.501 7.5c-96 0 -180.667 -34.333 -254 -103v-769h-312v1140h277l14 -156c16.667 29.333 41.5 57.333 74.5 84
s71.333 48.5 115 65.5s88.167 25.5 133.5 25.5c43.333 0 73 -4.66699 89 -14z" />
    <glyph glyph-name="Sacute" unicode="&#x15a;" horiz-adv-x="1207" 
d="M197 329c48.667 -26.667 107.333 -49.333 176 -68s140.667 -28 216 -28c82 0 139.667 12.5 173 37.5s50 64.167 50 117.5c0 36 -8.33301 66.5 -25 91.5s-44.834 50.167 -84.501 75.5s-101.5 58.666 -185.5 99.999c-112 55.333 -203 120 -273 194s-105 167 -105 279
c0 96 23.5 174.5 70.5 235.5s110.333 105.333 190 133s169.834 41.5 270.501 41.5c86.667 0 165.5 -9.33301 236.5 -28s123.167 -38.667 156.5 -60l-52 -247c-45.333 28.667 -94.833 52 -148.5 70s-114.834 27 -183.501 27c-80.667 0 -138.834 -13.5 -174.501 -40.5
s-53.5 -65.5 -53.5 -115.5c0 -35.333 8.83301 -65.666 26.5 -90.999s43.834 -49.5 78.501 -72.5s87.334 -53.167 158.001 -90.5c96 -50.667 172.5 -96.167 229.5 -136.5s102.667 -88.5 137 -144.5s51.5 -123 51.5 -201c0 -89.333 -21.667 -165.833 -65 -229.5
s-104.5 -112 -183.5 -145s-170.5 -49.5 -274.5 -49.5c-62 0 -124.5 4.83301 -187.5 14.5s-118.667 21.5 -167 35.5s-82.5 27.333 -102.5 40zM684.499 1841c71 71.333 110.164 117.667 117.497 139l217 -131c-29.333 -38 -66.666 -78.833 -111.999 -122.5
s-91.166 -82.5 -137.499 -116.5s-85.166 -56.333 -116.499 -67l-146 125z" />
    <glyph glyph-name="sacute" unicode="&#x15b;" horiz-adv-x="1048" 
d="M584 1580c59.333 72 113.333 147.667 162 227l214 -174c-18 -42 -53.5 -90.333 -106.5 -145s-109 -104.667 -168 -150s-102.833 -74.333 -131.5 -87l-149 137c60 56 119.667 120 179 192zM218 267.5c34.667 -14.333 74.8291 -26.835 120.496 -37.502
s90.834 -16 135.501 -16c62 -0.666992 107.333 6.33301 136 21s43 39.334 43 74.001c0 32 -19.833 61 -59.5 87s-102.167 53 -187.5 81c-101.333 33.333 -174.5 78.666 -219.5 135.999s-67.5 128 -67.5 212c0 70.667 19.5 130.834 58.5 180.501s93.167 87.167 162.5 112.5
s149 38 239 38c72.667 0 137.667 -7 195 -21s99.333 -28.667 126 -44l-34 -240c-22.667 20.667 -59.167 38.667 -109.5 54s-99.166 23 -146.499 23c-68 0 -117.167 -7.16699 -147.5 -21.5s-45.5 -37.833 -45.5 -70.5c0 -23.333 7 -43.166 21 -59.499s36.5 -32 67.5 -47
s75.833 -32.5 134.5 -52.5c78 -26.667 140.167 -55.834 186.5 -87.501s80.166 -68 101.499 -109s32 -89.833 32 -146.5c0 -115.333 -39.5 -202.5 -118.5 -261.5s-188.5 -88.5 -328.5 -88.5c-52.667 0 -105.667 4.33301 -159 13s-101.166 19.834 -143.499 33.501
s-74.166 27.5 -95.499 41.5l32 232c12.667 -10 36.334 -22.167 71.001 -36.5z" />
    <glyph glyph-name="Scircumflex" unicode="&#x15c;" horiz-adv-x="1207" 
d="M197 329c48.667 -26.667 107.333 -49.333 176 -68s140.667 -28 216 -28c82 0 139.667 12.5 173 37.5s50 64.167 50 117.5c0 36 -8.33301 66.5 -25 91.5s-44.834 50.167 -84.501 75.5s-101.5 58.666 -185.5 99.999c-112 55.333 -203 120 -273 194s-105 167 -105 279
c0 96 23.5 174.5 70.5 235.5s110.333 105.333 190 133s169.834 41.5 270.501 41.5c86.667 0 165.5 -9.33301 236.5 -28s123.167 -38.667 156.5 -60l-52 -247c-45.333 28.667 -94.833 52 -148.5 70s-114.834 27 -183.501 27c-80.667 0 -138.834 -13.5 -174.501 -40.5
s-53.5 -65.5 -53.5 -115.5c0 -35.333 8.83301 -65.666 26.5 -90.999s43.834 -49.5 78.501 -72.5s87.334 -53.167 158.001 -90.5c96 -50.667 172.5 -96.167 229.5 -136.5s102.667 -88.5 137 -144.5s51.5 -123 51.5 -201c0 -89.333 -21.667 -165.833 -65 -229.5
s-104.5 -112 -183.5 -145s-170.5 -49.5 -274.5 -49.5c-62 0 -124.5 4.83301 -187.5 14.5s-118.667 21.5 -167 35.5s-82.5 27.333 -102.5 40zM538.999 1959h220l276 -308l-165 -92l-221 199l-222 -199l-162 90z" />
    <glyph glyph-name="scircumflex" unicode="&#x15d;" horiz-adv-x="1048" 
d="M429 1698h223l283 -372l-161 -90l-233 246l-242 -246l-156 89zM218 267.5c34.667 -14.333 74.8291 -26.835 120.496 -37.502s90.834 -16 135.501 -16c62 -0.666992 107.333 6.33301 136 21s43 39.334 43 74.001c0 32 -19.833 61 -59.5 87s-102.167 53 -187.5 81
c-101.333 33.333 -174.5 78.666 -219.5 135.999s-67.5 128 -67.5 212c0 70.667 19.5 130.834 58.5 180.501s93.167 87.167 162.5 112.5s149 38 239 38c72.667 0 137.667 -7 195 -21s99.333 -28.667 126 -44l-34 -240c-22.667 20.667 -59.167 38.667 -109.5 54
s-99.166 23 -146.499 23c-68 0 -117.167 -7.16699 -147.5 -21.5s-45.5 -37.833 -45.5 -70.5c0 -23.333 7 -43.166 21 -59.499s36.5 -32 67.5 -47s75.833 -32.5 134.5 -52.5c78 -26.667 140.167 -55.834 186.5 -87.501s80.166 -68 101.499 -109s32 -89.833 32 -146.5
c0 -115.333 -39.5 -202.5 -118.5 -261.5s-188.5 -88.5 -328.5 -88.5c-52.667 0 -105.667 4.33301 -159 13s-101.166 19.834 -143.499 33.501s-74.166 27.5 -95.499 41.5l32 232c12.667 -10 36.334 -22.167 71.001 -36.5z" />
    <glyph glyph-name="Scedilla" unicode="&#x15e;" horiz-adv-x="1207" 
d="M1021.5 123.5c-73.667 -71.667 -174.17 -115.832 -301.503 -132.499c13.333 -26 22.833 -58 28.5 -96s7.83398 -76.667 6.50098 -116c-2.66699 -81.333 -27.834 -142.166 -75.501 -182.499s-107.5 -60.5 -179.5 -60.5c-31.333 0 -66.166 2.83301 -104.499 8.5
s-63.5 12.167 -75.5 19.5l20 165c14.667 -9.33301 40.334 -14 77.001 -14c34 0 62.167 12.667 84.5 38s34.5 62.666 36.5 111.999c0.666992 8 1 19 1 33c0 33.333 -4 63 -12 89c-79.333 5.33301 -154.833 17 -226.5 35s-121.167 35.333 -148.5 52l45 255
c48.667 -26.667 107.334 -49.334 176.001 -68.001s140.667 -28 216 -28c82 0 139.667 12.5 173 37.5s50 64.167 50 117.5c0 36 -8.33301 66.5 -25 91.5s-44.834 50.167 -84.501 75.5s-101.5 58.666 -185.5 99.999c-112 55.333 -203 120 -273 194s-105 167 -105 279
c0 96 23.5 174.5 70.5 235.5s110.333 105.333 190 133s169.834 41.5 270.501 41.5c86.667 0 165.5 -9.33301 236.5 -28s123.167 -38.667 156.5 -60l-52 -247c-45.333 28.667 -94.833 52 -148.5 70s-114.834 27 -183.501 27c-80.667 0 -138.834 -13.5 -174.501 -40.5
s-53.5 -65.5 -53.5 -115.5c0 -35.333 8.83301 -65.666 26.5 -90.999s43.834 -49.5 78.501 -72.5s87.334 -53.167 158.001 -90.5c96 -50.667 172.5 -96.167 229.5 -136.5s102.667 -88.5 137 -144.5s51.5 -123 51.5 -201c0 -118 -36.833 -212.833 -110.5 -284.5z" />
    <glyph glyph-name="scedilla" unicode="&#x15f;" horiz-adv-x="1048" 
d="M874.5 102c-57 -57.333 -137.505 -94.002 -241.505 -110.002c13.333 -25.333 22.833 -57.166 28.5 -95.499s7.83398 -77.5 6.50098 -117.5c-2.66699 -81.333 -27.834 -142.166 -75.501 -182.499s-107.5 -60.5 -179.5 -60.5c-31.333 0 -66.166 2.83301 -104.499 8.5
s-63.5 12.167 -75.5 19.5l20 165c14.667 -9.33301 40.334 -14 77.001 -14c34 0 62.167 12.667 84.5 38s34.5 62.666 36.5 111.999c0.666992 8 1 19 1 33c0 33.333 -4 63 -12 89c-67.333 5.33301 -131.333 16.166 -192 32.499s-105 33.833 -133 52.5l32 232
c12.667 -10 36.334 -22.167 71.001 -36.5s74.834 -26.833 120.501 -37.5s90.834 -16 135.501 -16c62 -0.666992 107.333 6.33301 136 21s43 39.334 43 74.001c0 32 -19.833 61 -59.5 87s-102.167 53 -187.5 81c-101.333 33.333 -174.5 78.666 -219.5 135.999
s-67.5 128 -67.5 212c0 70.667 19.5 130.834 58.5 180.501s93.167 87.167 162.5 112.5s149 38 239 38c72.667 0 137.667 -7 195 -21s99.333 -28.667 126 -44l-34 -240c-22.667 20.667 -59.167 38.667 -109.5 54s-99.166 23 -146.499 23
c-68 0 -117.167 -7.16699 -147.5 -21.5s-45.5 -37.833 -45.5 -70.5c0 -23.333 7 -43.166 21 -59.499s36.5 -32 67.5 -47s75.833 -32.5 134.5 -52.5c78 -26.667 140.167 -55.834 186.5 -87.501s80.166 -68 101.499 -109s32 -89.833 32 -146.5
c0 -97.333 -28.5 -174.666 -85.5 -231.999z" />
    <glyph glyph-name="Scaron" unicode="&#x160;" horiz-adv-x="1207" 
d="M197 329c48.667 -26.667 107.333 -49.333 176 -68s140.667 -28 216 -28c82 0 139.667 12.5 173 37.5s50 64.167 50 117.5c0 36 -8.33301 66.5 -25 91.5s-44.834 50.167 -84.501 75.5s-101.5 58.666 -185.5 99.999c-112 55.333 -203 120 -273 194s-105 167 -105 279
c0 96 23.5 174.5 70.5 235.5s110.333 105.333 190 133s169.834 41.5 270.501 41.5c86.667 0 165.5 -9.33301 236.5 -28s123.167 -38.667 156.5 -60l-52 -247c-45.333 28.667 -94.833 52 -148.5 70s-114.834 27 -183.501 27c-80.667 0 -138.834 -13.5 -174.501 -40.5
s-53.5 -65.5 -53.5 -115.5c0 -35.333 8.83301 -65.666 26.5 -90.999s43.834 -49.5 78.501 -72.5s87.334 -53.167 158.001 -90.5c96 -50.667 172.5 -96.167 229.5 -136.5s102.667 -88.5 137 -144.5s51.5 -123 51.5 -201c0 -89.333 -21.667 -165.833 -65 -229.5
s-104.5 -112 -183.5 -145s-170.5 -49.5 -274.5 -49.5c-62 0 -124.5 4.83301 -187.5 14.5s-118.667 21.5 -167 35.5s-82.5 27.333 -102.5 40zM429.999 1960l220 -181l223 181l154 -91l-267 -293h-219l-268 292z" />
    <glyph glyph-name="scaron" unicode="&#x161;" horiz-adv-x="1048" 
d="M537 1466l233 246l161 -90l-283 -372h-223l-286 373l156 89zM218 267.5c34.667 -14.333 74.8291 -26.835 120.496 -37.502s90.834 -16 135.501 -16c62 -0.666992 107.333 6.33301 136 21s43 39.334 43 74.001c0 32 -19.833 61 -59.5 87s-102.167 53 -187.5 81
c-101.333 33.333 -174.5 78.666 -219.5 135.999s-67.5 128 -67.5 212c0 70.667 19.5 130.834 58.5 180.501s93.167 87.167 162.5 112.5s149 38 239 38c72.667 0 137.667 -7 195 -21s99.333 -28.667 126 -44l-34 -240c-22.667 20.667 -59.167 38.667 -109.5 54
s-99.166 23 -146.499 23c-68 0 -117.167 -7.16699 -147.5 -21.5s-45.5 -37.833 -45.5 -70.5c0 -23.333 7 -43.166 21 -59.499s36.5 -32 67.5 -47s75.833 -32.5 134.5 -52.5c78 -26.667 140.167 -55.834 186.5 -87.501s80.166 -68 101.499 -109s32 -89.833 32 -146.5
c0 -115.333 -39.5 -202.5 -118.5 -261.5s-188.5 -88.5 -328.5 -88.5c-52.667 0 -105.667 4.33301 -159 13s-101.166 19.834 -143.499 33.501s-74.166 27.5 -95.499 41.5l32 232c12.667 -10 36.334 -22.167 71.001 -36.5z" />
    <glyph glyph-name="uni0162" unicode="&#x162;" horiz-adv-x="1250" 
d="M1220 1522l-0.000976562 -243.999h-434v-1278h-54c14.667 -25.333 25.167 -58 31.5 -98s8.83301 -81 7.5 -123c-2.66699 -81.333 -27.834 -142.166 -75.501 -182.499s-107.5 -60.5 -179.5 -60.5c-31.333 0 -66.166 2.83301 -104.499 8.5s-63.5 12.167 -75.5 19.5l20 165
c14.667 -9.33301 40.334 -14 77.001 -14c34 0 62.167 12.667 84.5 38s34.5 62.666 36.5 111.999c0.666992 7.33301 1 18 1 32c0 39.333 -5.66699 73.666 -17 102.999h-72v1278h-436v244h1190z" />
    <glyph glyph-name="uni0163" unicode="&#x163;" horiz-adv-x="913" 
d="M744 22.5c-54.667 -21 -114 -33.498 -178 -37.498c12 -25.333 20.667 -56.5 26 -93.5s7.33301 -74.5 6 -112.5c-2.66699 -81.333 -27.834 -142.166 -75.501 -182.499s-107.5 -60.5 -179.5 -60.5c-31.333 0 -66.166 2.83301 -104.499 8.5s-63.5 12.167 -75.5 19.5l20 165
c14.667 -9.33301 40.334 -14 77.001 -14c34 0 62.167 12.667 84.5 38s34.5 62.666 36.5 111.999c0.666992 8 1 19.333 1 34c0 41.333 -7.33301 78.666 -22 111.999c-52 22 -89.833 59.5 -113.5 112.5s-35.5 124.833 -35.5 215.5v585h-137v169
c44 12.667 75.833 22.5 95.5 29.5s37.167 16.667 52.5 29s27.333 28.833 36 49.5c14 33.333 39 99.666 75 198.999h190v-260h309v-216h-309v-458c0 -76 4 -131.333 12 -166s20.667 -56.834 38 -66.501s44 -14.5 80 -14.5c28 0 60.167 4.83301 96.5 14.5
s63.166 20.834 80.499 33.501l38 -175c-28 -25.333 -69.333 -48.5 -124 -69.5z" />
    <glyph glyph-name="Tcaron" unicode="&#x164;" horiz-adv-x="1250" 
d="M402 1960l220 -181l223 181l154 -91l-267 -293h-219l-268 292zM30 1278v244h1190v-244h-434v-1278h-320v1278h-436z" />
    <glyph glyph-name="tcaron" unicode="&#x165;" horiz-adv-x="1058" 
d="M211 924h-136.999v169c44 12.667 75.833 22.5 95.5 29.5s37.167 16.667 52.5 29s27.333 28.833 36 49.5c14 33.333 39 99.666 75 198.999h190v-260h309v-216h-309v-458c0 -76 4 -131.333 12 -166s20.667 -56.834 38 -66.501s44 -14.5 80 -14.5
c28 0 60.167 4.83301 96.5 14.5s63.166 20.834 80.499 33.501l38 -175c-31.333 -28 -78.166 -53 -140.499 -75s-129.5 -33 -201.5 -33c-76.667 0 -137.834 11.833 -183.501 35.5s-79 61.334 -100 113.001s-31.5 120.5 -31.5 206.5v585zM792.001 1273
c6.66699 31.333 12.168 74.999 16.501 130.999s6.16602 111 5.49902 165c0 44.667 -5.83301 87.834 -17.5 129.501s-25.5 70.834 -41.5 87.501l12 64l215 70c47.333 -44.667 71 -134 71 -268c0 -54.667 -6.16699 -111.5 -18.5 -170.5s-27.833 -111.833 -46.5 -158.5
s-37 -80.334 -55 -101.001l-133 28z" />
    <glyph glyph-name="Tbar" unicode="&#x166;" horiz-adv-x="1250" 
d="M786 1278v-482h289v-199h-289v-597h-320v597h-273v199h273v482h-436v244h1190v-244h-434z" />
    <glyph glyph-name="tbar" unicode="&#x167;" horiz-adv-x="913" 
d="M868 92c-31.333 -28 -78.165 -53 -140.498 -75s-129.5 -33 -201.5 -33c-76.667 0 -137.834 11.833 -183.501 35.5s-79 61.334 -100 113.001s-31.5 120.5 -31.5 206.5v184h-130v214h130v187h-137v169c44 12.667 75.833 22.5 95.5 29.5s37.167 16.667 52.5 29
s27.333 28.833 36 49.5c14 33.333 39 99.666 75 198.999h190v-260h309v-216h-309v-187h316v-214h-316v-57c0 -76 4 -131.333 12 -166s20.667 -56.834 38 -66.501s44 -14.5 80 -14.5c28 0 60.167 4.83301 96.5 14.5s63.166 20.834 80.499 33.501z" />
    <glyph glyph-name="Utilde" unicode="&#x168;" horiz-adv-x="1525" 
d="M447 1894c52 42 114.668 62.998 188.001 62.998c40 0 73 -6.5 99 -19.5s54 -31.833 84 -56.5c22.667 -18.667 41.667 -32.334 57 -41.001s33.333 -13 54 -13c30 0 57.333 10.333 82 31s49 47.334 73 80.001l126 -108c-24 -69.333 -61.167 -124.666 -111.5 -165.999
s-112.5 -62 -186.5 -62c-38.667 0 -70.5 6.33301 -95.5 19s-52.167 31.334 -81.5 56.001c-24.667 20 -45.334 34.667 -62.001 44s-36.667 14 -60 14c-26 0 -52.5 -10 -79.5 -30s-51.833 -44 -74.5 -72l-125 98c23.333 66.667 61 121 113 163zM152.001 1522h314.999l-2 -852
c0 -115.333 11.167 -204.333 33.5 -267s55.166 -105.834 98.499 -129.501s100 -35.5 170 -35.5c67.333 0 122.333 12.833 165 38.5s75.167 70 97.5 133s33.5 149.833 33.5 260.5v852h313v-882c0 -214 -52 -376.833 -156 -488.5s-258 -167.5 -462 -167.5
c-217.333 0 -373.166 57.833 -467.499 173.5s-141.166 280.834 -140.499 495.501z" />
    <glyph glyph-name="utilde" unicode="&#x169;" horiz-adv-x="1326" 
d="M1152 1140l0.00292969 -1156h-206c-26.667 0 -46 3.83301 -58 11.5s-18 23.167 -18 46.5v52c-43.333 -30.667 -96.166 -56.667 -158.499 -78s-120.5 -32 -174.5 -32c-104 0 -183.333 19.667 -238 59s-91.167 93.666 -109.5 162.999s-27.5 158.666 -27.5 267.999v666h312
v-663c0 -71.333 6.16699 -125.166 18.5 -161.499s30.666 -60.833 54.999 -73.5s58.166 -19 101.499 -19c33.333 0 68.666 7 105.999 21s65.666 28.667 84.999 44v852h312zM341.003 1635c52 42 114.666 62.9971 187.999 62.9971c42.667 0 77.334 -6.66699 104.001 -20
s54.334 -32.333 83.001 -57c21.333 -18 39.5 -31.333 54.5 -40s32.5 -13 52.5 -13c30 0 57.333 10.333 82 31s49 47.334 73 80.001l126 -108c-24 -69.333 -61.167 -124.666 -111.5 -165.999s-112.5 -62 -186.5 -62c-38.667 0 -70.5 6.33301 -95.5 19
s-52.167 31.334 -81.5 56.001c-24.667 20 -45.334 34.667 -62.001 44s-36.667 14 -60 14c-26 0 -52.5 -10 -79.5 -30s-51.833 -44 -74.5 -72l-125 98c23.333 66.667 61 121 113 163z" />
    <glyph glyph-name="Umacron" unicode="&#x16a;" horiz-adv-x="1525" 
d="M1067 1892v-206h-591v206h591zM152 1522h314.999l-2 -852c0 -115.333 11.167 -204.333 33.5 -267s55.166 -105.834 98.499 -129.501s100 -35.5 170 -35.5c67.333 0 122.333 12.833 165 38.5s75.167 70 97.5 133s33.5 149.833 33.5 260.5v852h313v-882
c0 -214 -52 -376.833 -156 -488.5s-258 -167.5 -462 -167.5c-217.333 0 -373.166 57.833 -467.499 173.5s-141.166 280.834 -140.499 495.501z" />
    <glyph glyph-name="umacron" unicode="&#x16b;" horiz-adv-x="1326" 
d="M1152 1140l0.00292969 -1156h-206c-26.667 0 -46 3.83301 -58 11.5s-18 23.167 -18 46.5v52c-43.333 -30.667 -96.166 -56.667 -158.499 -78s-120.5 -32 -174.5 -32c-104 0 -183.333 19.667 -238 59s-91.167 93.666 -109.5 162.999s-27.5 158.666 -27.5 267.999v666h312
v-663c0 -71.333 6.16699 -125.166 18.5 -161.499s30.666 -60.833 54.999 -73.5s58.166 -19 101.499 -19c33.333 0 68.666 7 105.999 21s65.666 28.667 84.999 44v852h312zM970.003 1625v-206h-591v206h591z" />
    <glyph glyph-name="Ubreve" unicode="&#x16c;" horiz-adv-x="1525" 
d="M594 1959c2 -23.333 7.00195 -45.167 15.002 -65.5s24.5 -38.333 49.5 -54s61.167 -23.5 108.5 -23.5c109.333 0 168 47.667 176 143h187c2.66699 -68 -10 -128 -38 -180s-69.833 -92.667 -125.5 -122s-122.167 -44 -199.5 -44c-80.667 0 -148.834 14.5 -204.501 43.5
s-96.834 69.5 -123.501 121.5s-38.667 112.333 -36 181h191zM152.002 1522h314.999l-2 -852c0 -115.333 11.167 -204.333 33.5 -267s55.166 -105.834 98.499 -129.501s100 -35.5 170 -35.5c67.333 0 122.333 12.833 165 38.5s75.167 70 97.5 133s33.5 149.833 33.5 260.5
v852h313v-882c0 -214 -52 -376.833 -156 -488.5s-258 -167.5 -462 -167.5c-217.333 0 -373.166 57.833 -467.499 173.5s-141.166 280.834 -140.499 495.501z" />
    <glyph glyph-name="ubreve" unicode="&#x16d;" horiz-adv-x="1326" 
d="M1152 1140l0.00292969 -1156h-206c-26.667 0 -46 3.83301 -58 11.5s-18 23.167 -18 46.5v52c-43.333 -30.667 -96.166 -56.667 -158.499 -78s-120.5 -32 -174.5 -32c-104 0 -183.333 19.667 -238 59s-91.167 93.666 -109.5 162.999s-27.5 158.666 -27.5 267.999v666h312
v-663c0 -71.333 6.16699 -125.166 18.5 -161.499s30.666 -60.833 54.999 -73.5s58.166 -19 101.499 -19c33.333 0 68.666 7 105.999 21s65.666 28.667 84.999 44v852h312zM507.003 1684c2.66699 -26.667 7.32812 -51.5 13.9951 -74.5s22.334 -44.5 47.001 -64.5
s60.667 -30 108 -30c46 0 81.333 10 106 30s40.834 41.667 48.501 65s12.834 48 15.501 74h193c2.66699 -70 -10.833 -134.667 -40.5 -194s-72.667 -106.333 -129 -141s-121.166 -52 -194.499 -52c-76.667 0 -143 17.333 -199 52s-98.167 81.5 -126.5 140.5
s-41.166 123.833 -38.499 194.5h196z" />
    <glyph glyph-name="Uring" unicode="&#x16e;" horiz-adv-x="1525" 
d="M152 1522h314.999l-2 -852c0 -115.333 11.167 -204.333 33.5 -267s55.166 -105.834 98.499 -129.501s100 -35.5 170 -35.5c67.333 0 122.333 12.833 165 38.5s75.167 70 97.5 133s33.5 149.833 33.5 260.5v852h313v-882c0 -214 -52 -376.833 -156 -488.5
s-258 -167.5 -462 -167.5c-217.333 0 -373.166 57.833 -467.499 173.5s-141.166 280.834 -140.499 495.501zM473.499 1954c33 41.333 75.5 71.001 127.5 89.001s108.667 27 170 27c106 0 188.5 -23 247.5 -69s88.5 -113.667 88.5 -203c0 -65.333 -15.833 -119 -47.5 -161
s-73.5 -72.667 -125.5 -92s-109.333 -29 -172 -29c-106.667 0 -189.667 24.333 -249 73s-89 117 -89 205c0 65.333 16.5 118.666 49.5 159.999zM878.999 1891c-30 22 -69.668 33.001 -119.001 33.001c-46.667 0 -83.667 -9.16699 -111 -27.5s-41 -50.833 -41 -97.5
c0 -41.333 14.333 -73.5 43 -96.5s66.667 -34.5 114 -34.5c52.667 -0.666992 92.334 7.66602 119.001 24.999s40 50.333 40 99c0 44 -15 77 -45 99z" />
    </font>
</defs>
</svg>
